<?xml version="1.0" encoding="utf-8" standalone="no"?>
<!DOCTYPE svg PUBLIC "-//W3C//DTD SVG 1.1//EN"
  "http://www.w3.org/Graphics/SVG/1.1/DTD/svg11.dtd">
<!-- Created with matplotlib (http://matplotlib.org/) -->
<svg height="288pt" version="1.1" viewBox="0 0 432 288" width="432pt" xmlns="http://www.w3.org/2000/svg" xmlns:xlink="http://www.w3.org/1999/xlink">
 <defs>
  <style type="text/css">
*{stroke-linecap:butt;stroke-linejoin:round;}
  </style>
 </defs>
 <g id="figure_1">
  <g id="patch_1">
   <path d="M 0 288 
L 432 288 
L 432 0 
L 0 0 
z
" style="fill:#ffffff;"/>
  </g>
  <g id="axes_1">
   <g id="patch_2">
    <path d="M 30.530079 248.488647 
L 417.995001 248.488647 
L 417.995001 20.802655 
L 30.530079 20.802655 
z
" style="fill:#e6e6e6;"/>
   </g>
   <g id="matplotlib.axis_1">
    <g id="xtick_1">
     <g id="line2d_1">
      <defs>
       <path d="M 0 0 
L 0 3.5 
" id="mf8d2bb5519" style="stroke:#a9a9a9;stroke-width:0.8;"/>
      </defs>
      <g>
       <use style="fill:#a9a9a9;stroke:#a9a9a9;stroke-width:0.8;" x="30.530079" xlink:href="#mf8d2bb5519" y="248.488647"/>
      </g>
     </g>
     <g id="text_1">
      <!-- $0$ -->
      <defs>
       <path d="M 42 31.640625 
C 42 37.75 41.90625 48.125 37.703125 56.109375 
C 34 63.109375 28.09375 65.59375 22.90625 65.59375 
C 18.09375 65.59375 12 63.40625 8.203125 56.203125 
C 4.203125 48.71875 3.796875 39.4375 3.796875 31.640625 
C 3.796875 25.953125 3.90625 17.28125 7 9.671875 
C 11.296875 -0.609375 19 -2 22.90625 -2 
C 27.5 -2 34.5 -0.109375 38.59375 9.375 
C 41.59375 16.28125 42 24.359375 42 31.640625 
z
M 22.90625 -0.40625 
C 16.5 -0.40625 12.703125 5.078125 11.296875 12.6875 
C 10.203125 18.5625 10.203125 27.15625 10.203125 32.75 
C 10.203125 40.4375 10.203125 46.828125 11.5 52.921875 
C 13.40625 61.390625 19 64 22.90625 64 
C 27 64 32.296875 61.296875 34.203125 53.125 
C 35.5 47.4375 35.59375 40.734375 35.59375 32.75 
C 35.59375 26.25 35.59375 18.265625 34.40625 12.375 
C 32.296875 1.484375 26.40625 -0.40625 22.90625 -0.40625 
z
" id="CMR17-48"/>
      </defs>
      <g transform="translate(28.039411 262.407145)scale(0.1 -0.1)">
       <use transform="scale(0.996264)" xlink:href="#CMR17-48"/>
      </g>
     </g>
    </g>
    <g id="xtick_2">
     <g id="line2d_2">
      <g>
       <use style="fill:#a9a9a9;stroke:#a9a9a9;stroke-width:0.8;" x="220.352204" xlink:href="#mf8d2bb5519" y="248.488647"/>
      </g>
     </g>
     <g id="text_2">
      <!-- $500$ -->
      <defs>
       <path d="M 11.40625 57.6875 
C 12.40625 57.28125 16.5 56 20.703125 56 
C 30 56 35.09375 61.109375 38 64.0625 
C 38 64.953125 38 65.5 37.40625 65.5 
C 37.296875 65.5 37.09375 65.5 36.296875 65.046875 
C 32.796875 63.40625 28.703125 62.078125 23.703125 62.078125 
C 20.703125 62.078125 16.203125 62.484375 11.296875 64.671875 
C 10.203125 65.171875 10 65.171875 9.90625 65.171875 
C 9.40625 65.171875 9.296875 65.0625 9.296875 63.078125 
L 9.296875 34.421875 
C 9.296875 32.640625 9.296875 32.140625 10.296875 32.140625 
C 10.796875 32.140625 11 32.34375 11.5 33.03125 
C 14.703125 37.515625 19.09375 39.40625 24.09375 39.40625 
C 27.59375 39.40625 35.09375 37.21875 35.09375 20.140625 
C 35.09375 16.953125 35.09375 11.171875 32.09375 6.578125 
C 29.59375 2.484375 25.703125 0.390625 21.40625 0.390625 
C 14.796875 0.390625 8.09375 5 6.296875 12.71875 
C 6.703125 12.609375 7.5 12.421875 7.90625 12.421875 
C 9.203125 12.421875 11.703125 13.125 11.703125 16.21875 
C 11.703125 18.90625 9.796875 20 7.90625 20 
C 5.59375 20 4.09375 18.59375 4.09375 15.796875 
C 4.09375 7.09375 11 -2 21.59375 -2 
C 31.90625 -2 41.703125 6.875 41.703125 19.75 
C 41.703125 31.71875 33.90625 41 24.203125 41 
C 19.09375 41 14.796875 39.109375 11.40625 35.53125 
z
" id="CMR17-53"/>
      </defs>
      <g transform="translate(212.880202 262.407145)scale(0.1 -0.1)">
       <use transform="scale(0.996264)" xlink:href="#CMR17-53"/>
       <use transform="translate(45.690477 0)scale(0.996264)" xlink:href="#CMR17-48"/>
       <use transform="translate(91.380954 0)scale(0.996264)" xlink:href="#CMR17-48"/>
      </g>
     </g>
    </g>
    <g id="xtick_3">
     <g id="line2d_3">
      <g>
       <use style="fill:#a9a9a9;stroke:#a9a9a9;stroke-width:0.8;" x="410.17433" xlink:href="#mf8d2bb5519" y="248.488647"/>
      </g>
     </g>
     <g id="text_3">
      <!-- $1000$ -->
      <defs>
       <path d="M 26.59375 63.40625 
C 26.59375 65.5 26.5 65.5 25.09375 65.5 
C 21.203125 61.1875 15.296875 59.796875 9.703125 59.796875 
C 9.40625 59.796875 8.90625 59.796875 8.796875 59.5 
C 8.703125 59.296875 8.703125 59.09375 8.703125 57 
C 11.796875 57 17 57.59375 21 59.984375 
L 21 7.203125 
C 21 3.6875 20.796875 2.5 12.203125 2.5 
L 9.203125 2.5 
L 9.203125 0 
C 14 0 19 0 23.796875 0 
C 28.59375 0 33.59375 0 38.40625 0 
L 38.40625 2.5 
L 35.40625 2.5 
C 26.796875 2.5 26.59375 3.59375 26.59375 7.15625 
z
" id="CMR17-49"/>
      </defs>
      <g transform="translate(400.211659 262.407145)scale(0.1 -0.1)">
       <use transform="scale(0.996264)" xlink:href="#CMR17-49"/>
       <use transform="translate(45.690477 0)scale(0.996264)" xlink:href="#CMR17-48"/>
       <use transform="translate(91.380954 0)scale(0.996264)" xlink:href="#CMR17-48"/>
       <use transform="translate(137.071431 0)scale(0.996264)" xlink:href="#CMR17-48"/>
      </g>
     </g>
    </g>
    <g id="text_4">
     <!-- Iteration -->
     <defs>
      <path d="M 19.703125 61.015625 
C 19.703125 65.5 20.90625 65.5 28.09375 65.5 
L 28.09375 68 
C 24.90625 68 19.796875 68 16.40625 68 
C 13 68 7.90625 68 4.703125 68 
L 4.703125 65.5 
C 11.90625 65.5 13.09375 65.5 13.09375 61.015625 
L 13.09375 6.984375 
C 13.09375 2.5 11.90625 2.5 4.703125 2.5 
L 4.703125 0 
C 7.90625 0 13 0 16.40625 0 
C 19.796875 0 24.90625 0 28.09375 0 
L 28.09375 2.5 
C 20.90625 2.5 19.703125 2.5 19.703125 6.984375 
z
" id="CMR17-73"/>
      <path d="M 15.09375 40 
L 29.09375 40 
L 29.09375 42.578125 
L 15.09375 42.578125 
L 15.09375 61 
L 13.296875 61 
C 13.09375 50.703125 9.59375 41.6875 1.09375 41.6875 
L 1.09375 40 
L 9.796875 40 
L 9.796875 12.046875 
C 9.796875 10.15625 9.796875 -1 21.40625 -1 
C 27.296875 -1 30.703125 4.78125 30.703125 12.140625 
L 30.703125 17.8125 
L 28.90625 17.8125 
L 28.90625 12.234375 
C 28.90625 5.375 26.203125 0.796875 22 0.796875 
C 19.09375 0.796875 15.09375 2.78125 15.09375 11.84375 
z
" id="CMR17-116"/>
      <path d="M 38.09375 23 
C 38.5 23.40625 38.5 23.609375 38.5 24.625 
C 38.5 34.96875 33.09375 44 21.703125 44 
C 11.09375 44 2.703125 33.890625 2.703125 21.609375 
C 2.703125 8.609375 12.203125 -1 22.796875 -1 
C 34 -1 38.40625 9.484375 38.40625 11.5625 
C 38.40625 12.25 37.796875 12.25 37.59375 12.25 
C 36.90625 12.25 36.796875 12.046875 36.40625 10.875 
C 34.203125 4.140625 28.703125 0.796875 23.5 0.796875 
C 19.203125 0.796875 14.90625 3.171875 12.203125 7.5 
C 9.09375 12.546875 9.09375 18.375 9.09375 23 
z
M 9.203125 24.5 
C 9.90625 39.140625 17.59375 42.40625 21.59375 42.40625 
C 28.40625 42.40625 33 35.890625 33.09375 24.5 
z
" id="CMR17-101"/>
      <path d="M 15 23.390625 
C 15 33 19.09375 42 26.59375 42 
C 27.296875 42 28 41.90625 28.703125 41.59375 
C 28.703125 41.59375 26.5 40.890625 26.5 38.3125 
C 26.5 35.90625 28.40625 34.90625 29.90625 34.90625 
C 31.09375 34.90625 33.296875 35.609375 33.296875 38.40625 
C 33.296875 41.609375 30.09375 43.59375 26.703125 43.59375 
C 19.09375 43.59375 15.796875 36.203125 14.796875 32.703125 
L 14.703125 32.703125 
L 14.703125 43.59375 
L 3.09375 42.5 
L 3.09375 39.90625 
C 9 39.90625 9.90625 39.296875 9.90625 34.5 
L 9.90625 6.6875 
C 9.90625 2.875 9.5 2.390625 3.09375 2.390625 
L 3.09375 -0.203125 
C 5.5 0 10.09375 0 12.703125 0 
C 15.59375 0 20.703125 0 23.40625 -0.203125 
L 23.40625 2.390625 
C 16.203125 2.390625 15 2.390625 15 6.875 
z
" id="CMR17-114"/>
      <path d="M 36 25.828125 
C 36 32.375 36 35.84375 31.796875 39.734375 
C 28.09375 43 23.796875 44 20.40625 44 
C 12.5 44 6.796875 37.609375 6.796875 30.796875 
C 6.796875 27 9.796875 27 10.40625 27 
C 11.703125 27 14 27.78125 14 30.53125 
C 14 33 12.09375 34.078125 10.40625 34.078125 
C 10 34.078125 9.5 33.96875 9.203125 33.875 
C 11.296875 40.5 16.703125 42.40625 20.203125 42.40625 
C 25.203125 42.40625 30.703125 37.953125 30.703125 29.453125 
L 30.703125 25 
C 24.796875 25 17.703125 24.203125 12.09375 21.203125 
C 5.796875 17.703125 4 12.703125 4 8.90625 
C 4 1.203125 13 -1 18.296875 -1 
C 23.796875 -1 28.90625 2.171875 31.09375 7.984375 
C 31.296875 3.640625 34.09375 -0.28125 38.5 -0.28125 
C 40.59375 -0.28125 45.90625 1.09375 45.90625 8.859375 
L 45.90625 14.375 
L 44.09375 14.375 
L 44.09375 8.78125 
C 44.09375 2.78125 41.40625 2 40.09375 2 
C 36 2 36 7.15625 36 11.53125 
z
M 30.703125 13.59375 
C 30.703125 4.953125 24.5 0.59375 19 0.59375 
C 14 0.59375 10.09375 4.296875 10.09375 8.90625 
C 10.09375 11.890625 11.40625 17.1875 17.203125 20.390625 
C 22 23.09375 27.5 23.5 30.703125 23.5 
z
" id="CMR17-97"/>
      <path d="M 15.5 61.078125 
C 15.5 63.265625 13.703125 65.15625 11.40625 65.15625 
C 9.203125 65.15625 7.296875 63.375 7.296875 61.078125 
C 7.296875 58.890625 9.09375 57 11.40625 57 
C 13.59375 57 15.5 58.796875 15.5 61.078125 
z
M 3.796875 42.28125 
L 3.796875 39.703125 
C 9.40625 39.703125 10.203125 39.09375 10.203125 34.328125 
L 10.203125 6.671875 
C 10.203125 2.875 9.796875 2.390625 3.40625 2.390625 
L 3.40625 -0.203125 
C 5.796875 0 10.09375 0 12.59375 0 
C 15 0 19.09375 0 21.40625 -0.203125 
L 21.40625 2.390625 
C 15.5 2.390625 15.296875 2.984375 15.296875 6.5625 
L 15.296875 43.375 
z
" id="CMR17-105"/>
      <path d="M 43.09375 21.1875 
C 43.09375 34 33.796875 44 22.90625 44 
C 12 44 2.703125 34 2.703125 21.1875 
C 2.703125 8.609375 12 -1 22.90625 -1 
C 33.796875 -1 43.09375 8.609375 43.09375 21.1875 
z
M 22.90625 0.796875 
C 18.203125 0.796875 14.203125 3.59375 11.90625 7.5 
C 9.40625 11.984375 9.09375 17.59375 9.09375 22 
C 9.09375 26.203125 9.296875 31.40625 11.90625 35.90625 
C 13.90625 39.203125 17.796875 42.40625 22.90625 42.40625 
C 27.40625 42.40625 31.203125 39.90625 33.59375 36.40625 
C 36.703125 31.703125 36.703125 25.109375 36.703125 22 
C 36.703125 18.09375 36.5 12.109375 33.796875 7.296875 
C 31 2.703125 26.703125 0.796875 22.90625 0.796875 
z
" id="CMR17-111"/>
      <path d="M 41.5 30.203125 
C 41.5 35.296875 40.5 43.59375 28.703125 43.59375 
C 20.796875 43.59375 16.703125 37.5 15.203125 33.5 
L 15.09375 33.5 
L 15.09375 43.59375 
L 3.296875 42.5 
L 3.296875 39.90625 
C 9.203125 39.90625 10.09375 39.296875 10.09375 34.5 
L 10.09375 6.6875 
C 10.09375 2.875 9.703125 2.390625 3.296875 2.390625 
L 3.296875 -0.203125 
C 5.703125 0 10.09375 0 12.703125 0 
C 15.296875 0 19.796875 0 22.203125 -0.203125 
L 22.203125 2.390625 
C 15.796875 2.390625 15.40625 2.78125 15.40625 6.6875 
L 15.40625 25.90625 
C 15.40625 35.109375 21 42 28 42 
C 35.40625 42 36.203125 35.40625 36.203125 30.59375 
L 36.203125 6.6875 
C 36.203125 2.875 35.796875 2.390625 29.40625 2.390625 
L 29.40625 -0.203125 
C 31.796875 0 36.203125 0 38.796875 0 
C 41.40625 0 45.90625 0 48.296875 -0.203125 
L 48.296875 2.390625 
C 41.90625 2.390625 41.5 2.78125 41.5 6.6875 
z
" id="CMR17-110"/>
     </defs>
     <g transform="translate(205.29197 275.262822)scale(0.1 -0.1)">
      <use transform="scale(0.996264)" xlink:href="#CMR17-73"/>
      <use transform="translate(32.638409 0)scale(0.996264)" xlink:href="#CMR17-116"/>
      <use transform="translate(67.919177 0)scale(0.996264)" xlink:href="#CMR17-101"/>
      <use transform="translate(108.404837 0)scale(0.996264)" xlink:href="#CMR17-114"/>
      <use transform="translate(143.685605 0)scale(0.996264)" xlink:href="#CMR17-97"/>
      <use transform="translate(189.376082 0)scale(0.996264)" xlink:href="#CMR17-116"/>
      <use transform="translate(224.65685 0)scale(0.996264)" xlink:href="#CMR17-105"/>
      <use transform="translate(249.527909 0)scale(0.996264)" xlink:href="#CMR17-111"/>
      <use transform="translate(295.218386 0)scale(0.996264)" xlink:href="#CMR17-110"/>
     </g>
    </g>
   </g>
   <g id="matplotlib.axis_2">
    <g id="ytick_1">
     <g id="line2d_4">
      <path clip-path="url(#p9344e448a1)" d="M 30.530079 235.603415 
L 417.995001 235.603415 
" style="fill:none;stroke:#ffffff;stroke-linecap:square;stroke-width:0.75;"/>
     </g>
     <g id="line2d_5">
      <defs>
       <path d="M 0 0 
L -3.5 0 
" id="mb09badc44b" style="stroke:#a9a9a9;stroke-width:0.8;"/>
      </defs>
      <g>
       <use style="fill:#a9a9a9;stroke:#a9a9a9;stroke-width:0.8;" x="30.530079" xlink:href="#mb09badc44b" y="235.603415"/>
      </g>
     </g>
     <g id="text_5">
      <!-- $0.0$ -->
      <defs>
       <path d="M 18.40625 4.796875 
C 18.40625 7.6875 16 9.671875 13.59375 9.671875 
C 10.703125 9.671875 8.703125 7.28125 8.703125 4.890625 
C 8.703125 2 11.09375 0 13.5 0 
C 16.40625 0 18.40625 2.390625 18.40625 4.796875 
z
" id="CMMI12-58"/>
      </defs>
      <g transform="translate(10.8 239.062665)scale(0.1 -0.1)">
       <use transform="scale(0.996264)" xlink:href="#CMR17-48"/>
       <use transform="translate(45.690477 0)scale(0.996264)" xlink:href="#CMMI12-58"/>
       <use transform="translate(72.787654 0)scale(0.996264)" xlink:href="#CMR17-48"/>
      </g>
     </g>
    </g>
    <g id="ytick_2">
     <g id="line2d_6">
      <path clip-path="url(#p9344e448a1)" d="M 30.530079 181.903225 
L 417.995001 181.903225 
" style="fill:none;stroke:#ffffff;stroke-linecap:square;stroke-width:0.75;"/>
     </g>
     <g id="line2d_7">
      <g>
       <use style="fill:#a9a9a9;stroke:#a9a9a9;stroke-width:0.8;" x="30.530079" xlink:href="#mb09badc44b" y="181.903225"/>
      </g>
     </g>
     <g id="text_6">
      <!-- $0.5$ -->
      <g transform="translate(10.8 185.362475)scale(0.1 -0.1)">
       <use transform="scale(0.996264)" xlink:href="#CMR17-48"/>
       <use transform="translate(45.690477 0)scale(0.996264)" xlink:href="#CMMI12-58"/>
       <use transform="translate(72.787654 0)scale(0.996264)" xlink:href="#CMR17-53"/>
      </g>
     </g>
    </g>
    <g id="ytick_3">
     <g id="line2d_8">
      <path clip-path="url(#p9344e448a1)" d="M 30.530079 128.203035 
L 417.995001 128.203035 
" style="fill:none;stroke:#ffffff;stroke-linecap:square;stroke-width:0.75;"/>
     </g>
     <g id="line2d_9">
      <g>
       <use style="fill:#a9a9a9;stroke:#a9a9a9;stroke-width:0.8;" x="30.530079" xlink:href="#mb09badc44b" y="128.203035"/>
      </g>
     </g>
     <g id="text_7">
      <!-- $1.0$ -->
      <g transform="translate(10.8 131.662285)scale(0.1 -0.1)">
       <use transform="scale(0.996264)" xlink:href="#CMR17-49"/>
       <use transform="translate(45.690477 0)scale(0.996264)" xlink:href="#CMMI12-58"/>
       <use transform="translate(72.787654 0)scale(0.996264)" xlink:href="#CMR17-48"/>
      </g>
     </g>
    </g>
    <g id="ytick_4">
     <g id="line2d_10">
      <path clip-path="url(#p9344e448a1)" d="M 30.530079 74.502845 
L 417.995001 74.502845 
" style="fill:none;stroke:#ffffff;stroke-linecap:square;stroke-width:0.75;"/>
     </g>
     <g id="line2d_11">
      <g>
       <use style="fill:#a9a9a9;stroke:#a9a9a9;stroke-width:0.8;" x="30.530079" xlink:href="#mb09badc44b" y="74.502845"/>
      </g>
     </g>
     <g id="text_8">
      <!-- $1.5$ -->
      <g transform="translate(10.8 77.962095)scale(0.1 -0.1)">
       <use transform="scale(0.996264)" xlink:href="#CMR17-49"/>
       <use transform="translate(45.690477 0)scale(0.996264)" xlink:href="#CMMI12-58"/>
       <use transform="translate(72.787654 0)scale(0.996264)" xlink:href="#CMR17-53"/>
      </g>
     </g>
    </g>
    <g id="ytick_5">
     <g id="line2d_12">
      <path clip-path="url(#p9344e448a1)" d="M 30.530079 20.802655 
L 417.995001 20.802655 
" style="fill:none;stroke:#ffffff;stroke-linecap:square;stroke-width:0.75;"/>
     </g>
     <g id="line2d_13">
      <g>
       <use style="fill:#a9a9a9;stroke:#a9a9a9;stroke-width:0.8;" x="30.530079" xlink:href="#mb09badc44b" y="20.802655"/>
      </g>
     </g>
     <g id="text_9">
      <!-- $2.0$ -->
      <defs>
       <path d="M 41.703125 15.453125 
L 39.90625 15.453125 
C 38.90625 8.375 38.09375 7.171875 37.703125 6.5625 
C 37.203125 5.765625 30 5.765625 28.59375 5.765625 
L 9.40625 5.765625 
C 13 9.671875 20 16.75 28.5 24.953125 
C 34.59375 30.734375 41.703125 37.53125 41.703125 47.421875 
C 41.703125 59.21875 32.296875 66 21.796875 66 
C 10.796875 66 4.09375 56.3125 4.09375 47.34375 
C 4.09375 43.4375 7 42.9375 8.203125 42.9375 
C 9.203125 42.9375 12.203125 43.546875 12.203125 47.03125 
C 12.203125 50.109375 9.59375 51 8.203125 51 
C 7.59375 51 7 50.90625 6.59375 50.703125 
C 8.5 59.21875 14.296875 63.40625 20.40625 63.40625 
C 29.09375 63.40625 34.796875 56.515625 34.796875 47.421875 
C 34.796875 38.734375 29.703125 31.25 24 24.75 
L 4.09375 2.28125 
L 4.09375 0 
L 39.296875 0 
z
" id="CMR17-50"/>
      </defs>
      <g transform="translate(10.8 24.261905)scale(0.1 -0.1)">
       <use transform="scale(0.996264)" xlink:href="#CMR17-50"/>
       <use transform="translate(45.690477 0)scale(0.996264)" xlink:href="#CMMI12-58"/>
       <use transform="translate(72.787654 0)scale(0.996264)" xlink:href="#CMR17-48"/>
      </g>
     </g>
    </g>
    <g id="text_10">
     <!-- $\times10^{-5}$ -->
     <defs>
      <path d="M 38.90625 27.890625 
L 18.90625 47.796875 
C 17.703125 49 17.5 49.1875 16.703125 49.1875 
C 15.703125 49.1875 14.703125 48.296875 14.703125 47.1875 
C 14.703125 46.5 14.90625 46.296875 16 45.1875 
L 36 25.09375 
L 16 5 
C 14.90625 3.890625 14.703125 3.6875 14.703125 3 
C 14.703125 1.890625 15.703125 1 16.703125 1 
C 17.5 1 17.703125 1.1875 18.90625 2.390625 
L 38.796875 22.296875 
L 59.5 1.59375 
C 59.703125 1.5 60.40625 1 61 1 
C 62.203125 1 63 1.890625 63 3 
C 63 3.1875 63 3.59375 62.703125 4.09375 
C 62.59375 4.296875 46.703125 20 41.703125 25.09375 
L 60 43.390625 
C 60.5 44 62 45.296875 62.5 45.890625 
C 62.59375 46.09375 63 46.5 63 47.1875 
C 63 48.296875 62.203125 49.1875 61 49.1875 
C 60.203125 49.1875 59.796875 48.796875 58.703125 47.6875 
z
" id="CMSY10-2"/>
      <path d="M 65.90625 23 
C 67.59375 23 69.40625 23 69.40625 25 
C 69.40625 27 67.59375 27 65.90625 27 
L 11.796875 27 
C 10.09375 27 8.296875 27 8.296875 25 
C 8.296875 23 10.09375 23 11.796875 23 
z
" id="CMSY10-0"/>
     </defs>
     <g transform="translate(30.530079 17.802655)scale(0.1 -0.1)">
      <use transform="scale(0.996264)" xlink:href="#CMSY10-2"/>
      <use transform="translate(77.487468 0)scale(0.996264)" xlink:href="#CMR17-49"/>
      <use transform="translate(123.177945 0)scale(0.996264)" xlink:href="#CMR17-48"/>
      <use transform="translate(168.868422 36.153639)scale(0.697382)" xlink:href="#CMSY10-0"/>
      <use transform="translate(223.109415 36.153639)scale(0.697382)" xlink:href="#CMR17-53"/>
     </g>
    </g>
   </g>
   <g id="line2d_14">
    <path clip-path="url(#p9344e448a1)" d="M 31.594822 -1 
L 31.669012 2.103971 
L 32.048656 11.749701 
L 32.4283 31.019907 
L 32.807944 48.101663 
L 33.187589 64.072769 
L 33.567233 74.645737 
L 33.946877 102.910275 
L 34.326521 148.402684 
L 34.706166 183.740155 
L 35.08581 186.203631 
L 35.465454 187.867753 
L 35.845098 200.537292 
L 36.224743 214.612385 
L 36.604387 224.653362 
L 36.984031 229.72807 
L 37.363675 230.501294 
L 37.74332 231.609698 
L 38.122964 232.662993 
L 38.502608 233.062507 
L 38.882252 233.208092 
L 39.261897 233.380617 
L 39.641541 233.66289 
L 40.021185 233.944376 
L 40.400829 234.231948 
L 40.780474 234.478005 
L 41.160118 234.559646 
L 41.539762 234.591393 
L 41.919407 234.707944 
L 42.299051 234.77564 
L 42.678695 234.858909 
L 43.058339 234.929664 
L 43.437984 235.039991 
L 43.817628 235.118191 
L 44.197272 235.13897 
L 44.576916 235.140448 
L 44.956561 235.141139 
L 45.336205 235.141587 
L 45.715849 235.142088 
L 46.095493 235.142268 
L 46.475138 235.142397 
L 46.854782 235.142563 
L 47.234426 235.142787 
L 47.61407 235.142963 
" style="fill:none;stroke:#56b4e9;stroke-linecap:square;"/>
   </g>
   <g id="line2d_15">
    <path clip-path="url(#p9344e448a1)" d="M 31.523517 -1 
L 31.669012 1.964176 
L 32.048656 12.503309 
L 32.4283 15.004051 
L 32.807944 19.857111 
L 33.187589 22.845633 
L 33.567233 26.10778 
L 33.946877 30.036091 
L 34.326521 30.261711 
L 34.706166 35.675554 
L 35.08581 38.109551 
L 35.465454 44.440024 
L 35.845098 52.567747 
L 36.224743 58.686892 
L 36.604387 69.865048 
L 36.984031 77.896633 
L 37.363675 88.906017 
L 37.74332 99.292094 
L 38.122964 101.155416 
L 38.502608 110.094903 
L 38.882252 112.509521 
L 39.261897 115.965173 
L 39.641541 122.564698 
L 40.021185 128.367108 
L 40.400829 139.08386 
L 40.780474 143.007946 
L 41.160118 147.208135 
L 41.539762 156.884076 
L 41.919407 163.900202 
L 42.299051 177.99514 
L 42.678695 184.394195 
L 43.058339 187.679453 
L 43.437984 194.093244 
L 43.817628 198.019092 
L 44.197272 201.50695 
L 44.576916 205.086893 
L 44.956561 208.877983 
L 45.336205 211.107038 
L 45.715849 214.003448 
L 46.095493 216.768011 
L 46.475138 218.91222 
L 46.854782 221.381202 
L 47.234426 223.938112 
L 47.61407 225.470656 
L 47.993715 225.738875 
L 48.373359 230.84229 
L 48.753003 231.67369 
L 49.132647 232.348449 
L 49.512292 232.978875 
L 49.891936 233.403396 
L 50.27158 234.081927 
L 50.651224 234.826225 
L 51.030869 235.095268 
L 51.410513 235.173486 
L 51.790157 235.256978 
L 52.169801 235.361667 
L 52.549446 235.45364 
L 52.92909 235.514822 
L 53.308734 235.545952 
L 53.688378 235.561567 
L 54.068023 235.571661 
L 54.447667 235.577913 
L 54.827311 235.580919 
L 55.206955 235.582586 
L 55.5866 235.583542 
L 55.966244 235.58426 
L 56.345888 235.584898 
L 56.725532 235.585428 
L 57.105177 235.586125 
L 57.484821 235.587153 
L 57.864465 235.588461 
L 58.244109 235.589811 
L 58.623754 235.590876 
L 59.003398 235.591885 
L 59.383042 235.593466 
L 59.762686 235.595944 
L 60.142331 235.599051 
L 60.521975 235.601168 
L 60.901619 235.601899 
L 61.281263 235.602216 
L 61.660908 235.602652 
L 62.040552 235.603072 
L 62.420196 235.603277 
L 62.79984 235.603328 
L 63.179485 235.603349 
L 63.559129 235.603375 
L 63.938773 235.603395 
L 64.318417 235.603402 
" style="fill:none;stroke:#d55e00;stroke-linecap:square;"/>
   </g>
   <g id="line2d_16">
    <path clip-path="url(#p9344e448a1)" d="M 30.530079 30.990392 
L 30.909723 32.713157 
L 32.048656 72.671322 
L 32.807944 96.807395 
L 33.187589 103.028921 
L 33.567233 117.975975 
L 33.946877 124.872727 
L 34.326521 128.775529 
L 35.08581 141.855719 
L 35.845098 148.637466 
L 37.74332 164.908237 
L 38.882252 172.361275 
L 39.641541 176.566842 
L 40.021185 177.941439 
L 40.400829 178.41768 
L 40.780474 179.236437 
L 41.160118 182.624482 
L 41.539762 183.418179 
L 42.299051 186.829096 
L 42.678695 187.766482 
L 43.058339 187.88699 
L 43.437984 189.934938 
L 43.817628 193.168062 
L 44.197272 193.312731 
L 44.576916 194.963144 
L 44.956561 195.100889 
L 46.095493 200.555611 
L 46.854782 202.743921 
L 47.234426 203.190277 
L 47.993715 206.534699 
L 49.132647 209.934257 
L 49.891936 210.798099 
L 50.27158 211.927508 
L 50.651224 212.298164 
L 51.030869 212.930377 
L 51.410513 212.998334 
L 52.169801 214.00864 
L 52.92909 215.387772 
L 54.068023 216.652834 
L 54.447667 216.909422 
L 55.206955 218.199352 
L 55.966244 218.87488 
L 56.345888 219.919122 
L 56.725532 220.163176 
L 57.105177 220.601584 
L 57.864465 220.988412 
L 59.383042 223.35348 
L 59.762686 223.486419 
L 60.142331 224.164821 
L 61.281263 225.359657 
L 62.040552 225.900858 
L 63.559129 227.178049 
L 64.698062 228.042091 
L 65.077706 228.483175 
L 65.45735 228.539233 
L 66.975927 229.779245 
L 67.735216 230.087806 
L 70.392725 231.198874 
L 70.77237 231.270564 
L 72.290947 232.02159 
L 77.605966 233.223446 
L 79.504187 233.607005 
L 81.402409 233.761438 
L 86.337784 234.271294 
L 91.273159 234.620374 
L 109.875727 235.005988 
L 135.311892 235.296845 
L 222.63007 235.596012 
L 399.544291 235.603415 
L 399.544291 235.603415 
" style="fill:none;stroke:#0072b2;stroke-linecap:square;"/>
   </g>
   <g id="patch_3">
    <path d="M 30.530079 248.488647 
L 30.530079 20.802655 
" style="fill:none;stroke:#a9a9a9;stroke-linecap:square;stroke-linejoin:miter;stroke-width:0.8;"/>
   </g>
   <g id="patch_4">
    <path d="M 30.530079 248.488647 
L 417.995001 248.488647 
" style="fill:none;stroke:#a9a9a9;stroke-linecap:square;stroke-linejoin:miter;stroke-width:0.8;"/>
   </g>
   <g id="legend_1">
    <g id="patch_5">
     <path d="M 254.129674 70.61419 
L 410.995001 70.61419 
Q 412.995001 70.61419 412.995001 68.61419 
L 412.995001 27.802655 
Q 412.995001 25.802655 410.995001 25.802655 
L 254.129674 25.802655 
Q 252.129674 25.802655 252.129674 27.802655 
L 252.129674 68.61419 
Q 252.129674 70.61419 254.129674 70.61419 
z
" style="fill:#ffffff;opacity:0.8;stroke:#cccccc;stroke-linejoin:miter;"/>
    </g>
    <g id="line2d_17">
     <path d="M 256.129674 33.302655 
L 276.129674 33.302655 
" style="fill:none;stroke:#56b4e9;stroke-linecap:square;"/>
    </g>
    <g id="line2d_18"/>
    <g id="text_11">
     <!-- Autoencoder Preconditioned -->
     <defs>
      <path d="M 36.296875 68.40625 
C 35.796875 69.703125 35.59375 70 34.59375 70 
C 33.59375 70 33.40625 69.703125 32.90625 68.40625 
L 11.703125 8.84375 
C 9.796875 3.484375 5.796875 2.390625 2.296875 2.390625 
L 2.296875 -0.203125 
C 4.09375 0 8.09375 0 10 0 
C 12.5 0 16.5 0 18.90625 -0.203125 
L 18.90625 2.390625 
C 14.203125 2.390625 13.5 5.640625 13.5 6.859375 
C 13.5 7.765625 13.703125 8.28125 13.90625 8.890625 
L 19.203125 24 
L 45.40625 24 
L 51.40625 6.90625 
C 51.90625 5.703125 51.90625 5.5 51.90625 5.109375 
C 51.90625 2.390625 47.59375 2.390625 45.703125 2.390625 
L 45.703125 0 
C 48.59375 0 53.796875 0 56.90625 0 
C 59.5 0 64.5 0 66.90625 -0.203125 
L 66.90625 2.390625 
C 61.59375 2.390625 59.796875 2.390625 58.5 6.046875 
z
M 32.296875 60.828125 
L 44.5 26.59375 
L 20.09375 26.59375 
z
" id="CMR17-65"/>
      <path d="M 29.40625 42.078125 
L 29.40625 39.5 
C 35.296875 39.5 36.203125 38.890625 36.203125 34.15625 
L 36.203125 16.125 
C 36.203125 7.8125 31.703125 0.59375 24.296875 0.59375 
C 16.09375 0.59375 15.40625 5.4375 15.40625 10.59375 
L 15.40625 43.171875 
L 3.296875 42.078125 
L 3.296875 39.5 
C 7.296875 39.5 10 39.5 10.09375 35.53125 
L 10.09375 16.53125 
C 10.09375 9.890625 10.09375 5.640625 12.703125 2.859375 
C 14 1.578125 16.5 -1 23.703125 -1 
C 32.203125 -1 35.5 5.890625 36.296875 7.90625 
L 36.40625 7.90625 
L 36.40625 -0.984375 
L 48.296875 -0.984375 
L 48.296875 2 
C 42.40625 2 41.5 2.59375 41.5 7.390625 
L 41.5 43.171875 
z
" id="CMR17-117"/>
      <path d="M 34.90625 35 
C 33 35 30.203125 35 30.203125 31.515625 
C 30.203125 28.71875 32.5 27.921875 33.796875 27.921875 
C 34.5 27.921875 37.40625 28.234375 37.40625 31.625 
C 37.40625 38.546875 30.59375 43.796875 22.90625 43.796875 
C 12.296875 43.796875 3.296875 34.03125 3.296875 21.296875 
C 3.296875 8.0625 12.703125 -1 22.90625 -1 
C 35.296875 -1 38.40625 10.578125 38.40625 11.6875 
C 38.40625 12.09375 38.296875 12.390625 37.59375 12.390625 
C 36.90625 12.390625 36.796875 12.296875 36.40625 10.984375 
C 33.796875 2.8125 28.09375 0.796875 23.796875 0.796875 
C 17.40625 0.796875 9.703125 6.671875 9.703125 21.390625 
C 9.703125 36.53125 17.09375 42 23 42 
C 26.90625 42 32.703125 40.203125 34.90625 35 
z
" id="CMR17-99"/>
      <path d="M 29.203125 67.59375 
L 29.203125 65 
C 35.09375 65 36 64.40625 36 59.6875 
L 36 36.640625 
C 35.59375 37.140625 31.5 43.59375 23.40625 43.59375 
C 13.203125 43.59375 3.296875 34.5 3.296875 21.3125 
C 3.296875 8.203125 12.59375 -1 22.40625 -1 
C 30.90625 -1 35.296875 5.265625 35.796875 5.9375 
L 35.796875 -0.984375 
L 47.90625 -0.984375 
L 47.90625 2 
C 42 2 41.09375 2.59375 41.09375 7.390625 
L 41.09375 68.6875 
z
M 35.796875 11.796875 
C 35.796875 8.796875 34 6.09375 31.703125 4.09375 
C 28.296875 1.09375 24.90625 0.59375 23 0.59375 
C 20.09375 0.59375 9.703125 2.09375 9.703125 21.1875 
C 9.703125 40.8125 21.296875 42 23.90625 42 
C 28.5 42 32.203125 39.40625 34.5 35.796875 
C 35.796875 33.703125 35.796875 33.40625 35.796875 31.609375 
z
" id="CMR17-100"/>
      <path d="M 19.796875 31.90625 
L 35.796875 31.90625 
C 48.703125 31.90625 58.09375 40.28125 58.09375 49.75 
C 58.09375 59.234375 48.90625 68 35.796875 68 
L 5.203125 68 
L 5.203125 65.40625 
C 12.09375 65.40625 13.203125 65.40625 13.203125 60.921875 
L 13.203125 6.96875 
C 13.203125 2.5 12.09375 2.5 5.203125 2.5 
L 5.203125 0 
C 8.09375 0 13.40625 0 16.5 0 
C 19.59375 0 24.90625 0 27.796875 0 
L 27.796875 2.5 
C 20.90625 2.5 19.796875 2.5 19.796875 6.96875 
z
M 19.59375 34 
L 19.59375 61.53125 
C 19.59375 64.921875 19.796875 65.40625 23.796875 65.40625 
L 33.90625 65.40625 
C 46.796875 65.40625 50.5 58.03125 50.5 49.75 
C 50.5 40.6875 46.09375 34 33.90625 34 
z
" id="CMR17-80"/>
     </defs>
     <g transform="translate(284.129674 36.802655)scale(0.1 -0.1)">
      <use transform="scale(0.996264)" xlink:href="#CMR17-65"/>
      <use transform="translate(69.07243 0)scale(0.996264)" xlink:href="#CMR17-117"/>
      <use transform="translate(119.9678 0)scale(0.996264)" xlink:href="#CMR17-116"/>
      <use transform="translate(155.248567 0)scale(0.996264)" xlink:href="#CMR17-111"/>
      <use transform="translate(203.541483 0)scale(0.996264)" xlink:href="#CMR17-101"/>
      <use transform="translate(244.027144 0)scale(0.996264)" xlink:href="#CMR17-110"/>
      <use transform="translate(294.922513 0)scale(0.996264)" xlink:href="#CMR17-99"/>
      <use transform="translate(335.408174 0)scale(0.996264)" xlink:href="#CMR17-111"/>
      <use transform="translate(383.70109 0)scale(0.996264)" xlink:href="#CMR17-100"/>
      <use transform="translate(434.59646 0)scale(0.996264)" xlink:href="#CMR17-101"/>
      <use transform="translate(475.08212 0)scale(0.996264)" xlink:href="#CMR17-114"/>
      <use transform="translate(540.438854 0)scale(0.996264)" xlink:href="#CMR17-80"/>
      <use transform="translate(603.025155 0)scale(0.996264)" xlink:href="#CMR17-114"/>
      <use transform="translate(638.305922 0)scale(0.996264)" xlink:href="#CMR17-101"/>
      <use transform="translate(678.791583 0)scale(0.996264)" xlink:href="#CMR17-99"/>
      <use transform="translate(719.277243 0)scale(0.996264)" xlink:href="#CMR17-111"/>
      <use transform="translate(764.967721 0)scale(0.996264)" xlink:href="#CMR17-110"/>
      <use transform="translate(815.86309 0)scale(0.996264)" xlink:href="#CMR17-100"/>
      <use transform="translate(866.75846 0)scale(0.996264)" xlink:href="#CMR17-105"/>
      <use transform="translate(891.629519 0)scale(0.996264)" xlink:href="#CMR17-116"/>
      <use transform="translate(926.910286 0)scale(0.996264)" xlink:href="#CMR17-105"/>
      <use transform="translate(951.781345 0)scale(0.996264)" xlink:href="#CMR17-111"/>
      <use transform="translate(997.471822 0)scale(0.996264)" xlink:href="#CMR17-110"/>
      <use transform="translate(1048.367192 0)scale(0.996264)" xlink:href="#CMR17-101"/>
      <use transform="translate(1088.852852 0)scale(0.996264)" xlink:href="#CMR17-100"/>
     </g>
    </g>
    <g id="line2d_19">
     <path d="M 256.129674 47.239834 
L 276.129674 47.239834 
" style="fill:none;stroke:#d55e00;stroke-linecap:square;"/>
    </g>
    <g id="line2d_20"/>
    <g id="text_12">
     <!-- Linear Space Preconditioned -->
     <defs>
      <path d="M 54.203125 25.234375 
L 52.40625 25.234375 
C 51.59375 15.359375 50.296875 2.59375 33.203125 2.59375 
L 23.90625 2.59375 
C 19.90625 2.59375 19.703125 3.078125 19.703125 6.46875 
L 19.703125 60.90625 
C 19.703125 64.515625 19.90625 65.5 27.5 65.5 
L 29.703125 65.5 
L 29.703125 68 
C 25.59375 68 20.796875 68 16.703125 68 
C 13.59375 68 8 68 5.09375 68 
L 5.09375 65.5 
C 12 65.5 13.09375 65.5 13.09375 61.015625 
L 13.09375 7.0625 
C 13.09375 2.59375 12 2.59375 5.09375 2.59375 
L 5.09375 0 
L 51.796875 0 
z
" id="CMR17-76"/>
      <path d="M 43.796875 67.03125 
C 43.796875 68.8125 43.703125 68.921875 43.09375 68.921875 
C 42.5 68.921875 42.296875 68.515625 41.90625 67.625 
L 38.90625 61.046875 
C 35.09375 66.515625 29.296875 69 23 69 
C 12.796875 69 4.59375 60.953125 4.59375 50.828125 
C 4.59375 47.75 5.296875 43.375 8.703125 39.21875 
C 12.40625 34.65625 15.90625 33.859375 23.90625 31.765625 
C 26.90625 30.96875 31.90625 29.671875 32.90625 29.28125 
C 38.59375 26.90625 41.59375 20.953125 41.59375 15.390625 
C 41.59375 8.234375 36.5 0.59375 27.796875 0.59375 
C 17.09375 0.59375 7.09375 6.546875 6.40625 20.484375 
C 6.296875 22.078125 6.203125 22.171875 5.5 22.171875 
C 4.703125 22.171875 4.59375 22.078125 4.59375 20.078125 
L 4.59375 -0.015625 
C 4.59375 -1.796875 4.703125 -1.90625 5.296875 -1.90625 
C 6 -1.90625 6.203125 -1.40625 7.59375 1.6875 
C 7.703125 1.984375 7.703125 2.1875 9.59375 5.953125 
C 14.59375 -0.609375 23 -2 27.796875 -2 
C 38.703125 -2 46.40625 7.046875 46.40625 17.5625 
C 46.40625 22.71875 44.5 26.6875 43.40625 28.484375 
C 39.203125 34.84375 34.703125 36.03125 29.90625 37.21875 
C 29.203125 37.53125 29 37.53125 23.40625 38.90625 
C 18 40.296875 15.703125 41 13.203125 43.6875 
C 10.40625 46.75 9.40625 49.9375 9.40625 53.109375 
C 9.40625 59.5625 14.59375 66.609375 23.09375 66.609375 
C 33.703125 66.609375 40.296875 59.15625 41.796875 46.765625 
C 42.09375 44.96875 42.203125 44.875 42.90625 44.875 
C 43.796875 44.875 43.796875 45.171875 43.796875 46.859375 
z
" id="CMR17-83"/>
      <path d="M 22 -16.609375 
C 15.59375 -16.609375 15.203125 -16.203125 15.203125 -12.328125 
L 15.203125 6.28125 
C 18.09375 2.09375 22.296875 -0.59375 27.59375 -0.59375 
C 37.59375 -0.59375 47.703125 8.171875 47.703125 21.6875 
C 47.703125 34.234375 39 43.78125 28.703125 43.78125 
C 22.703125 43.78125 17.796875 40.5 15 36.53125 
L 15 43.78125 
L 3.09375 42.6875 
L 3.09375 40.109375 
C 9 40.109375 9.90625 39.5 9.90625 34.734375 
L 9.90625 -12.328125 
C 9.90625 -16.109375 9.5 -16.609375 3.09375 -16.609375 
L 3.09375 -19.1875 
C 5.5 -19 9.90625 -19 12.5 -19 
C 15.09375 -19 19.59375 -19 22 -19.1875 
z
M 15.203125 31.4375 
C 15.203125 32.84375 15.203125 34.921875 19.09375 38.609375 
C 19.59375 39.015625 23 42 28 42 
C 35.296875 42 41.296875 32.9375 41.296875 21.59375 
C 41.296875 10.25 34.90625 1 27 1 
C 23.40625 1 19.5 2.6875 16.5 7.375 
C 15.203125 9.5625 15.203125 10.15625 15.203125 11.75 
z
" id="CMR17-112"/>
     </defs>
     <g transform="translate(284.129674 50.739834)scale(0.1 -0.1)">
      <use transform="scale(0.996264)" xlink:href="#CMR17-76"/>
      <use transform="translate(57.381408 0)scale(0.996264)" xlink:href="#CMR17-105"/>
      <use transform="translate(82.252466 0)scale(0.996264)" xlink:href="#CMR17-110"/>
      <use transform="translate(133.147836 0)scale(0.996264)" xlink:href="#CMR17-101"/>
      <use transform="translate(173.633497 0)scale(0.996264)" xlink:href="#CMR17-97"/>
      <use transform="translate(219.323974 0)scale(0.996264)" xlink:href="#CMR17-114"/>
      <use transform="translate(284.680708 0)scale(0.996264)" xlink:href="#CMR17-83"/>
      <use transform="translate(335.576078 0)scale(0.996264)" xlink:href="#CMR17-112"/>
      <use transform="translate(386.471447 0)scale(0.996264)" xlink:href="#CMR17-97"/>
      <use transform="translate(432.161925 0)scale(0.996264)" xlink:href="#CMR17-99"/>
      <use transform="translate(472.647585 0)scale(0.996264)" xlink:href="#CMR17-101"/>
      <use transform="translate(543.209212 0)scale(0.996264)" xlink:href="#CMR17-80"/>
      <use transform="translate(605.795512 0)scale(0.996264)" xlink:href="#CMR17-114"/>
      <use transform="translate(641.07628 0)scale(0.996264)" xlink:href="#CMR17-101"/>
      <use transform="translate(681.561941 0)scale(0.996264)" xlink:href="#CMR17-99"/>
      <use transform="translate(722.047601 0)scale(0.996264)" xlink:href="#CMR17-111"/>
      <use transform="translate(767.738078 0)scale(0.996264)" xlink:href="#CMR17-110"/>
      <use transform="translate(818.633448 0)scale(0.996264)" xlink:href="#CMR17-100"/>
      <use transform="translate(869.528818 0)scale(0.996264)" xlink:href="#CMR17-105"/>
      <use transform="translate(894.399876 0)scale(0.996264)" xlink:href="#CMR17-116"/>
      <use transform="translate(929.680644 0)scale(0.996264)" xlink:href="#CMR17-105"/>
      <use transform="translate(954.551702 0)scale(0.996264)" xlink:href="#CMR17-111"/>
      <use transform="translate(1000.24218 0)scale(0.996264)" xlink:href="#CMR17-110"/>
      <use transform="translate(1051.137549 0)scale(0.996264)" xlink:href="#CMR17-101"/>
      <use transform="translate(1091.62321 0)scale(0.996264)" xlink:href="#CMR17-100"/>
     </g>
    </g>
    <g id="line2d_21">
     <path d="M 256.129674 61.177012 
L 276.129674 61.177012 
" style="fill:none;stroke:#0072b2;stroke-linecap:square;"/>
    </g>
    <g id="line2d_22"/>
    <g id="text_13">
     <!-- Full Space Preconditioned -->
     <defs>
      <path d="M 54.40625 67.578125 
L 5.09375 67.578125 
L 5.09375 65 
C 12 65 13.09375 65 13.09375 60.53125 
L 13.09375 6.96875 
C 13.09375 2.5 12 2.5 5.09375 2.5 
L 5.09375 0 
C 8 0 13.59375 0 16.703125 0 
C 20.796875 0 25.59375 0 29.703125 0 
L 29.703125 2.5 
L 27.5 2.5 
C 19.90625 2.5 19.703125 3.484375 19.703125 7.0625 
L 19.703125 32.421875 
L 28.703125 32.421875 
C 38 32.421875 38.90625 29.140625 38.90625 20.8125 
L 40.703125 20.8125 
L 40.703125 46.671875 
L 38.90625 46.671875 
C 38.90625 38.28125 38 35 28.703125 35 
L 19.703125 35 
L 19.703125 61.109375 
C 19.703125 64.5 19.90625 65 23.90625 65 
L 36.796875 65 
C 51.90625 65 53.59375 58.828125 55 45.5625 
L 56.796875 45.5625 
z
" id="CMR17-70"/>
      <path d="M 15.296875 68.6875 
L 3.40625 67.59375 
L 3.40625 65 
C 9.296875 65 10.203125 64.40625 10.203125 59.640625 
L 10.203125 6.65625 
C 10.203125 2.875 9.796875 2.390625 3.40625 2.390625 
L 3.40625 -0.203125 
C 5.796875 0 10.203125 0 12.703125 0 
C 15.296875 0 19.703125 0 22.09375 -0.203125 
L 22.09375 2.390625 
C 15.703125 2.390625 15.296875 2.78125 15.296875 6.65625 
z
" id="CMR17-108"/>
     </defs>
     <g transform="translate(284.129674 64.677012)scale(0.1 -0.1)">
      <use transform="scale(0.996264)" xlink:href="#CMR17-70"/>
      <use transform="translate(52.176591 0)scale(0.996264)" xlink:href="#CMR17-117"/>
      <use transform="translate(103.071961 0)scale(0.996264)" xlink:href="#CMR17-108"/>
      <use transform="translate(127.943019 0)scale(0.996264)" xlink:href="#CMR17-108"/>
      <use transform="translate(182.890044 0)scale(0.996264)" xlink:href="#CMR17-83"/>
      <use transform="translate(233.785414 0)scale(0.996264)" xlink:href="#CMR17-112"/>
      <use transform="translate(284.680784 0)scale(0.996264)" xlink:href="#CMR17-97"/>
      <use transform="translate(330.371261 0)scale(0.996264)" xlink:href="#CMR17-99"/>
      <use transform="translate(370.856921 0)scale(0.996264)" xlink:href="#CMR17-101"/>
      <use transform="translate(441.418548 0)scale(0.996264)" xlink:href="#CMR17-80"/>
      <use transform="translate(504.004849 0)scale(0.996264)" xlink:href="#CMR17-114"/>
      <use transform="translate(539.285617 0)scale(0.996264)" xlink:href="#CMR17-101"/>
      <use transform="translate(579.771277 0)scale(0.996264)" xlink:href="#CMR17-99"/>
      <use transform="translate(620.256937 0)scale(0.996264)" xlink:href="#CMR17-111"/>
      <use transform="translate(665.947415 0)scale(0.996264)" xlink:href="#CMR17-110"/>
      <use transform="translate(716.842784 0)scale(0.996264)" xlink:href="#CMR17-100"/>
      <use transform="translate(767.738154 0)scale(0.996264)" xlink:href="#CMR17-105"/>
      <use transform="translate(792.609213 0)scale(0.996264)" xlink:href="#CMR17-116"/>
      <use transform="translate(827.88998 0)scale(0.996264)" xlink:href="#CMR17-105"/>
      <use transform="translate(852.761039 0)scale(0.996264)" xlink:href="#CMR17-111"/>
      <use transform="translate(898.451516 0)scale(0.996264)" xlink:href="#CMR17-110"/>
      <use transform="translate(949.346886 0)scale(0.996264)" xlink:href="#CMR17-101"/>
      <use transform="translate(989.832546 0)scale(0.996264)" xlink:href="#CMR17-100"/>
     </g>
    </g>
   </g>
  </g>
 </g>
 <defs>
  <clipPath id="p9344e448a1">
   <rect height="227.685991" width="387.464922" x="30.530079" y="20.802655"/>
  </clipPath>
 </defs>
</svg>
