<?xml version="1.0" encoding="utf-8" standalone="no"?>
<!DOCTYPE svg PUBLIC "-//W3C//DTD SVG 1.1//EN"
  "http://www.w3.org/Graphics/SVG/1.1/DTD/svg11.dtd">
<!-- Created with matplotlib (http://matplotlib.org/) -->
<svg height="345pt" version="1.1" viewBox="0 0 460 345" width="460pt" xmlns="http://www.w3.org/2000/svg" xmlns:xlink="http://www.w3.org/1999/xlink">
 <defs>
  <style type="text/css">
*{stroke-linecap:butt;stroke-linejoin:round;}
  </style>
 </defs>
 <g id="figure_1">
  <g id="patch_1">
   <path d="M 0 345.6 
L 460.8 345.6 
L 460.8 0 
L 0 0 
z
" style="fill:#ffffff;"/>
  </g>
  <g id="axes_1">
   <g id="patch_2">
    <path d="M 57.6 307.584 
L 414.72 307.584 
L 414.72 41.472 
L 57.6 41.472 
z
" style="fill:#ffffff;"/>
   </g>
   <g id="matplotlib.axis_1">
    <g id="xtick_1">
     <g id="line2d_1">
      <defs>
       <path d="M 0 0 
L 0 3.5 
" id="mf0dfa4cad6" style="stroke:#000000;stroke-width:0.8;"/>
      </defs>
      <g>
       <use style="stroke:#000000;stroke-width:0.8;" x="73.832727" xlink:href="#mf0dfa4cad6" y="307.584"/>
      </g>
     </g>
     <g id="text_1">
      <!-- 0 -->
      <defs>
       <path d="M 31.78125 66.40625 
Q 24.171875 66.40625 20.328125 58.90625 
Q 16.5 51.421875 16.5 36.375 
Q 16.5 21.390625 20.328125 13.890625 
Q 24.171875 6.390625 31.78125 6.390625 
Q 39.453125 6.390625 43.28125 13.890625 
Q 47.125 21.390625 47.125 36.375 
Q 47.125 51.421875 43.28125 58.90625 
Q 39.453125 66.40625 31.78125 66.40625 
z
M 31.78125 74.21875 
Q 44.046875 74.21875 50.515625 64.515625 
Q 56.984375 54.828125 56.984375 36.375 
Q 56.984375 17.96875 50.515625 8.265625 
Q 44.046875 -1.421875 31.78125 -1.421875 
Q 19.53125 -1.421875 13.0625 8.265625 
Q 6.59375 17.96875 6.59375 36.375 
Q 6.59375 54.828125 13.0625 64.515625 
Q 19.53125 74.21875 31.78125 74.21875 
z
" id="DejaVuSans-30"/>
      </defs>
      <g transform="translate(70.651477 322.182437)scale(0.1 -0.1)">
       <use xlink:href="#DejaVuSans-30"/>
      </g>
     </g>
    </g>
    <g id="xtick_2">
     <g id="line2d_2">
      <g>
       <use style="stroke:#000000;stroke-width:0.8;" x="114.434847" xlink:href="#mf0dfa4cad6" y="307.584"/>
      </g>
     </g>
     <g id="text_2">
      <!-- 250 -->
      <defs>
       <path d="M 19.1875 8.296875 
L 53.609375 8.296875 
L 53.609375 0 
L 7.328125 0 
L 7.328125 8.296875 
Q 12.9375 14.109375 22.625 23.890625 
Q 32.328125 33.6875 34.8125 36.53125 
Q 39.546875 41.84375 41.421875 45.53125 
Q 43.3125 49.21875 43.3125 52.78125 
Q 43.3125 58.59375 39.234375 62.25 
Q 35.15625 65.921875 28.609375 65.921875 
Q 23.96875 65.921875 18.8125 64.3125 
Q 13.671875 62.703125 7.8125 59.421875 
L 7.8125 69.390625 
Q 13.765625 71.78125 18.9375 73 
Q 24.125 74.21875 28.421875 74.21875 
Q 39.75 74.21875 46.484375 68.546875 
Q 53.21875 62.890625 53.21875 53.421875 
Q 53.21875 48.921875 51.53125 44.890625 
Q 49.859375 40.875 45.40625 35.40625 
Q 44.1875 33.984375 37.640625 27.21875 
Q 31.109375 20.453125 19.1875 8.296875 
z
" id="DejaVuSans-32"/>
       <path d="M 10.796875 72.90625 
L 49.515625 72.90625 
L 49.515625 64.59375 
L 19.828125 64.59375 
L 19.828125 46.734375 
Q 21.96875 47.46875 24.109375 47.828125 
Q 26.265625 48.1875 28.421875 48.1875 
Q 40.625 48.1875 47.75 41.5 
Q 54.890625 34.8125 54.890625 23.390625 
Q 54.890625 11.625 47.5625 5.09375 
Q 40.234375 -1.421875 26.90625 -1.421875 
Q 22.3125 -1.421875 17.546875 -0.640625 
Q 12.796875 0.140625 7.71875 1.703125 
L 7.71875 11.625 
Q 12.109375 9.234375 16.796875 8.0625 
Q 21.484375 6.890625 26.703125 6.890625 
Q 35.15625 6.890625 40.078125 11.328125 
Q 45.015625 15.765625 45.015625 23.390625 
Q 45.015625 31 40.078125 35.4375 
Q 35.15625 39.890625 26.703125 39.890625 
Q 22.75 39.890625 18.8125 39.015625 
Q 14.890625 38.140625 10.796875 36.28125 
z
" id="DejaVuSans-35"/>
      </defs>
      <g transform="translate(104.891097 322.182437)scale(0.1 -0.1)">
       <use xlink:href="#DejaVuSans-32"/>
       <use x="63.623047" xlink:href="#DejaVuSans-35"/>
       <use x="127.246094" xlink:href="#DejaVuSans-30"/>
      </g>
     </g>
    </g>
    <g id="xtick_3">
     <g id="line2d_3">
      <g>
       <use style="stroke:#000000;stroke-width:0.8;" x="155.036966" xlink:href="#mf0dfa4cad6" y="307.584"/>
      </g>
     </g>
     <g id="text_3">
      <!-- 500 -->
      <g transform="translate(145.493216 322.182437)scale(0.1 -0.1)">
       <use xlink:href="#DejaVuSans-35"/>
       <use x="63.623047" xlink:href="#DejaVuSans-30"/>
       <use x="127.246094" xlink:href="#DejaVuSans-30"/>
      </g>
     </g>
    </g>
    <g id="xtick_4">
     <g id="line2d_4">
      <g>
       <use style="stroke:#000000;stroke-width:0.8;" x="195.639085" xlink:href="#mf0dfa4cad6" y="307.584"/>
      </g>
     </g>
     <g id="text_4">
      <!-- 750 -->
      <defs>
       <path d="M 8.203125 72.90625 
L 55.078125 72.90625 
L 55.078125 68.703125 
L 28.609375 0 
L 18.3125 0 
L 43.21875 64.59375 
L 8.203125 64.59375 
z
" id="DejaVuSans-37"/>
      </defs>
      <g transform="translate(186.095335 322.182437)scale(0.1 -0.1)">
       <use xlink:href="#DejaVuSans-37"/>
       <use x="63.623047" xlink:href="#DejaVuSans-35"/>
       <use x="127.246094" xlink:href="#DejaVuSans-30"/>
      </g>
     </g>
    </g>
    <g id="xtick_5">
     <g id="line2d_5">
      <g>
       <use style="stroke:#000000;stroke-width:0.8;" x="236.241204" xlink:href="#mf0dfa4cad6" y="307.584"/>
      </g>
     </g>
     <g id="text_5">
      <!-- 1000 -->
      <defs>
       <path d="M 12.40625 8.296875 
L 28.515625 8.296875 
L 28.515625 63.921875 
L 10.984375 60.40625 
L 10.984375 69.390625 
L 28.421875 72.90625 
L 38.28125 72.90625 
L 38.28125 8.296875 
L 54.390625 8.296875 
L 54.390625 0 
L 12.40625 0 
z
" id="DejaVuSans-31"/>
      </defs>
      <g transform="translate(223.516204 322.182437)scale(0.1 -0.1)">
       <use xlink:href="#DejaVuSans-31"/>
       <use x="63.623047" xlink:href="#DejaVuSans-30"/>
       <use x="127.246094" xlink:href="#DejaVuSans-30"/>
       <use x="190.869141" xlink:href="#DejaVuSans-30"/>
      </g>
     </g>
    </g>
    <g id="xtick_6">
     <g id="line2d_6">
      <g>
       <use style="stroke:#000000;stroke-width:0.8;" x="276.843323" xlink:href="#mf0dfa4cad6" y="307.584"/>
      </g>
     </g>
     <g id="text_6">
      <!-- 1250 -->
      <g transform="translate(264.118323 322.182437)scale(0.1 -0.1)">
       <use xlink:href="#DejaVuSans-31"/>
       <use x="63.623047" xlink:href="#DejaVuSans-32"/>
       <use x="127.246094" xlink:href="#DejaVuSans-35"/>
       <use x="190.869141" xlink:href="#DejaVuSans-30"/>
      </g>
     </g>
    </g>
    <g id="xtick_7">
     <g id="line2d_7">
      <g>
       <use style="stroke:#000000;stroke-width:0.8;" x="317.445443" xlink:href="#mf0dfa4cad6" y="307.584"/>
      </g>
     </g>
     <g id="text_7">
      <!-- 1500 -->
      <g transform="translate(304.720443 322.182437)scale(0.1 -0.1)">
       <use xlink:href="#DejaVuSans-31"/>
       <use x="63.623047" xlink:href="#DejaVuSans-35"/>
       <use x="127.246094" xlink:href="#DejaVuSans-30"/>
       <use x="190.869141" xlink:href="#DejaVuSans-30"/>
      </g>
     </g>
    </g>
    <g id="xtick_8">
     <g id="line2d_8">
      <g>
       <use style="stroke:#000000;stroke-width:0.8;" x="358.047562" xlink:href="#mf0dfa4cad6" y="307.584"/>
      </g>
     </g>
     <g id="text_8">
      <!-- 1750 -->
      <g transform="translate(345.322562 322.182437)scale(0.1 -0.1)">
       <use xlink:href="#DejaVuSans-31"/>
       <use x="63.623047" xlink:href="#DejaVuSans-37"/>
       <use x="127.246094" xlink:href="#DejaVuSans-35"/>
       <use x="190.869141" xlink:href="#DejaVuSans-30"/>
      </g>
     </g>
    </g>
    <g id="xtick_9">
     <g id="line2d_9">
      <g>
       <use style="stroke:#000000;stroke-width:0.8;" x="398.649681" xlink:href="#mf0dfa4cad6" y="307.584"/>
      </g>
     </g>
     <g id="text_9">
      <!-- 2000 -->
      <g transform="translate(385.924681 322.182437)scale(0.1 -0.1)">
       <use xlink:href="#DejaVuSans-32"/>
       <use x="63.623047" xlink:href="#DejaVuSans-30"/>
       <use x="127.246094" xlink:href="#DejaVuSans-30"/>
       <use x="190.869141" xlink:href="#DejaVuSans-30"/>
      </g>
     </g>
    </g>
    <g id="text_10">
     <!-- Epoch -->
     <defs>
      <path d="M 9.8125 72.90625 
L 55.90625 72.90625 
L 55.90625 64.59375 
L 19.671875 64.59375 
L 19.671875 43.015625 
L 54.390625 43.015625 
L 54.390625 34.71875 
L 19.671875 34.71875 
L 19.671875 8.296875 
L 56.78125 8.296875 
L 56.78125 0 
L 9.8125 0 
z
" id="DejaVuSans-45"/>
      <path d="M 18.109375 8.203125 
L 18.109375 -20.796875 
L 9.078125 -20.796875 
L 9.078125 54.6875 
L 18.109375 54.6875 
L 18.109375 46.390625 
Q 20.953125 51.265625 25.265625 53.625 
Q 29.59375 56 35.59375 56 
Q 45.5625 56 51.78125 48.09375 
Q 58.015625 40.1875 58.015625 27.296875 
Q 58.015625 14.40625 51.78125 6.484375 
Q 45.5625 -1.421875 35.59375 -1.421875 
Q 29.59375 -1.421875 25.265625 0.953125 
Q 20.953125 3.328125 18.109375 8.203125 
z
M 48.6875 27.296875 
Q 48.6875 37.203125 44.609375 42.84375 
Q 40.53125 48.484375 33.40625 48.484375 
Q 26.265625 48.484375 22.1875 42.84375 
Q 18.109375 37.203125 18.109375 27.296875 
Q 18.109375 17.390625 22.1875 11.75 
Q 26.265625 6.109375 33.40625 6.109375 
Q 40.53125 6.109375 44.609375 11.75 
Q 48.6875 17.390625 48.6875 27.296875 
z
" id="DejaVuSans-70"/>
      <path d="M 30.609375 48.390625 
Q 23.390625 48.390625 19.1875 42.75 
Q 14.984375 37.109375 14.984375 27.296875 
Q 14.984375 17.484375 19.15625 11.84375 
Q 23.34375 6.203125 30.609375 6.203125 
Q 37.796875 6.203125 41.984375 11.859375 
Q 46.1875 17.53125 46.1875 27.296875 
Q 46.1875 37.015625 41.984375 42.703125 
Q 37.796875 48.390625 30.609375 48.390625 
z
M 30.609375 56 
Q 42.328125 56 49.015625 48.375 
Q 55.71875 40.765625 55.71875 27.296875 
Q 55.71875 13.875 49.015625 6.21875 
Q 42.328125 -1.421875 30.609375 -1.421875 
Q 18.84375 -1.421875 12.171875 6.21875 
Q 5.515625 13.875 5.515625 27.296875 
Q 5.515625 40.765625 12.171875 48.375 
Q 18.84375 56 30.609375 56 
z
" id="DejaVuSans-6f"/>
      <path d="M 48.78125 52.59375 
L 48.78125 44.1875 
Q 44.96875 46.296875 41.140625 47.34375 
Q 37.3125 48.390625 33.40625 48.390625 
Q 24.65625 48.390625 19.8125 42.84375 
Q 14.984375 37.3125 14.984375 27.296875 
Q 14.984375 17.28125 19.8125 11.734375 
Q 24.65625 6.203125 33.40625 6.203125 
Q 37.3125 6.203125 41.140625 7.25 
Q 44.96875 8.296875 48.78125 10.40625 
L 48.78125 2.09375 
Q 45.015625 0.34375 40.984375 -0.53125 
Q 36.96875 -1.421875 32.421875 -1.421875 
Q 20.0625 -1.421875 12.78125 6.34375 
Q 5.515625 14.109375 5.515625 27.296875 
Q 5.515625 40.671875 12.859375 48.328125 
Q 20.21875 56 33.015625 56 
Q 37.15625 56 41.109375 55.140625 
Q 45.0625 54.296875 48.78125 52.59375 
z
" id="DejaVuSans-63"/>
      <path d="M 54.890625 33.015625 
L 54.890625 0 
L 45.90625 0 
L 45.90625 32.71875 
Q 45.90625 40.484375 42.875 44.328125 
Q 39.84375 48.1875 33.796875 48.1875 
Q 26.515625 48.1875 22.3125 43.546875 
Q 18.109375 38.921875 18.109375 30.90625 
L 18.109375 0 
L 9.078125 0 
L 9.078125 75.984375 
L 18.109375 75.984375 
L 18.109375 46.1875 
Q 21.34375 51.125 25.703125 53.5625 
Q 30.078125 56 35.796875 56 
Q 45.21875 56 50.046875 50.171875 
Q 54.890625 44.34375 54.890625 33.015625 
z
" id="DejaVuSans-68"/>
     </defs>
     <g transform="translate(220.849063 335.860562)scale(0.1 -0.1)">
      <use xlink:href="#DejaVuSans-45"/>
      <use x="63.183594" xlink:href="#DejaVuSans-70"/>
      <use x="126.660156" xlink:href="#DejaVuSans-6f"/>
      <use x="187.841797" xlink:href="#DejaVuSans-63"/>
      <use x="242.822266" xlink:href="#DejaVuSans-68"/>
     </g>
    </g>
   </g>
   <g id="matplotlib.axis_2">
    <g id="ytick_1">
     <g id="line2d_10">
      <defs>
       <path d="M 0 0 
L -3.5 0 
" id="mb97097e385" style="stroke:#000000;stroke-width:0.8;"/>
      </defs>
      <g>
       <use style="stroke:#000000;stroke-width:0.8;" x="57.6" xlink:href="#mb97097e385" y="261.68418"/>
      </g>
     </g>
     <g id="text_11">
      <!-- $\mathdefault{10^{-2}}$ -->
      <defs>
       <path d="M 10.59375 35.5 
L 73.1875 35.5 
L 73.1875 27.203125 
L 10.59375 27.203125 
z
" id="DejaVuSans-2212"/>
      </defs>
      <g transform="translate(27.1 265.483399)scale(0.1 -0.1)">
       <use transform="translate(0 0.765625)" xlink:href="#DejaVuSans-31"/>
       <use transform="translate(63.623047 0.765625)" xlink:href="#DejaVuSans-30"/>
       <use transform="translate(128.203125 39.046875)scale(0.7)" xlink:href="#DejaVuSans-2212"/>
       <use transform="translate(186.855469 39.046875)scale(0.7)" xlink:href="#DejaVuSans-32"/>
      </g>
     </g>
    </g>
    <g id="ytick_2">
     <g id="line2d_11">
      <g>
       <use style="stroke:#000000;stroke-width:0.8;" x="57.6" xlink:href="#mb97097e385" y="193.58029"/>
      </g>
     </g>
     <g id="text_12">
      <!-- $\mathdefault{10^{-1}}$ -->
      <g transform="translate(27.1 197.379508)scale(0.1 -0.1)">
       <use transform="translate(0 0.684375)" xlink:href="#DejaVuSans-31"/>
       <use transform="translate(63.623047 0.684375)" xlink:href="#DejaVuSans-30"/>
       <use transform="translate(128.203125 38.965625)scale(0.7)" xlink:href="#DejaVuSans-2212"/>
       <use transform="translate(186.855469 38.965625)scale(0.7)" xlink:href="#DejaVuSans-31"/>
      </g>
     </g>
    </g>
    <g id="ytick_3">
     <g id="line2d_12">
      <g>
       <use style="stroke:#000000;stroke-width:0.8;" x="57.6" xlink:href="#mb97097e385" y="125.476399"/>
      </g>
     </g>
     <g id="text_13">
      <!-- $\mathdefault{10^{0}}$ -->
      <g transform="translate(33 129.275618)scale(0.1 -0.1)">
       <use transform="translate(0 0.765625)" xlink:href="#DejaVuSans-31"/>
       <use transform="translate(63.623047 0.765625)" xlink:href="#DejaVuSans-30"/>
       <use transform="translate(128.203125 39.046875)scale(0.7)" xlink:href="#DejaVuSans-30"/>
      </g>
     </g>
    </g>
    <g id="ytick_4">
     <g id="line2d_13">
      <g>
       <use style="stroke:#000000;stroke-width:0.8;" x="57.6" xlink:href="#mb97097e385" y="57.372508"/>
      </g>
     </g>
     <g id="text_14">
      <!-- $\mathdefault{10^{1}}$ -->
      <g transform="translate(33 61.171727)scale(0.1 -0.1)">
       <use transform="translate(0 0.684375)" xlink:href="#DejaVuSans-31"/>
       <use transform="translate(63.623047 0.684375)" xlink:href="#DejaVuSans-30"/>
       <use transform="translate(128.203125 38.965625)scale(0.7)" xlink:href="#DejaVuSans-31"/>
      </g>
     </g>
    </g>
    <g id="ytick_5">
     <g id="line2d_14">
      <defs>
       <path d="M 0 0 
L -2 0 
" id="m6cd3f0d4c4" style="stroke:#000000;stroke-width:0.6;"/>
      </defs>
      <g>
       <use style="stroke:#000000;stroke-width:0.6;" x="57.6" xlink:href="#m6cd3f0d4c4" y="297.294257"/>
      </g>
     </g>
    </g>
    <g id="ytick_6">
     <g id="line2d_15">
      <g>
       <use style="stroke:#000000;stroke-width:0.6;" x="57.6" xlink:href="#m6cd3f0d4c4" y="288.785443"/>
      </g>
     </g>
    </g>
    <g id="ytick_7">
     <g id="line2d_16">
      <g>
       <use style="stroke:#000000;stroke-width:0.6;" x="57.6" xlink:href="#m6cd3f0d4c4" y="282.185494"/>
      </g>
     </g>
    </g>
    <g id="ytick_8">
     <g id="line2d_17">
      <g>
       <use style="stroke:#000000;stroke-width:0.6;" x="57.6" xlink:href="#m6cd3f0d4c4" y="276.792943"/>
      </g>
     </g>
    </g>
    <g id="ytick_9">
     <g id="line2d_18">
      <g>
       <use style="stroke:#000000;stroke-width:0.6;" x="57.6" xlink:href="#m6cd3f0d4c4" y="272.233606"/>
      </g>
     </g>
    </g>
    <g id="ytick_10">
     <g id="line2d_19">
      <g>
       <use style="stroke:#000000;stroke-width:0.6;" x="57.6" xlink:href="#m6cd3f0d4c4" y="268.284129"/>
      </g>
     </g>
    </g>
    <g id="ytick_11">
     <g id="line2d_20">
      <g>
       <use style="stroke:#000000;stroke-width:0.6;" x="57.6" xlink:href="#m6cd3f0d4c4" y="264.800443"/>
      </g>
     </g>
    </g>
    <g id="ytick_12">
     <g id="line2d_21">
      <g>
       <use style="stroke:#000000;stroke-width:0.6;" x="57.6" xlink:href="#m6cd3f0d4c4" y="241.182866"/>
      </g>
     </g>
    </g>
    <g id="ytick_13">
     <g id="line2d_22">
      <g>
       <use style="stroke:#000000;stroke-width:0.6;" x="57.6" xlink:href="#m6cd3f0d4c4" y="229.190366"/>
      </g>
     </g>
    </g>
    <g id="ytick_14">
     <g id="line2d_23">
      <g>
       <use style="stroke:#000000;stroke-width:0.6;" x="57.6" xlink:href="#m6cd3f0d4c4" y="220.681552"/>
      </g>
     </g>
    </g>
    <g id="ytick_15">
     <g id="line2d_24">
      <g>
       <use style="stroke:#000000;stroke-width:0.6;" x="57.6" xlink:href="#m6cd3f0d4c4" y="214.081603"/>
      </g>
     </g>
    </g>
    <g id="ytick_16">
     <g id="line2d_25">
      <g>
       <use style="stroke:#000000;stroke-width:0.6;" x="57.6" xlink:href="#m6cd3f0d4c4" y="208.689053"/>
      </g>
     </g>
    </g>
    <g id="ytick_17">
     <g id="line2d_26">
      <g>
       <use style="stroke:#000000;stroke-width:0.6;" x="57.6" xlink:href="#m6cd3f0d4c4" y="204.129716"/>
      </g>
     </g>
    </g>
    <g id="ytick_18">
     <g id="line2d_27">
      <g>
       <use style="stroke:#000000;stroke-width:0.6;" x="57.6" xlink:href="#m6cd3f0d4c4" y="200.180238"/>
      </g>
     </g>
    </g>
    <g id="ytick_19">
     <g id="line2d_28">
      <g>
       <use style="stroke:#000000;stroke-width:0.6;" x="57.6" xlink:href="#m6cd3f0d4c4" y="196.696553"/>
      </g>
     </g>
    </g>
    <g id="ytick_20">
     <g id="line2d_29">
      <g>
       <use style="stroke:#000000;stroke-width:0.6;" x="57.6" xlink:href="#m6cd3f0d4c4" y="173.078976"/>
      </g>
     </g>
    </g>
    <g id="ytick_21">
     <g id="line2d_30">
      <g>
       <use style="stroke:#000000;stroke-width:0.6;" x="57.6" xlink:href="#m6cd3f0d4c4" y="161.086476"/>
      </g>
     </g>
    </g>
    <g id="ytick_22">
     <g id="line2d_31">
      <g>
       <use style="stroke:#000000;stroke-width:0.6;" x="57.6" xlink:href="#m6cd3f0d4c4" y="152.577662"/>
      </g>
     </g>
    </g>
    <g id="ytick_23">
     <g id="line2d_32">
      <g>
       <use style="stroke:#000000;stroke-width:0.6;" x="57.6" xlink:href="#m6cd3f0d4c4" y="145.977713"/>
      </g>
     </g>
    </g>
    <g id="ytick_24">
     <g id="line2d_33">
      <g>
       <use style="stroke:#000000;stroke-width:0.6;" x="57.6" xlink:href="#m6cd3f0d4c4" y="140.585162"/>
      </g>
     </g>
    </g>
    <g id="ytick_25">
     <g id="line2d_34">
      <g>
       <use style="stroke:#000000;stroke-width:0.6;" x="57.6" xlink:href="#m6cd3f0d4c4" y="136.025825"/>
      </g>
     </g>
    </g>
    <g id="ytick_26">
     <g id="line2d_35">
      <g>
       <use style="stroke:#000000;stroke-width:0.6;" x="57.6" xlink:href="#m6cd3f0d4c4" y="132.076348"/>
      </g>
     </g>
    </g>
    <g id="ytick_27">
     <g id="line2d_36">
      <g>
       <use style="stroke:#000000;stroke-width:0.6;" x="57.6" xlink:href="#m6cd3f0d4c4" y="128.592662"/>
      </g>
     </g>
    </g>
    <g id="ytick_28">
     <g id="line2d_37">
      <g>
       <use style="stroke:#000000;stroke-width:0.6;" x="57.6" xlink:href="#m6cd3f0d4c4" y="104.975085"/>
      </g>
     </g>
    </g>
    <g id="ytick_29">
     <g id="line2d_38">
      <g>
       <use style="stroke:#000000;stroke-width:0.6;" x="57.6" xlink:href="#m6cd3f0d4c4" y="92.982585"/>
      </g>
     </g>
    </g>
    <g id="ytick_30">
     <g id="line2d_39">
      <g>
       <use style="stroke:#000000;stroke-width:0.6;" x="57.6" xlink:href="#m6cd3f0d4c4" y="84.473771"/>
      </g>
     </g>
    </g>
    <g id="ytick_31">
     <g id="line2d_40">
      <g>
       <use style="stroke:#000000;stroke-width:0.6;" x="57.6" xlink:href="#m6cd3f0d4c4" y="77.873822"/>
      </g>
     </g>
    </g>
    <g id="ytick_32">
     <g id="line2d_41">
      <g>
       <use style="stroke:#000000;stroke-width:0.6;" x="57.6" xlink:href="#m6cd3f0d4c4" y="72.481271"/>
      </g>
     </g>
    </g>
    <g id="ytick_33">
     <g id="line2d_42">
      <g>
       <use style="stroke:#000000;stroke-width:0.6;" x="57.6" xlink:href="#m6cd3f0d4c4" y="67.921934"/>
      </g>
     </g>
    </g>
    <g id="ytick_34">
     <g id="line2d_43">
      <g>
       <use style="stroke:#000000;stroke-width:0.6;" x="57.6" xlink:href="#m6cd3f0d4c4" y="63.972457"/>
      </g>
     </g>
    </g>
    <g id="ytick_35">
     <g id="line2d_44">
      <g>
       <use style="stroke:#000000;stroke-width:0.6;" x="57.6" xlink:href="#m6cd3f0d4c4" y="60.488771"/>
      </g>
     </g>
    </g>
    <g id="text_15">
     <!-- Full Space MSE -->
     <defs>
      <path d="M 9.8125 72.90625 
L 51.703125 72.90625 
L 51.703125 64.59375 
L 19.671875 64.59375 
L 19.671875 43.109375 
L 48.578125 43.109375 
L 48.578125 34.8125 
L 19.671875 34.8125 
L 19.671875 0 
L 9.8125 0 
z
" id="DejaVuSans-46"/>
      <path d="M 8.5 21.578125 
L 8.5 54.6875 
L 17.484375 54.6875 
L 17.484375 21.921875 
Q 17.484375 14.15625 20.5 10.265625 
Q 23.53125 6.390625 29.59375 6.390625 
Q 36.859375 6.390625 41.078125 11.03125 
Q 45.3125 15.671875 45.3125 23.6875 
L 45.3125 54.6875 
L 54.296875 54.6875 
L 54.296875 0 
L 45.3125 0 
L 45.3125 8.40625 
Q 42.046875 3.421875 37.71875 1 
Q 33.40625 -1.421875 27.6875 -1.421875 
Q 18.265625 -1.421875 13.375 4.4375 
Q 8.5 10.296875 8.5 21.578125 
z
M 31.109375 56 
z
" id="DejaVuSans-75"/>
      <path d="M 9.421875 75.984375 
L 18.40625 75.984375 
L 18.40625 0 
L 9.421875 0 
z
" id="DejaVuSans-6c"/>
      <path id="DejaVuSans-20"/>
      <path d="M 53.515625 70.515625 
L 53.515625 60.890625 
Q 47.90625 63.578125 42.921875 64.890625 
Q 37.9375 66.21875 33.296875 66.21875 
Q 25.25 66.21875 20.875 63.09375 
Q 16.5 59.96875 16.5 54.203125 
Q 16.5 49.359375 19.40625 46.890625 
Q 22.3125 44.4375 30.421875 42.921875 
L 36.375 41.703125 
Q 47.40625 39.59375 52.65625 34.296875 
Q 57.90625 29 57.90625 20.125 
Q 57.90625 9.515625 50.796875 4.046875 
Q 43.703125 -1.421875 29.984375 -1.421875 
Q 24.8125 -1.421875 18.96875 -0.25 
Q 13.140625 0.921875 6.890625 3.21875 
L 6.890625 13.375 
Q 12.890625 10.015625 18.65625 8.296875 
Q 24.421875 6.59375 29.984375 6.59375 
Q 38.421875 6.59375 43.015625 9.90625 
Q 47.609375 13.234375 47.609375 19.390625 
Q 47.609375 24.75 44.3125 27.78125 
Q 41.015625 30.8125 33.5 32.328125 
L 27.484375 33.5 
Q 16.453125 35.6875 11.515625 40.375 
Q 6.59375 45.0625 6.59375 53.421875 
Q 6.59375 63.09375 13.40625 68.65625 
Q 20.21875 74.21875 32.171875 74.21875 
Q 37.3125 74.21875 42.625 73.28125 
Q 47.953125 72.359375 53.515625 70.515625 
z
" id="DejaVuSans-53"/>
      <path d="M 34.28125 27.484375 
Q 23.390625 27.484375 19.1875 25 
Q 14.984375 22.515625 14.984375 16.5 
Q 14.984375 11.71875 18.140625 8.90625 
Q 21.296875 6.109375 26.703125 6.109375 
Q 34.1875 6.109375 38.703125 11.40625 
Q 43.21875 16.703125 43.21875 25.484375 
L 43.21875 27.484375 
z
M 52.203125 31.203125 
L 52.203125 0 
L 43.21875 0 
L 43.21875 8.296875 
Q 40.140625 3.328125 35.546875 0.953125 
Q 30.953125 -1.421875 24.3125 -1.421875 
Q 15.921875 -1.421875 10.953125 3.296875 
Q 6 8.015625 6 15.921875 
Q 6 25.140625 12.171875 29.828125 
Q 18.359375 34.515625 30.609375 34.515625 
L 43.21875 34.515625 
L 43.21875 35.40625 
Q 43.21875 41.609375 39.140625 45 
Q 35.0625 48.390625 27.6875 48.390625 
Q 23 48.390625 18.546875 47.265625 
Q 14.109375 46.140625 10.015625 43.890625 
L 10.015625 52.203125 
Q 14.9375 54.109375 19.578125 55.046875 
Q 24.21875 56 28.609375 56 
Q 40.484375 56 46.34375 49.84375 
Q 52.203125 43.703125 52.203125 31.203125 
z
" id="DejaVuSans-61"/>
      <path d="M 56.203125 29.59375 
L 56.203125 25.203125 
L 14.890625 25.203125 
Q 15.484375 15.921875 20.484375 11.0625 
Q 25.484375 6.203125 34.421875 6.203125 
Q 39.59375 6.203125 44.453125 7.46875 
Q 49.3125 8.734375 54.109375 11.28125 
L 54.109375 2.78125 
Q 49.265625 0.734375 44.1875 -0.34375 
Q 39.109375 -1.421875 33.890625 -1.421875 
Q 20.796875 -1.421875 13.15625 6.1875 
Q 5.515625 13.8125 5.515625 26.8125 
Q 5.515625 40.234375 12.765625 48.109375 
Q 20.015625 56 32.328125 56 
Q 43.359375 56 49.78125 48.890625 
Q 56.203125 41.796875 56.203125 29.59375 
z
M 47.21875 32.234375 
Q 47.125 39.59375 43.09375 43.984375 
Q 39.0625 48.390625 32.421875 48.390625 
Q 24.90625 48.390625 20.390625 44.140625 
Q 15.875 39.890625 15.1875 32.171875 
z
" id="DejaVuSans-65"/>
      <path d="M 9.8125 72.90625 
L 24.515625 72.90625 
L 43.109375 23.296875 
L 61.8125 72.90625 
L 76.515625 72.90625 
L 76.515625 0 
L 66.890625 0 
L 66.890625 64.015625 
L 48.09375 14.015625 
L 38.1875 14.015625 
L 19.390625 64.015625 
L 19.390625 0 
L 9.8125 0 
z
" id="DejaVuSans-4d"/>
     </defs>
     <g transform="translate(21.020312 212.410812)rotate(-90)scale(0.1 -0.1)">
      <use xlink:href="#DejaVuSans-46"/>
      <use x="57.441406" xlink:href="#DejaVuSans-75"/>
      <use x="120.820312" xlink:href="#DejaVuSans-6c"/>
      <use x="148.603516" xlink:href="#DejaVuSans-6c"/>
      <use x="176.386719" xlink:href="#DejaVuSans-20"/>
      <use x="208.173828" xlink:href="#DejaVuSans-53"/>
      <use x="271.650391" xlink:href="#DejaVuSans-70"/>
      <use x="335.126953" xlink:href="#DejaVuSans-61"/>
      <use x="396.40625" xlink:href="#DejaVuSans-63"/>
      <use x="451.386719" xlink:href="#DejaVuSans-65"/>
      <use x="512.910156" xlink:href="#DejaVuSans-20"/>
      <use x="544.697266" xlink:href="#DejaVuSans-4d"/>
      <use x="630.976562" xlink:href="#DejaVuSans-53"/>
      <use x="694.453125" xlink:href="#DejaVuSans-45"/>
     </g>
    </g>
   </g>
   <g id="line2d_45">
    <path clip-path="url(#p33bf554018)" d="M 73.832727 53.568 
L 74.482361 66.440358 
L 77.243305 139.477342 
L 77.730531 146.443579 
L 78.542573 154.022015 
L 79.517024 160.963606 
L 81.628334 173.596062 
L 83.414827 183.299013 
L 84.876504 189.750165 
L 85.850955 193.199323 
L 87.150222 196.970734 
L 88.611899 200.516844 
L 90.885617 205.043364 
L 91.372843 205.888432 
L 91.860068 206.772678 
L 92.347294 207.5384 
L 92.996928 208.629706 
L 94.458604 210.740125 
L 94.621012 210.867095 
L 94.945829 211.433351 
L 95.92028 212.724089 
L 97.544365 214.809273 
L 98.03159 215.23034 
L 98.356407 215.695558 
L 98.681224 216.013342 
L 101.442168 218.845653 
L 101.604577 218.925262 
L 101.929394 219.341722 
L 105.015155 222.429069 
L 105.50238 222.624389 
L 105.664789 223.039273 
L 105.827197 223.016643 
L 106.964057 224.194258 
L 107.126465 224.166433 
L 107.288874 224.336409 
L 107.451282 224.337855 
L 107.776099 224.677219 
L 108.75055 225.640762 
L 109.237775 225.973157 
L 109.400184 226.045164 
L 109.725001 226.432987 
L 109.887409 226.457535 
L 110.86186 227.404309 
L 112.485945 228.500136 
L 115.246889 230.66208 
L 115.734114 231.104637 
L 115.896523 231.146846 
L 116.22134 231.021051 
L 116.383748 231.250337 
L 116.546157 231.264805 
L 117.033382 231.832578 
L 117.520608 232.464051 
L 117.683016 232.537799 
L 117.845425 232.453449 
L 118.170241 232.881939 
L 118.33265 232.834883 
L 118.495058 233.211751 
L 118.657467 233.134368 
L 118.819875 233.220817 
L 118.982284 233.433649 
L 119.144692 233.46162 
L 119.631918 234.083388 
L 119.956735 234.269245 
L 120.281552 234.285478 
L 120.44396 234.366289 
L 120.768777 234.846829 
L 120.931186 235.122616 
L 121.093594 235.118644 
L 121.256003 235.345267 
L 121.418411 235.238404 
L 121.743228 235.488994 
L 121.905636 235.486107 
L 122.55527 236.327713 
L 122.880087 236.239125 
L 123.204904 236.370206 
L 123.367313 236.852984 
L 123.529721 236.881305 
L 123.854538 237.22061 
L 124.016947 236.936946 
L 124.179355 237.11954 
L 124.341764 236.992236 
L 124.504172 237.007563 
L 124.828989 237.507911 
L 124.991398 237.696636 
L 125.316214 238.246503 
L 125.478623 238.252777 
L 127.102708 239.525488 
L 127.265116 239.423776 
L 127.752342 239.660411 
L 127.91475 239.486662 
L 128.077159 239.142519 
L 128.239567 239.3701 
L 128.564384 239.985502 
L 128.726792 239.949165 
L 128.889201 240.14074 
L 129.051609 240.082349 
L 129.538835 240.867157 
L 129.701243 240.741626 
L 129.863652 240.440266 
L 130.513286 240.683114 
L 130.675694 240.573435 
L 130.838103 241.249683 
L 131.487737 241.626066 
L 131.812554 242.016823 
L 132.299779 242.323602 
L 132.462187 242.234962 
L 132.624596 242.280774 
L 132.787004 241.930759 
L 133.111821 242.743828 
L 133.27423 242.878437 
L 133.436638 242.826454 
L 133.599047 243.017459 
L 133.923864 243.136752 
L 134.086272 243.444277 
L 134.248681 243.395961 
L 134.573498 243.713245 
L 134.735906 243.665071 
L 134.898315 243.881075 
L 135.38554 243.929468 
L 135.547949 244.022015 
L 135.710357 243.868119 
L 136.035174 243.89198 
L 136.359991 243.775775 
L 136.684808 244.376369 
L 137.009625 244.461465 
L 137.172033 244.658652 
L 137.334442 244.539262 
L 137.659259 244.984308 
L 137.984076 244.938965 
L 138.308893 245.467182 
L 138.471301 245.355542 
L 138.796118 245.730986 
L 139.283343 245.894694 
L 139.770569 246.439471 
L 139.932977 246.581155 
L 140.257794 246.104075 
L 140.582611 246.538986 
L 140.74502 246.633777 
L 140.907428 246.584799 
L 141.232245 246.038129 
L 141.557062 246.500839 
L 141.719471 246.616439 
L 142.044288 247.04027 
L 142.206696 247.042414 
L 142.369105 246.815228 
L 142.531513 247.164038 
L 142.693922 247.151092 
L 142.85633 247.317479 
L 143.018738 247.273551 
L 143.343555 247.562994 
L 143.505964 247.214475 
L 143.668372 247.163491 
L 143.993189 247.516535 
L 144.155598 247.625617 
L 144.480415 248.055445 
L 144.642823 248.08198 
L 144.805232 247.607048 
L 145.130049 248.128251 
L 145.292457 248.111452 
L 145.454866 248.421989 
L 145.617274 248.310093 
L 145.942091 248.693573 
L 146.1045 248.546216 
L 146.591725 247.781181 
L 146.754133 248.5654 
L 147.403767 248.967718 
L 147.566176 248.972766 
L 147.728584 248.671179 
L 147.890993 248.719134 
L 148.21581 249.389723 
L 148.378218 249.450962 
L 149.027852 250.072646 
L 149.352669 250.103908 
L 149.515078 250.394781 
L 149.677486 250.124133 
L 149.839894 250.239147 
L 150.002303 250.588426 
L 150.164711 250.154038 
L 150.32712 250.693201 
L 150.489528 250.705081 
L 150.651937 249.894571 
L 150.976754 250.64676 
L 151.139162 250.213608 
L 151.301571 251.011621 
L 151.463979 251.03824 
L 151.626388 250.646661 
L 151.788796 251.063046 
L 152.113613 250.564379 
L 152.43843 251.185853 
L 152.600839 251.054892 
L 152.763247 251.223475 
L 152.925656 250.916452 
L 153.088064 250.911729 
L 153.412881 251.386189 
L 153.575289 252.058028 
L 153.900106 251.752626 
L 154.062515 251.778518 
L 154.224923 251.994001 
L 154.387332 251.885884 
L 154.712149 252.356663 
L 154.874557 252.117254 
L 155.036966 252.267412 
L 155.361783 252.265415 
L 155.524191 252.258462 
L 155.849008 251.846119 
L 156.011417 252.37327 
L 156.173825 252.470902 
L 156.336234 252.863364 
L 156.661051 252.446396 
L 156.823459 252.59358 
L 156.985867 252.334937 
L 157.148276 252.614025 
L 157.635501 252.179449 
L 157.79791 251.472434 
L 157.960318 252.492237 
L 158.122727 251.953219 
L 158.447544 251.83468 
L 158.609952 252.149926 
L 158.772361 252.138435 
L 158.934769 251.787442 
L 159.097178 250.690316 
L 159.259586 251.075675 
L 159.421995 252.022748 
L 159.584403 252.20648 
L 159.746812 251.247672 
L 159.90922 251.390802 
L 160.071629 251.184974 
L 160.234037 251.935937 
L 160.396445 252.039585 
L 160.558854 251.459524 
L 160.721262 252.480021 
L 160.883671 252.716036 
L 161.046079 251.472687 
L 161.208488 251.707561 
L 161.370896 251.357195 
L 161.533305 245.608285 
L 161.695713 244.775973 
L 161.858122 247.485921 
L 162.02053 248.21081 
L 162.182939 248.421082 
L 162.670164 252.223581 
L 162.994981 252.706586 
L 163.319798 254.225879 
L 163.482207 254.223439 
L 163.807024 255.35277 
L 164.13184 255.091109 
L 164.294249 255.471913 
L 164.456657 255.290654 
L 164.619066 255.446605 
L 164.781474 255.916416 
L 164.943883 255.808687 
L 165.106291 255.98549 
L 165.2687 255.671299 
L 165.431108 255.622555 
L 165.755925 255.838475 
L 165.918334 256.147192 
L 166.080742 256.123001 
L 166.243151 256.26953 
L 166.405559 256.027139 
L 166.730376 256.672325 
L 166.892785 256.426192 
L 167.055193 256.506051 
L 167.217602 256.446874 
L 167.38001 256.161469 
L 167.542418 256.14585 
L 167.867235 256.834438 
L 168.192052 255.781279 
L 168.354461 256.063431 
L 168.516869 255.980858 
L 168.679278 256.830066 
L 169.166503 256.865325 
L 169.49132 257.28852 
L 169.653729 257.238843 
L 169.816137 257.397267 
L 169.978546 257.157984 
L 170.62818 257.526801 
L 170.790588 257.308783 
L 171.115405 257.853493 
L 171.440222 257.923527 
L 171.60263 257.262736 
L 171.765039 257.688632 
L 171.927447 257.687637 
L 172.089856 257.175509 
L 172.414673 257.953678 
L 172.577081 257.873232 
L 172.73949 258.316641 
L 172.901898 258.01414 
L 173.226715 258.15773 
L 173.713941 258.675374 
L 173.876349 258.833514 
L 174.201166 258.675663 
L 174.363575 258.715869 
L 174.688391 258.98205 
L 174.8508 258.482237 
L 175.013208 258.552606 
L 175.175617 259.135943 
L 175.338025 259.118598 
L 175.500434 258.705281 
L 175.662842 258.73259 
L 175.825251 259.027328 
L 175.987659 258.512054 
L 176.474885 258.890751 
L 176.637293 258.837241 
L 176.799702 258.922051 
L 176.96211 258.52528 
L 177.124519 259.181313 
L 177.286927 259.090551 
L 177.449336 258.801334 
L 177.611744 259.597163 
L 177.774153 259.17495 
L 177.936561 259.159865 
L 178.098969 259.763716 
L 178.261378 259.709001 
L 178.423786 259.889246 
L 178.586195 259.79021 
L 178.748603 259.546322 
L 178.911012 259.714068 
L 179.07342 260.124937 
L 179.398237 260.097702 
L 179.560646 259.479073 
L 179.723054 259.585406 
L 179.885463 260.063162 
L 180.047871 259.892779 
L 180.21028 260.443339 
L 180.372688 260.422209 
L 180.535097 260.575108 
L 180.697505 259.996652 
L 180.859914 259.952025 
L 181.022322 260.268793 
L 181.184731 259.449083 
L 181.347139 260.241895 
L 181.671956 258.606046 
L 181.996773 259.775069 
L 182.32159 260.482057 
L 182.646407 261.204919 
L 182.808815 261.197172 
L 183.133632 260.861094 
L 183.296041 259.86465 
L 183.458449 260.771304 
L 183.620858 260.528956 
L 183.945675 261.559356 
L 184.108083 261.802223 
L 184.270492 261.462138 
L 184.595309 261.335738 
L 184.757717 261.639701 
L 185.244942 261.21749 
L 185.407351 261.526716 
L 185.894576 259.697505 
L 186.219393 260.499682 
L 186.54421 259.571707 
L 186.706619 259.299623 
L 187.031436 257.846907 
L 187.193844 259.755069 
L 187.518661 258.063392 
L 187.68107 258.653004 
L 187.843478 259.754456 
L 188.005887 259.787747 
L 188.168295 260.14681 
L 188.330704 259.629879 
L 188.817929 260.782117 
L 188.980337 260.897831 
L 189.305154 262.329576 
L 189.467563 261.964935 
L 189.629971 261.215605 
L 189.79238 261.245267 
L 190.117197 262.153206 
L 190.279605 261.962434 
L 190.442014 261.991195 
L 190.604422 261.77852 
L 190.929239 262.727569 
L 191.254056 260.82108 
L 191.578873 262.769387 
L 191.741282 262.244371 
L 191.90369 261.201463 
L 192.066099 262.370608 
L 192.553324 261.765852 
L 192.715732 261.765204 
L 192.878141 262.13877 
L 193.202958 263.36179 
L 193.365366 263.005593 
L 193.527775 263.812017 
L 193.690183 264.028314 
L 193.852592 263.774617 
L 194.015 263.242158 
L 194.339817 264.359501 
L 194.502226 263.991398 
L 194.827043 264.283018 
L 194.989451 264.818269 
L 195.15186 264.183069 
L 195.314268 264.659099 
L 195.639085 262.870346 
L 195.801493 263.064681 
L 196.12631 261.968945 
L 196.288719 259.837226 
L 196.613536 263.336391 
L 196.775944 262.90722 
L 196.938353 263.310522 
L 197.100761 264.359111 
L 197.26317 263.820332 
L 197.425578 264.420416 
L 197.750395 263.357829 
L 197.912804 264.399055 
L 198.075212 263.920498 
L 198.237621 264.649572 
L 198.400029 264.481679 
L 198.562438 265.168957 
L 198.887255 264.434478 
L 199.212071 262.603931 
L 199.699297 263.707902 
L 199.861705 263.40264 
L 200.186522 265.259093 
L 200.348931 264.198986 
L 200.511339 264.658574 
L 200.673748 264.40832 
L 200.836156 263.514123 
L 201.160973 265.830823 
L 201.48579 266.37052 
L 201.648199 266.32505 
L 201.810607 266.665956 
L 202.135424 266.316777 
L 202.297833 266.57177 
L 202.460241 265.898662 
L 202.62265 266.247056 
L 202.947466 265.871813 
L 203.109875 266.048416 
L 203.272283 265.321572 
L 203.5971 265.847748 
L 203.759509 265.910058 
L 203.921917 266.17495 
L 204.084326 265.727065 
L 204.246734 265.732605 
L 204.409143 265.180341 
L 204.571551 265.967649 
L 204.73396 266.178782 
L 204.896368 266.781648 
L 205.058777 266.677245 
L 205.221185 266.991887 
L 205.383594 266.485363 
L 205.546002 266.46649 
L 205.708411 266.332699 
L 205.870819 266.553395 
L 206.033228 266.079112 
L 206.195636 266.125659 
L 206.358044 265.858506 
L 206.520453 266.609095 
L 206.84527 265.237497 
L 207.007678 265.922179 
L 207.170087 265.767832 
L 207.332495 265.813266 
L 207.494904 266.807753 
L 207.657312 267.030103 
L 207.982129 266.504159 
L 208.306946 267.752669 
L 208.631763 267.633777 
L 208.794172 267.827278 
L 208.95658 267.346175 
L 209.118989 267.738823 
L 209.281397 267.630369 
L 209.768622 268.337294 
L 209.931031 268.34847 
L 210.255848 267.993168 
L 210.580665 268.296452 
L 210.743073 267.563377 
L 210.905482 267.710473 
L 211.06789 268.07237 
L 211.230299 267.948665 
L 211.392707 268.442305 
L 211.555116 268.239223 
L 211.717524 268.831968 
L 211.879933 268.628894 
L 212.042341 268.705765 
L 212.20475 269.202423 
L 212.367158 268.061369 
L 212.529567 268.894909 
L 212.691975 269.050878 
L 212.854384 269.526536 
L 213.016792 268.08502 
L 213.179201 268.072193 
L 213.341609 266.707079 
L 213.504017 267.501643 
L 213.666426 267.57376 
L 213.828834 268.17614 
L 213.991243 267.11576 
L 214.153651 267.04976 
L 214.31606 267.383677 
L 214.478468 266.526053 
L 214.640877 266.936908 
L 214.803285 267.725235 
L 215.128102 268.072948 
L 215.290511 268.796342 
L 215.452919 268.643754 
L 215.777736 269.185988 
L 216.264962 267.736042 
L 216.42737 268.216414 
L 216.589779 265.242728 
L 216.752187 267.899858 
L 216.914595 267.101645 
L 217.077004 268.516846 
L 217.239412 265.813009 
L 217.401821 268.332669 
L 217.564229 268.329465 
L 217.726638 267.92094 
L 217.889046 268.543973 
L 218.051455 268.383364 
L 218.213863 267.862434 
L 218.376272 268.507439 
L 218.53868 267.927714 
L 218.701089 269.039986 
L 218.863497 268.580322 
L 219.025906 268.984544 
L 219.188314 268.922002 
L 219.350723 266.652903 
L 219.513131 268.823863 
L 219.67554 268.000983 
L 219.837948 268.472655 
L 220.000357 269.577204 
L 220.162765 269.82922 
L 220.325173 269.843578 
L 220.487582 268.772604 
L 220.974807 269.641053 
L 221.137216 262.68195 
L 221.462033 264.756812 
L 221.624441 264.013011 
L 221.78685 262.556233 
L 222.111667 265.080873 
L 222.274075 264.98396 
L 222.598892 267.758089 
L 222.761301 267.858114 
L 222.923709 266.970991 
L 223.248526 268.875896 
L 223.410935 269.51027 
L 223.573343 269.211263 
L 223.735752 269.739032 
L 223.89816 269.621947 
L 224.060568 269.256001 
L 224.222977 269.395986 
L 224.385385 269.07639 
L 224.710202 269.411494 
L 224.872611 270.45424 
L 225.197428 269.159518 
L 225.359836 270.286864 
L 225.522245 269.428553 
L 225.684653 269.540746 
L 225.847062 268.956126 
L 226.496696 271.454497 
L 226.659104 270.803484 
L 226.821513 270.653204 
L 226.983921 271.533122 
L 227.14633 271.489265 
L 227.308738 272.078626 
L 227.471146 272.203569 
L 227.633555 272.179992 
L 227.795963 272.660849 
L 227.958372 272.45925 
L 228.12078 272.582023 
L 228.283189 272.152745 
L 228.445597 270.996974 
L 228.608006 271.64135 
L 228.770414 267.891828 
L 228.932823 270.98562 
L 229.095231 269.973404 
L 229.25764 271.785834 
L 229.420048 272.113603 
L 229.582457 272.101861 
L 229.744865 271.917643 
L 229.907274 272.056437 
L 230.069682 272.495215 
L 230.232091 270.802807 
L 230.394499 271.928982 
L 230.556908 269.214537 
L 230.719316 271.507593 
L 230.881724 270.915607 
L 231.044133 271.149515 
L 231.206541 271.620423 
L 231.36895 267.071845 
L 231.693767 269.918022 
L 231.856175 266.664776 
L 232.018584 266.93805 
L 232.180992 265.059273 
L 232.343401 264.951163 
L 232.505809 269.254503 
L 232.830626 270.108954 
L 232.993035 271.621705 
L 233.317852 270.381529 
L 233.48026 271.095383 
L 233.642669 269.279915 
L 233.967486 272.70629 
L 234.129894 272.427541 
L 234.292303 273.013246 
L 234.454711 272.817848 
L 234.617119 273.105179 
L 234.779528 272.076444 
L 234.941936 273.284161 
L 235.104345 273.315384 
L 235.266753 272.905753 
L 235.429162 273.816999 
L 235.59157 273.959754 
L 235.916387 273.393772 
L 236.078796 273.546812 
L 236.403613 274.167215 
L 236.72843 273.764601 
L 237.053247 274.478109 
L 237.215655 273.73622 
L 237.378064 273.659393 
L 237.540472 274.235239 
L 237.702881 274.248591 
L 238.027697 272.933706 
L 238.190106 273.856981 
L 238.352514 273.184672 
L 238.514923 274.365251 
L 238.83974 273.900048 
L 239.002148 274.169585 
L 239.164557 273.455138 
L 239.326965 273.740497 
L 239.814191 273.481037 
L 239.976599 273.092192 
L 240.139008 273.183659 
L 240.463825 273.638289 
L 240.626233 273.696041 
L 240.788642 274.089761 
L 241.113459 273.74788 
L 241.438276 274.154662 
L 241.763092 273.823927 
L 241.925501 274.452776 
L 242.087909 274.391528 
L 242.250318 274.538868 
L 242.412726 274.52853 
L 242.575135 273.99941 
L 242.737543 274.676958 
L 242.899952 274.65862 
L 243.06236 274.872566 
L 243.224769 274.85075 
L 243.387177 273.83311 
L 243.549586 273.760666 
L 243.711994 270.009805 
L 243.874403 274.40782 
L 244.19922 271.710383 
L 244.361628 269.21362 
L 244.686445 272.448818 
L 244.848854 271.196095 
L 245.17367 273.335688 
L 245.336079 269.58807 
L 245.498487 273.639026 
L 245.660896 271.390304 
L 245.823304 273.794087 
L 245.985713 270.939426 
L 246.148121 273.148106 
L 246.31053 273.289043 
L 246.472938 274.477996 
L 246.635347 272.754913 
L 246.797755 274.055455 
L 246.960164 274.023347 
L 247.122572 273.51949 
L 247.284981 275.031207 
L 247.447389 273.886468 
L 247.609798 275.043585 
L 247.772206 275.122865 
L 248.097023 275.614558 
L 248.259432 275.264276 
L 248.42184 275.964091 
L 248.584248 275.939529 
L 248.746657 274.685065 
L 248.909065 274.344444 
L 249.071474 274.578891 
L 249.396291 275.931839 
L 249.721108 274.453028 
L 249.883516 274.029772 
L 250.208333 275.775803 
L 250.370742 276.155534 
L 250.695559 274.907542 
L 250.857967 273.872249 
L 251.020376 273.887868 
L 251.182784 272.030982 
L 251.345193 272.956791 
L 251.507601 271.779122 
L 251.67001 273.977007 
L 251.994827 273.568399 
L 252.319643 276.286956 
L 252.64446 275.377571 
L 252.806869 275.813526 
L 253.131686 275.84294 
L 253.294094 274.932307 
L 253.456503 275.987549 
L 253.618911 275.598034 
L 253.78132 275.618759 
L 253.943728 274.970952 
L 254.106137 274.959269 
L 254.430954 276.97881 
L 254.593362 277.050582 
L 254.918179 275.743833 
L 255.080588 275.345261 
L 255.405405 277.102861 
L 255.567813 277.068356 
L 255.730221 276.479053 
L 255.89263 276.674465 
L 256.055038 276.231454 
L 256.217447 276.469465 
L 256.379855 274.433052 
L 256.542264 275.733869 
L 256.704672 274.245182 
L 256.867081 275.758616 
L 257.029489 272.204742 
L 257.191898 275.830446 
L 257.354306 274.956008 
L 257.516715 275.706496 
L 257.679123 275.328055 
L 258.166349 277.176889 
L 258.328757 277.074717 
L 258.978391 275.690682 
L 259.140799 275.956789 
L 259.303208 274.172387 
L 259.465616 275.257806 
L 259.628025 274.219646 
L 259.790433 275.277103 
L 259.952842 273.431054 
L 260.277659 276.878504 
L 260.764884 277.709262 
L 260.927293 277.372188 
L 261.25211 278.244803 
L 261.414518 277.75738 
L 261.901744 278.267517 
L 262.064152 277.676587 
L 262.226561 278.349092 
L 262.388969 277.890442 
L 262.876194 278.782771 
L 263.038603 278.579917 
L 263.201011 279.214346 
L 263.36342 278.478093 
L 263.525828 279.183671 
L 263.850645 278.668487 
L 264.013054 278.333227 
L 264.175462 279.201777 
L 264.337871 279.248322 
L 264.500279 279.715332 
L 264.662688 279.426218 
L 265.312322 277.361275 
L 265.47473 277.807599 
L 265.961956 277.044503 
L 266.124364 278.253155 
L 266.286772 278.295547 
L 266.449181 279.155543 
L 266.611589 278.898521 
L 266.773998 278.977295 
L 266.936406 279.354979 
L 267.098815 279.151134 
L 267.261223 278.307819 
L 267.423632 279.057253 
L 267.58604 278.473157 
L 267.748449 277.379486 
L 267.910857 278.156501 
L 268.073266 277.152518 
L 268.235674 271.196064 
L 268.398083 272.965743 
L 268.7229 277.097389 
L 268.885308 277.44688 
L 269.047717 277.243329 
L 269.210125 277.444402 
L 269.372534 278.092558 
L 269.534942 273.256968 
L 269.69735 274.058981 
L 269.859759 269.623074 
L 270.022167 269.851566 
L 270.346984 275.309076 
L 270.509393 272.086865 
L 270.671801 275.16438 
L 270.83421 273.813231 
L 271.159027 276.909834 
L 271.321435 277.800777 
L 271.483844 277.836574 
L 271.646252 277.323027 
L 271.808661 279.160746 
L 271.971069 278.358688 
L 272.295886 279.325331 
L 272.458295 279.345332 
L 272.620703 279.890545 
L 272.783112 277.985871 
L 272.94552 278.664063 
L 273.270337 278.799122 
L 273.757562 277.995023 
L 273.919971 279.242362 
L 274.082379 278.304435 
L 274.244788 278.517207 
L 274.569605 277.449846 
L 274.732013 277.767202 
L 274.894422 276.267814 
L 275.219239 278.882565 
L 275.381647 274.724574 
L 275.544056 277.873178 
L 275.706464 278.200358 
L 275.868873 277.05115 
L 276.031281 278.49552 
L 276.19369 278.631083 
L 276.356098 277.084538 
L 276.518507 278.223837 
L 276.680915 278.571685 
L 276.843323 279.767689 
L 277.005732 276.602685 
L 277.16814 279.011603 
L 277.330549 275.968638 
L 277.492957 279.559404 
L 277.655366 274.577194 
L 277.817774 277.517663 
L 277.980183 277.288788 
L 278.305 279.910596 
L 278.467408 278.840179 
L 278.629817 276.864482 
L 278.792225 276.956566 
L 279.117042 279.940588 
L 279.279451 280.167354 
L 279.441859 278.303156 
L 279.604268 278.031698 
L 279.766676 277.4266 
L 279.929085 277.821035 
L 280.091493 277.895992 
L 280.253901 279.478905 
L 280.41631 278.801966 
L 280.578718 278.847819 
L 280.741127 280.51913 
L 280.903535 280.773481 
L 281.065944 280.785299 
L 281.228352 280.505107 
L 281.390761 281.060411 
L 281.553169 280.950531 
L 281.715578 281.491379 
L 282.202803 281.782288 
L 282.52762 280.311494 
L 282.690029 280.876684 
L 283.014846 280.971415 
L 283.339663 281.740655 
L 283.502071 281.535128 
L 283.66448 281.790121 
L 283.826888 280.441158 
L 283.989296 281.659939 
L 284.476522 281.202694 
L 284.63893 281.410375 
L 284.801339 280.214083 
L 284.963747 281.781289 
L 285.126156 281.222818 
L 285.288564 281.782244 
L 285.450973 278.924196 
L 285.613381 279.102417 
L 285.77579 279.717799 
L 285.938198 279.561078 
L 286.100607 278.291563 
L 286.425424 280.25608 
L 286.912649 279.554017 
L 287.399874 281.687535 
L 287.562283 281.504904 
L 287.724691 282.129816 
L 288.049508 281.680404 
L 288.211917 282.220714 
L 288.374325 282.073943 
L 288.536734 282.255202 
L 288.699142 281.396064 
L 288.861551 278.357364 
L 289.023959 278.890012 
L 289.186368 273.866848 
L 289.348776 279.140334 
L 289.673593 280.40851 
L 289.836002 279.449975 
L 289.99841 280.068373 
L 290.160819 281.511639 
L 290.323227 281.529938 
L 290.485636 281.034591 
L 290.648044 281.172751 
L 290.810452 280.998373 
L 290.972861 280.097261 
L 291.135269 282.142753 
L 291.297678 280.857307 
L 291.460086 282.508418 
L 291.622495 281.365557 
L 291.784903 282.348966 
L 291.947312 280.10739 
L 292.10972 282.042537 
L 292.272129 281.885923 
L 292.434537 283.641922 
L 292.596946 282.055787 
L 292.759354 282.222126 
L 292.921763 280.635351 
L 293.084171 281.372708 
L 293.24658 272.350857 
L 293.408988 275.629649 
L 293.571397 258.005589 
L 293.733805 272.24891 
L 293.896214 271.315216 
L 294.058622 276.434755 
L 294.383439 275.140297 
L 294.545847 272.905735 
L 294.870664 278.719957 
L 295.033073 278.950691 
L 295.195481 281.190554 
L 295.520298 281.334974 
L 296.007524 281.687736 
L 296.332341 280.895663 
L 296.494749 282.137451 
L 296.819566 282.903348 
L 296.981975 282.555408 
L 297.144383 283.476031 
L 297.306792 283.499866 
L 297.4692 282.972161 
L 297.631609 284.27648 
L 297.794017 283.436076 
L 297.956425 281.823728 
L 298.281242 284.105152 
L 298.606059 282.703339 
L 298.768468 283.176112 
L 298.930876 283.292363 
L 299.093285 283.937002 
L 299.255693 283.913794 
L 299.418102 284.483012 
L 299.742919 283.288619 
L 299.905327 284.165928 
L 300.230144 283.616573 
L 300.392553 284.564577 
L 300.554961 283.771824 
L 300.71737 284.364723 
L 300.879778 282.697022 
L 301.042187 282.478812 
L 301.204595 283.240395 
L 301.367004 282.940593 
L 301.529412 282.896897 
L 301.69182 283.592655 
L 301.854229 283.088479 
L 302.016637 283.139147 
L 302.179046 282.675099 
L 302.341454 284.32173 
L 302.666271 284.607262 
L 302.991088 283.72045 
L 303.153497 284.617269 
L 303.315905 283.304786 
L 303.478314 284.740074 
L 303.640722 284.27264 
L 303.803131 284.192405 
L 304.290356 285.809276 
L 304.452765 284.950082 
L 304.615173 284.814672 
L 304.93999 284.966746 
L 305.264807 284.623456 
L 305.427215 284.667718 
L 305.589624 284.416243 
L 305.752032 285.063003 
L 306.076849 284.092324 
L 306.401666 284.933694 
L 306.564075 283.472098 
L 306.726483 285.07025 
L 306.888892 279.626062 
L 307.213709 283.800829 
L 307.376117 283.133787 
L 307.538526 283.663752 
L 307.700934 284.75769 
L 307.863343 281.628263 
L 308.350568 282.352049 
L 308.512976 281.938712 
L 308.675385 282.264484 
L 308.837793 280.212106 
L 309.000202 283.028428 
L 309.325019 281.050498 
L 309.487427 281.680545 
L 309.649836 281.082481 
L 309.812244 279.135521 
L 309.974653 282.294553 
L 310.137061 281.055435 
L 310.29947 284.105154 
L 310.624287 283.1726 
L 310.949104 283.699895 
L 311.111512 282.533258 
L 311.273921 284.053289 
L 311.436329 283.116183 
L 311.598738 274.079946 
L 311.761146 273.878133 
L 311.923555 269.128088 
L 312.085963 268.762922 
L 312.248371 272.935919 
L 312.41078 274.244676 
L 312.573188 273.67536 
L 312.735597 271.762098 
L 312.898005 271.441593 
L 313.060414 272.031601 
L 313.222822 271.367128 
L 313.547639 277.354365 
L 313.710048 276.224542 
L 313.872456 274.124752 
L 314.197273 280.163444 
L 315.171724 285.334628 
L 315.334133 285.391324 
L 315.496541 286.024477 
L 315.658949 286.09498 
L 315.821358 285.707282 
L 315.983766 285.901899 
L 316.146175 285.810308 
L 316.308583 285.460678 
L 316.470992 286.357615 
L 316.6334 285.761789 
L 316.795809 286.233773 
L 316.958217 286.282066 
L 317.120626 286.890819 
L 317.283034 286.457699 
L 317.445443 286.687804 
L 317.607851 286.619467 
L 317.77026 285.892152 
L 317.932668 286.932892 
L 318.095077 285.979152 
L 318.257485 285.728767 
L 318.582302 286.689541 
L 318.744711 284.736359 
L 319.069527 285.431734 
L 319.231936 285.288251 
L 319.394344 285.713394 
L 319.556753 286.607728 
L 319.88157 287.058632 
L 320.206387 286.183338 
L 320.368795 287.041192 
L 320.531204 287.015276 
L 320.693612 287.452606 
L 320.856021 287.313638 
L 321.180838 286.542155 
L 321.343246 286.237749 
L 321.505655 287.148722 
L 321.668063 286.983456 
L 321.830472 287.055854 
L 322.155289 287.740383 
L 322.317697 287.398152 
L 322.480106 287.559628 
L 322.642514 287.371986 
L 322.804922 287.801139 
L 323.129739 286.332329 
L 323.292148 287.356138 
L 323.454556 287.623346 
L 323.779373 285.488519 
L 323.941782 287.29124 
L 324.266599 286.6302 
L 324.429007 286.471014 
L 324.591416 285.725977 
L 324.753824 286.926956 
L 324.916233 286.784548 
L 325.078641 287.589581 
L 325.24105 287.149057 
L 325.403458 288.116481 
L 325.565867 287.860661 
L 325.728275 287.285247 
L 325.890684 288.44639 
L 326.053092 288.504107 
L 326.2155 288.165029 
L 326.702726 288.781448 
L 327.35236 285.438856 
L 327.514768 285.795685 
L 327.839585 283.006121 
L 328.001994 285.36614 
L 328.164402 284.93497 
L 328.326811 285.332842 
L 328.489219 284.021676 
L 328.651628 284.254806 
L 328.814036 283.892583 
L 329.138853 286.256334 
L 329.46367 284.896207 
L 329.626078 286.658089 
L 329.788487 286.699003 
L 329.950895 287.011328 
L 330.275712 286.342507 
L 330.438121 286.94172 
L 330.600529 286.3391 
L 330.925346 288.015159 
L 331.087755 287.87513 
L 331.412572 288.329737 
L 331.57498 285.095841 
L 331.737389 286.382933 
L 331.899797 286.515088 
L 332.224614 285.030121 
L 332.387023 286.146363 
L 332.549431 281.766256 
L 332.71184 282.322223 
L 332.874248 283.471121 
L 333.036657 283.630664 
L 333.199065 280.495616 
L 333.361473 280.941289 
L 333.523882 284.168196 
L 333.68629 283.70469 
L 333.848699 282.818778 
L 334.011107 280.923786 
L 334.173516 282.799758 
L 334.335924 286.394793 
L 334.82315 283.387921 
L 334.985558 285.370982 
L 335.147967 285.379963 
L 335.472784 282.587455 
L 335.797601 287.77675 
L 335.960009 287.757371 
L 336.122418 287.447842 
L 336.284826 284.973926 
L 336.609643 287.259798 
L 336.772051 287.863013 
L 336.93446 287.384168 
L 337.096868 287.501831 
L 337.259277 285.274576 
L 337.584094 285.267418 
L 337.908911 285.755557 
L 338.071319 283.838425 
L 338.233728 283.238223 
L 338.396136 284.126059 
L 338.720953 287.549391 
L 339.04577 289.644809 
L 339.370587 290.208507 
L 339.532996 287.634491 
L 339.695404 288.66941 
L 339.857813 287.858141 
L 340.020221 288.511824 
L 340.182629 288.307329 
L 340.507446 288.404352 
L 340.669855 288.994405 
L 340.832263 288.412799 
L 340.994672 288.542253 
L 341.15708 287.876657 
L 341.319489 288.241481 
L 341.481897 286.523078 
L 341.644306 289.201538 
L 341.806714 289.905572 
L 341.969123 289.776364 
L 342.131531 289.372298 
L 342.29394 290.49745 
L 342.456348 290.603715 
L 342.618757 290.916928 
L 342.943574 289.105015 
L 343.105982 290.08378 
L 343.268391 286.674108 
L 343.430799 288.413334 
L 343.593208 281.306349 
L 343.755616 286.474063 
L 343.918024 282.40285 
L 344.080433 286.54312 
L 344.242841 286.241359 
L 344.40525 287.694312 
L 344.567658 287.501835 
L 344.730067 286.987535 
L 344.892475 287.08506 
L 345.054884 289.010061 
L 345.217292 289.074354 
L 345.379701 288.788572 
L 345.542109 289.529105 
L 345.704518 289.461283 
L 345.866926 286.649155 
L 346.029335 287.686561 
L 346.191743 287.590207 
L 346.354152 285.018714 
L 346.51656 288.792982 
L 346.678969 287.638877 
L 346.841377 289.02281 
L 347.003786 288.044576 
L 347.166194 285.247673 
L 347.328602 288.553377 
L 347.491011 286.41306 
L 347.653419 286.634804 
L 347.978236 289.185268 
L 348.140645 288.134728 
L 348.303053 290.079589 
L 348.465462 289.339254 
L 348.790279 290.988227 
L 348.952687 291.109556 
L 349.115096 289.994918 
L 349.277504 290.028862 
L 349.439913 289.645998 
L 349.602321 290.830014 
L 349.76473 290.596407 
L 349.927138 291.144983 
L 350.089547 291.023975 
L 350.251955 291.238327 
L 350.414364 290.872174 
L 350.576772 289.741169 
L 350.73918 290.211824 
L 350.901589 288.465328 
L 351.063997 289.530114 
L 351.226406 288.92005 
L 351.551223 289.07941 
L 351.713631 288.691688 
L 351.87604 288.01354 
L 352.200857 290.500038 
L 352.363265 289.47659 
L 352.688082 289.935436 
L 352.850491 289.529839 
L 353.012899 290.559321 
L 353.175308 289.224597 
L 353.337716 290.334504 
L 353.500125 286.68945 
L 353.662533 288.548506 
L 353.824942 276.530804 
L 353.98735 280.438275 
L 354.149759 276.544213 
L 354.312167 281.055379 
L 354.636984 271.654408 
L 354.961801 279.484393 
L 355.124209 280.38697 
L 355.286618 279.980781 
L 355.449026 279.113451 
L 355.611435 275.663755 
L 355.773843 276.288584 
L 356.09866 282.785447 
L 356.423477 287.482617 
L 356.585886 288.740931 
L 356.910703 287.466729 
L 357.073111 287.665976 
L 357.560337 289.443749 
L 357.722745 289.388153 
L 357.885153 290.39081 
L 358.047562 289.749349 
L 358.20997 291.284438 
L 358.372379 291.629052 
L 358.534787 291.300465 
L 358.697196 290.57981 
L 358.859604 291.685241 
L 359.022013 291.685411 
L 359.184421 292.091635 
L 359.34683 291.594726 
L 359.671647 292.305339 
L 360.321281 290.292068 
L 360.483689 290.652065 
L 360.808506 289.622068 
L 360.970915 288.284236 
L 361.133323 280.644792 
L 361.295732 285.485533 
L 361.45814 275.292577 
L 361.620548 287.192297 
L 362.270182 291.919098 
L 362.432591 291.756037 
L 362.594999 292.37139 
L 362.757408 292.068968 
L 362.919816 292.851083 
L 363.082225 292.871688 
L 363.244633 293.280414 
L 363.407042 293.172254 
L 363.56945 293.32105 
L 364.056676 292.238722 
L 364.219084 292.888139 
L 364.381493 292.405385 
L 364.543901 292.92104 
L 364.70631 291.790441 
L 364.868718 292.92093 
L 365.193535 291.82707 
L 365.355943 292.844438 
L 365.518352 292.764413 
L 365.68076 291.898532 
L 365.843169 292.704055 
L 366.005577 291.660674 
L 366.167986 292.740157 
L 366.330394 292.070897 
L 366.492803 292.28309 
L 366.81762 293.587831 
L 366.980028 292.390157 
L 367.142437 292.949041 
L 367.467254 292.251699 
L 367.792071 293.405949 
L 367.954479 292.079009 
L 368.116888 292.492895 
L 368.279296 291.997868 
L 368.441704 289.842162 
L 368.604113 290.661084 
L 368.766521 288.793493 
L 368.92893 291.148817 
L 369.091338 287.621593 
L 369.253747 290.042328 
L 369.416155 289.941618 
L 369.578564 290.22435 
L 369.740972 289.282213 
L 369.903381 285.996096 
L 370.065789 286.224057 
L 370.715423 290.903671 
L 370.877832 290.482775 
L 371.202649 287.576541 
L 371.365057 287.958279 
L 371.852283 286.19578 
L 372.177099 288.518582 
L 372.339508 288.801966 
L 372.501916 290.388861 
L 372.664325 290.30705 
L 372.826733 290.010123 
L 372.989142 291.148385 
L 373.15155 290.542708 
L 373.476367 291.579745 
L 373.638776 289.505627 
L 373.801184 289.894068 
L 373.963593 274.955953 
L 374.126001 283.947923 
L 374.28841 278.7373 
L 374.450818 288.192551 
L 374.775635 287.15094 
L 374.938044 282.361016 
L 375.100452 287.260901 
L 375.262861 288.215883 
L 375.425269 287.109893 
L 375.587677 287.410324 
L 375.750086 286.062823 
L 375.912494 289.804592 
L 376.074903 288.45395 
L 376.39972 290.626947 
L 376.724537 288.767886 
L 376.886945 289.203269 
L 377.049354 290.809381 
L 377.211762 289.979381 
L 377.536579 291.444876 
L 377.698988 290.677149 
L 378.348622 292.703903 
L 378.673439 292.310297 
L 378.835847 290.419274 
L 378.998255 291.123157 
L 379.160664 287.442 
L 379.323072 289.859826 
L 379.485481 290.610897 
L 379.647889 292.771801 
L 379.810298 292.224951 
L 379.972706 292.210955 
L 380.135115 291.704798 
L 380.297523 292.39053 
L 380.459932 291.637635 
L 380.62234 291.567877 
L 380.784749 291.118236 
L 380.947157 291.89189 
L 381.109566 293.378362 
L 381.271974 293.683441 
L 381.596791 291.215734 
L 381.7592 289.508301 
L 382.084017 291.761076 
L 382.246425 289.829255 
L 382.408834 292.311625 
L 382.571242 292.359735 
L 382.73365 292.531878 
L 382.896059 291.129105 
L 383.058467 292.820861 
L 383.220876 291.616886 
L 383.383284 292.268735 
L 383.545693 292.376411 
L 383.708101 292.926655 
L 383.87051 292.703796 
L 384.032918 292.837177 
L 384.682552 287.092915 
L 384.844961 283.371653 
L 385.007369 286.43894 
L 385.169778 286.050433 
L 385.494595 291.093415 
L 385.657003 286.688652 
L 385.819412 289.806109 
L 386.144228 291.606766 
L 386.306637 293.221605 
L 386.631454 292.206362 
L 386.793862 291.863567 
L 387.118679 293.938421 
L 387.281088 294.206418 
L 387.443496 294.850972 
L 387.605905 294.304682 
L 387.768313 294.336598 
L 387.930722 294.957108 
L 388.255539 294.219877 
L 388.417947 294.31518 
L 388.580356 294.242206 
L 388.742764 294.410476 
L 388.905173 295.416278 
L 389.22999 292.688227 
L 389.392398 289.946162 
L 389.554806 292.033505 
L 389.879623 288.885945 
L 390.20444 293.177231 
L 390.366849 292.851236 
L 390.529257 293.841605 
L 390.691666 294.092644 
L 390.854074 293.630433 
L 391.016483 293.920771 
L 391.178891 293.221851 
L 391.503708 295.093361 
L 391.666117 294.341113 
L 391.828525 294.305367 
L 392.153342 293.061475 
L 392.315751 293.789919 
L 392.478159 289.994284 
L 392.640568 291.709017 
L 392.802976 290.647811 
L 392.965385 292.448494 
L 393.127793 292.643684 
L 393.290201 292.241965 
L 393.45261 292.590429 
L 393.615018 294.036554 
L 393.777427 294.234344 
L 394.102244 295.260632 
L 394.264652 295.20091 
L 394.427061 295.488 
L 394.589469 294.054895 
L 394.751878 293.830444 
L 394.914286 289.594216 
L 395.239103 291.529763 
L 395.401512 291.970588 
L 395.56392 291.870319 
L 395.726329 290.417143 
L 395.888737 290.358122 
L 396.213554 292.307695 
L 396.375963 290.609423 
L 396.700779 291.746682 
L 396.863188 290.565493 
L 397.025596 291.518129 
L 397.188005 291.261898 
L 397.512822 292.168295 
L 397.67523 291.547992 
L 398.000047 293.99284 
L 398.162456 291.184836 
L 398.487273 292.745019 
L 398.487273 292.745019 
" style="fill:none;stroke:#1f77b4;stroke-linecap:square;stroke-width:1.5;"/>
   </g>
   <g id="patch_3">
    <path d="M 57.6 307.584 
L 57.6 41.472 
" style="fill:none;stroke:#000000;stroke-linecap:square;stroke-linejoin:miter;stroke-width:0.8;"/>
   </g>
   <g id="patch_4">
    <path d="M 414.72 307.584 
L 414.72 41.472 
" style="fill:none;stroke:#000000;stroke-linecap:square;stroke-linejoin:miter;stroke-width:0.8;"/>
   </g>
   <g id="patch_5">
    <path d="M 57.6 307.584 
L 414.72 307.584 
" style="fill:none;stroke:#000000;stroke-linecap:square;stroke-linejoin:miter;stroke-width:0.8;"/>
   </g>
   <g id="patch_6">
    <path d="M 57.6 41.472 
L 414.72 41.472 
" style="fill:none;stroke:#000000;stroke-linecap:square;stroke-linejoin:miter;stroke-width:0.8;"/>
   </g>
   <g id="legend_1">
    <g id="patch_7">
     <path d="M 339.08875 64.150125 
L 407.72 64.150125 
Q 409.72 64.150125 409.72 62.150125 
L 409.72 48.472 
Q 409.72 46.472 407.72 46.472 
L 339.08875 46.472 
Q 337.08875 46.472 337.08875 48.472 
L 337.08875 62.150125 
Q 337.08875 64.150125 339.08875 64.150125 
z
" style="fill:#ffffff;opacity:0.8;stroke:#cccccc;stroke-linejoin:miter;"/>
    </g>
    <g id="line2d_46">
     <path d="M 341.08875 54.570438 
L 361.08875 54.570438 
" style="fill:none;stroke:#1f77b4;stroke-linecap:square;stroke-width:1.5;"/>
    </g>
    <g id="line2d_47"/>
    <g id="text_16">
     <!-- No PCA -->
     <defs>
      <path d="M 9.8125 72.90625 
L 23.09375 72.90625 
L 55.421875 11.921875 
L 55.421875 72.90625 
L 64.984375 72.90625 
L 64.984375 0 
L 51.703125 0 
L 19.390625 60.984375 
L 19.390625 0 
L 9.8125 0 
z
" id="DejaVuSans-4e"/>
      <path d="M 19.671875 64.796875 
L 19.671875 37.40625 
L 32.078125 37.40625 
Q 38.96875 37.40625 42.71875 40.96875 
Q 46.484375 44.53125 46.484375 51.125 
Q 46.484375 57.671875 42.71875 61.234375 
Q 38.96875 64.796875 32.078125 64.796875 
z
M 9.8125 72.90625 
L 32.078125 72.90625 
Q 44.34375 72.90625 50.609375 67.359375 
Q 56.890625 61.8125 56.890625 51.125 
Q 56.890625 40.328125 50.609375 34.8125 
Q 44.34375 29.296875 32.078125 29.296875 
L 19.671875 29.296875 
L 19.671875 0 
L 9.8125 0 
z
" id="DejaVuSans-50"/>
      <path d="M 64.40625 67.28125 
L 64.40625 56.890625 
Q 59.421875 61.53125 53.78125 63.8125 
Q 48.140625 66.109375 41.796875 66.109375 
Q 29.296875 66.109375 22.65625 58.46875 
Q 16.015625 50.828125 16.015625 36.375 
Q 16.015625 21.96875 22.65625 14.328125 
Q 29.296875 6.6875 41.796875 6.6875 
Q 48.140625 6.6875 53.78125 8.984375 
Q 59.421875 11.28125 64.40625 15.921875 
L 64.40625 5.609375 
Q 59.234375 2.09375 53.4375 0.328125 
Q 47.65625 -1.421875 41.21875 -1.421875 
Q 24.65625 -1.421875 15.125 8.703125 
Q 5.609375 18.84375 5.609375 36.375 
Q 5.609375 53.953125 15.125 64.078125 
Q 24.65625 74.21875 41.21875 74.21875 
Q 47.75 74.21875 53.53125 72.484375 
Q 59.328125 70.75 64.40625 67.28125 
z
" id="DejaVuSans-43"/>
      <path d="M 34.1875 63.1875 
L 20.796875 26.90625 
L 47.609375 26.90625 
z
M 28.609375 72.90625 
L 39.796875 72.90625 
L 67.578125 0 
L 57.328125 0 
L 50.6875 18.703125 
L 17.828125 18.703125 
L 11.1875 0 
L 0.78125 0 
z
" id="DejaVuSans-41"/>
     </defs>
     <g transform="translate(369.08875 58.070438)scale(0.1 -0.1)">
      <use xlink:href="#DejaVuSans-4e"/>
      <use x="74.804688" xlink:href="#DejaVuSans-6f"/>
      <use x="135.986328" xlink:href="#DejaVuSans-20"/>
      <use x="167.773438" xlink:href="#DejaVuSans-50"/>
      <use x="228.076172" xlink:href="#DejaVuSans-43"/>
      <use x="297.900391" xlink:href="#DejaVuSans-41"/>
     </g>
    </g>
   </g>
  </g>
 </g>
 <defs>
  <clipPath id="p33bf554018">
   <rect height="266.112" width="357.12" x="57.6" y="41.472"/>
  </clipPath>
 </defs>
</svg>
