<?xml version="1.0" encoding="utf-8" standalone="no"?>
<!DOCTYPE svg PUBLIC "-//W3C//DTD SVG 1.1//EN"
  "http://www.w3.org/Graphics/SVG/1.1/DTD/svg11.dtd">
<!-- Created with matplotlib (http://matplotlib.org/) -->
<svg height="345pt" version="1.1" viewBox="0 0 460 345" width="460pt" xmlns="http://www.w3.org/2000/svg" xmlns:xlink="http://www.w3.org/1999/xlink">
 <defs>
  <style type="text/css">
*{stroke-linecap:butt;stroke-linejoin:round;}
  </style>
 </defs>
 <g id="figure_1">
  <g id="patch_1">
   <path d="M 0 345.6 
L 460.8 345.6 
L 460.8 0 
L 0 0 
z
" style="fill:#ffffff;"/>
  </g>
  <g id="axes_1">
   <g id="patch_2">
    <path d="M 57.6 307.584 
L 414.72 307.584 
L 414.72 41.472 
L 57.6 41.472 
z
" style="fill:#ffffff;"/>
   </g>
   <g id="matplotlib.axis_1">
    <g id="xtick_1">
     <g id="line2d_1">
      <defs>
       <path d="M 0 0 
L 0 3.5 
" id="mb4e9b89cd2" style="stroke:#000000;stroke-width:0.8;"/>
      </defs>
      <g>
       <use style="stroke:#000000;stroke-width:0.8;" x="73.832727" xlink:href="#mb4e9b89cd2" y="307.584"/>
      </g>
     </g>
     <g id="text_1">
      <!-- 0 -->
      <defs>
       <path d="M 31.78125 66.40625 
Q 24.171875 66.40625 20.328125 58.90625 
Q 16.5 51.421875 16.5 36.375 
Q 16.5 21.390625 20.328125 13.890625 
Q 24.171875 6.390625 31.78125 6.390625 
Q 39.453125 6.390625 43.28125 13.890625 
Q 47.125 21.390625 47.125 36.375 
Q 47.125 51.421875 43.28125 58.90625 
Q 39.453125 66.40625 31.78125 66.40625 
z
M 31.78125 74.21875 
Q 44.046875 74.21875 50.515625 64.515625 
Q 56.984375 54.828125 56.984375 36.375 
Q 56.984375 17.96875 50.515625 8.265625 
Q 44.046875 -1.421875 31.78125 -1.421875 
Q 19.53125 -1.421875 13.0625 8.265625 
Q 6.59375 17.96875 6.59375 36.375 
Q 6.59375 54.828125 13.0625 64.515625 
Q 19.53125 74.21875 31.78125 74.21875 
z
" id="DejaVuSans-30"/>
      </defs>
      <g transform="translate(70.651477 322.182437)scale(0.1 -0.1)">
       <use xlink:href="#DejaVuSans-30"/>
      </g>
     </g>
    </g>
    <g id="xtick_2">
     <g id="line2d_2">
      <g>
       <use style="stroke:#000000;stroke-width:0.8;" x="138.828632" xlink:href="#mb4e9b89cd2" y="307.584"/>
      </g>
     </g>
     <g id="text_2">
      <!-- 200 -->
      <defs>
       <path d="M 19.1875 8.296875 
L 53.609375 8.296875 
L 53.609375 0 
L 7.328125 0 
L 7.328125 8.296875 
Q 12.9375 14.109375 22.625 23.890625 
Q 32.328125 33.6875 34.8125 36.53125 
Q 39.546875 41.84375 41.421875 45.53125 
Q 43.3125 49.21875 43.3125 52.78125 
Q 43.3125 58.59375 39.234375 62.25 
Q 35.15625 65.921875 28.609375 65.921875 
Q 23.96875 65.921875 18.8125 64.3125 
Q 13.671875 62.703125 7.8125 59.421875 
L 7.8125 69.390625 
Q 13.765625 71.78125 18.9375 73 
Q 24.125 74.21875 28.421875 74.21875 
Q 39.75 74.21875 46.484375 68.546875 
Q 53.21875 62.890625 53.21875 53.421875 
Q 53.21875 48.921875 51.53125 44.890625 
Q 49.859375 40.875 45.40625 35.40625 
Q 44.1875 33.984375 37.640625 27.21875 
Q 31.109375 20.453125 19.1875 8.296875 
z
" id="DejaVuSans-32"/>
      </defs>
      <g transform="translate(129.284882 322.182437)scale(0.1 -0.1)">
       <use xlink:href="#DejaVuSans-32"/>
       <use x="63.623047" xlink:href="#DejaVuSans-30"/>
       <use x="127.246094" xlink:href="#DejaVuSans-30"/>
      </g>
     </g>
    </g>
    <g id="xtick_3">
     <g id="line2d_3">
      <g>
       <use style="stroke:#000000;stroke-width:0.8;" x="203.824537" xlink:href="#mb4e9b89cd2" y="307.584"/>
      </g>
     </g>
     <g id="text_3">
      <!-- 400 -->
      <defs>
       <path d="M 37.796875 64.3125 
L 12.890625 25.390625 
L 37.796875 25.390625 
z
M 35.203125 72.90625 
L 47.609375 72.90625 
L 47.609375 25.390625 
L 58.015625 25.390625 
L 58.015625 17.1875 
L 47.609375 17.1875 
L 47.609375 0 
L 37.796875 0 
L 37.796875 17.1875 
L 4.890625 17.1875 
L 4.890625 26.703125 
z
" id="DejaVuSans-34"/>
      </defs>
      <g transform="translate(194.280787 322.182437)scale(0.1 -0.1)">
       <use xlink:href="#DejaVuSans-34"/>
       <use x="63.623047" xlink:href="#DejaVuSans-30"/>
       <use x="127.246094" xlink:href="#DejaVuSans-30"/>
      </g>
     </g>
    </g>
    <g id="xtick_4">
     <g id="line2d_4">
      <g>
       <use style="stroke:#000000;stroke-width:0.8;" x="268.820442" xlink:href="#mb4e9b89cd2" y="307.584"/>
      </g>
     </g>
     <g id="text_4">
      <!-- 600 -->
      <defs>
       <path d="M 33.015625 40.375 
Q 26.375 40.375 22.484375 35.828125 
Q 18.609375 31.296875 18.609375 23.390625 
Q 18.609375 15.53125 22.484375 10.953125 
Q 26.375 6.390625 33.015625 6.390625 
Q 39.65625 6.390625 43.53125 10.953125 
Q 47.40625 15.53125 47.40625 23.390625 
Q 47.40625 31.296875 43.53125 35.828125 
Q 39.65625 40.375 33.015625 40.375 
z
M 52.59375 71.296875 
L 52.59375 62.3125 
Q 48.875 64.0625 45.09375 64.984375 
Q 41.3125 65.921875 37.59375 65.921875 
Q 27.828125 65.921875 22.671875 59.328125 
Q 17.53125 52.734375 16.796875 39.40625 
Q 19.671875 43.65625 24.015625 45.921875 
Q 28.375 48.1875 33.59375 48.1875 
Q 44.578125 48.1875 50.953125 41.515625 
Q 57.328125 34.859375 57.328125 23.390625 
Q 57.328125 12.15625 50.6875 5.359375 
Q 44.046875 -1.421875 33.015625 -1.421875 
Q 20.359375 -1.421875 13.671875 8.265625 
Q 6.984375 17.96875 6.984375 36.375 
Q 6.984375 53.65625 15.1875 63.9375 
Q 23.390625 74.21875 37.203125 74.21875 
Q 40.921875 74.21875 44.703125 73.484375 
Q 48.484375 72.75 52.59375 71.296875 
z
" id="DejaVuSans-36"/>
      </defs>
      <g transform="translate(259.276692 322.182437)scale(0.1 -0.1)">
       <use xlink:href="#DejaVuSans-36"/>
       <use x="63.623047" xlink:href="#DejaVuSans-30"/>
       <use x="127.246094" xlink:href="#DejaVuSans-30"/>
      </g>
     </g>
    </g>
    <g id="xtick_5">
     <g id="line2d_5">
      <g>
       <use style="stroke:#000000;stroke-width:0.8;" x="333.816347" xlink:href="#mb4e9b89cd2" y="307.584"/>
      </g>
     </g>
     <g id="text_5">
      <!-- 800 -->
      <defs>
       <path d="M 31.78125 34.625 
Q 24.75 34.625 20.71875 30.859375 
Q 16.703125 27.09375 16.703125 20.515625 
Q 16.703125 13.921875 20.71875 10.15625 
Q 24.75 6.390625 31.78125 6.390625 
Q 38.8125 6.390625 42.859375 10.171875 
Q 46.921875 13.96875 46.921875 20.515625 
Q 46.921875 27.09375 42.890625 30.859375 
Q 38.875 34.625 31.78125 34.625 
z
M 21.921875 38.8125 
Q 15.578125 40.375 12.03125 44.71875 
Q 8.5 49.078125 8.5 55.328125 
Q 8.5 64.0625 14.71875 69.140625 
Q 20.953125 74.21875 31.78125 74.21875 
Q 42.671875 74.21875 48.875 69.140625 
Q 55.078125 64.0625 55.078125 55.328125 
Q 55.078125 49.078125 51.53125 44.71875 
Q 48 40.375 41.703125 38.8125 
Q 48.828125 37.15625 52.796875 32.3125 
Q 56.78125 27.484375 56.78125 20.515625 
Q 56.78125 9.90625 50.3125 4.234375 
Q 43.84375 -1.421875 31.78125 -1.421875 
Q 19.734375 -1.421875 13.25 4.234375 
Q 6.78125 9.90625 6.78125 20.515625 
Q 6.78125 27.484375 10.78125 32.3125 
Q 14.796875 37.15625 21.921875 38.8125 
z
M 18.3125 54.390625 
Q 18.3125 48.734375 21.84375 45.5625 
Q 25.390625 42.390625 31.78125 42.390625 
Q 38.140625 42.390625 41.71875 45.5625 
Q 45.3125 48.734375 45.3125 54.390625 
Q 45.3125 60.0625 41.71875 63.234375 
Q 38.140625 66.40625 31.78125 66.40625 
Q 25.390625 66.40625 21.84375 63.234375 
Q 18.3125 60.0625 18.3125 54.390625 
z
" id="DejaVuSans-38"/>
      </defs>
      <g transform="translate(324.272597 322.182437)scale(0.1 -0.1)">
       <use xlink:href="#DejaVuSans-38"/>
       <use x="63.623047" xlink:href="#DejaVuSans-30"/>
       <use x="127.246094" xlink:href="#DejaVuSans-30"/>
      </g>
     </g>
    </g>
    <g id="xtick_6">
     <g id="line2d_6">
      <g>
       <use style="stroke:#000000;stroke-width:0.8;" x="398.812252" xlink:href="#mb4e9b89cd2" y="307.584"/>
      </g>
     </g>
     <g id="text_6">
      <!-- 1000 -->
      <defs>
       <path d="M 12.40625 8.296875 
L 28.515625 8.296875 
L 28.515625 63.921875 
L 10.984375 60.40625 
L 10.984375 69.390625 
L 28.421875 72.90625 
L 38.28125 72.90625 
L 38.28125 8.296875 
L 54.390625 8.296875 
L 54.390625 0 
L 12.40625 0 
z
" id="DejaVuSans-31"/>
      </defs>
      <g transform="translate(386.087252 322.182437)scale(0.1 -0.1)">
       <use xlink:href="#DejaVuSans-31"/>
       <use x="63.623047" xlink:href="#DejaVuSans-30"/>
       <use x="127.246094" xlink:href="#DejaVuSans-30"/>
       <use x="190.869141" xlink:href="#DejaVuSans-30"/>
      </g>
     </g>
    </g>
    <g id="text_7">
     <!-- Epoch -->
     <defs>
      <path d="M 9.8125 72.90625 
L 55.90625 72.90625 
L 55.90625 64.59375 
L 19.671875 64.59375 
L 19.671875 43.015625 
L 54.390625 43.015625 
L 54.390625 34.71875 
L 19.671875 34.71875 
L 19.671875 8.296875 
L 56.78125 8.296875 
L 56.78125 0 
L 9.8125 0 
z
" id="DejaVuSans-45"/>
      <path d="M 18.109375 8.203125 
L 18.109375 -20.796875 
L 9.078125 -20.796875 
L 9.078125 54.6875 
L 18.109375 54.6875 
L 18.109375 46.390625 
Q 20.953125 51.265625 25.265625 53.625 
Q 29.59375 56 35.59375 56 
Q 45.5625 56 51.78125 48.09375 
Q 58.015625 40.1875 58.015625 27.296875 
Q 58.015625 14.40625 51.78125 6.484375 
Q 45.5625 -1.421875 35.59375 -1.421875 
Q 29.59375 -1.421875 25.265625 0.953125 
Q 20.953125 3.328125 18.109375 8.203125 
z
M 48.6875 27.296875 
Q 48.6875 37.203125 44.609375 42.84375 
Q 40.53125 48.484375 33.40625 48.484375 
Q 26.265625 48.484375 22.1875 42.84375 
Q 18.109375 37.203125 18.109375 27.296875 
Q 18.109375 17.390625 22.1875 11.75 
Q 26.265625 6.109375 33.40625 6.109375 
Q 40.53125 6.109375 44.609375 11.75 
Q 48.6875 17.390625 48.6875 27.296875 
z
" id="DejaVuSans-70"/>
      <path d="M 30.609375 48.390625 
Q 23.390625 48.390625 19.1875 42.75 
Q 14.984375 37.109375 14.984375 27.296875 
Q 14.984375 17.484375 19.15625 11.84375 
Q 23.34375 6.203125 30.609375 6.203125 
Q 37.796875 6.203125 41.984375 11.859375 
Q 46.1875 17.53125 46.1875 27.296875 
Q 46.1875 37.015625 41.984375 42.703125 
Q 37.796875 48.390625 30.609375 48.390625 
z
M 30.609375 56 
Q 42.328125 56 49.015625 48.375 
Q 55.71875 40.765625 55.71875 27.296875 
Q 55.71875 13.875 49.015625 6.21875 
Q 42.328125 -1.421875 30.609375 -1.421875 
Q 18.84375 -1.421875 12.171875 6.21875 
Q 5.515625 13.875 5.515625 27.296875 
Q 5.515625 40.765625 12.171875 48.375 
Q 18.84375 56 30.609375 56 
z
" id="DejaVuSans-6f"/>
      <path d="M 48.78125 52.59375 
L 48.78125 44.1875 
Q 44.96875 46.296875 41.140625 47.34375 
Q 37.3125 48.390625 33.40625 48.390625 
Q 24.65625 48.390625 19.8125 42.84375 
Q 14.984375 37.3125 14.984375 27.296875 
Q 14.984375 17.28125 19.8125 11.734375 
Q 24.65625 6.203125 33.40625 6.203125 
Q 37.3125 6.203125 41.140625 7.25 
Q 44.96875 8.296875 48.78125 10.40625 
L 48.78125 2.09375 
Q 45.015625 0.34375 40.984375 -0.53125 
Q 36.96875 -1.421875 32.421875 -1.421875 
Q 20.0625 -1.421875 12.78125 6.34375 
Q 5.515625 14.109375 5.515625 27.296875 
Q 5.515625 40.671875 12.859375 48.328125 
Q 20.21875 56 33.015625 56 
Q 37.15625 56 41.109375 55.140625 
Q 45.0625 54.296875 48.78125 52.59375 
z
" id="DejaVuSans-63"/>
      <path d="M 54.890625 33.015625 
L 54.890625 0 
L 45.90625 0 
L 45.90625 32.71875 
Q 45.90625 40.484375 42.875 44.328125 
Q 39.84375 48.1875 33.796875 48.1875 
Q 26.515625 48.1875 22.3125 43.546875 
Q 18.109375 38.921875 18.109375 30.90625 
L 18.109375 0 
L 9.078125 0 
L 9.078125 75.984375 
L 18.109375 75.984375 
L 18.109375 46.1875 
Q 21.34375 51.125 25.703125 53.5625 
Q 30.078125 56 35.796875 56 
Q 45.21875 56 50.046875 50.171875 
Q 54.890625 44.34375 54.890625 33.015625 
z
" id="DejaVuSans-68"/>
     </defs>
     <g transform="translate(220.849063 335.860562)scale(0.1 -0.1)">
      <use xlink:href="#DejaVuSans-45"/>
      <use x="63.183594" xlink:href="#DejaVuSans-70"/>
      <use x="126.660156" xlink:href="#DejaVuSans-6f"/>
      <use x="187.841797" xlink:href="#DejaVuSans-63"/>
      <use x="242.822266" xlink:href="#DejaVuSans-68"/>
     </g>
    </g>
   </g>
   <g id="matplotlib.axis_2">
    <g id="ytick_1">
     <g id="line2d_7">
      <defs>
       <path d="M 0 0 
L -3.5 0 
" id="mc3fea19d84" style="stroke:#000000;stroke-width:0.8;"/>
      </defs>
      <g>
       <use style="stroke:#000000;stroke-width:0.8;" x="57.6" xlink:href="#mc3fea19d84" y="258.168042"/>
      </g>
     </g>
     <g id="text_8">
      <!-- $\mathdefault{10^{-3}}$ -->
      <defs>
       <path d="M 10.59375 35.5 
L 73.1875 35.5 
L 73.1875 27.203125 
L 10.59375 27.203125 
z
" id="DejaVuSans-2212"/>
       <path d="M 40.578125 39.3125 
Q 47.65625 37.796875 51.625 33 
Q 55.609375 28.21875 55.609375 21.1875 
Q 55.609375 10.40625 48.1875 4.484375 
Q 40.765625 -1.421875 27.09375 -1.421875 
Q 22.515625 -1.421875 17.65625 -0.515625 
Q 12.796875 0.390625 7.625 2.203125 
L 7.625 11.71875 
Q 11.71875 9.328125 16.59375 8.109375 
Q 21.484375 6.890625 26.8125 6.890625 
Q 36.078125 6.890625 40.9375 10.546875 
Q 45.796875 14.203125 45.796875 21.1875 
Q 45.796875 27.640625 41.28125 31.265625 
Q 36.765625 34.90625 28.71875 34.90625 
L 20.21875 34.90625 
L 20.21875 43.015625 
L 29.109375 43.015625 
Q 36.375 43.015625 40.234375 45.921875 
Q 44.09375 48.828125 44.09375 54.296875 
Q 44.09375 59.90625 40.109375 62.90625 
Q 36.140625 65.921875 28.71875 65.921875 
Q 24.65625 65.921875 20.015625 65.03125 
Q 15.375 64.15625 9.8125 62.3125 
L 9.8125 71.09375 
Q 15.4375 72.65625 20.34375 73.4375 
Q 25.25 74.21875 29.59375 74.21875 
Q 40.828125 74.21875 47.359375 69.109375 
Q 53.90625 64.015625 53.90625 55.328125 
Q 53.90625 49.265625 50.4375 45.09375 
Q 46.96875 40.921875 40.578125 39.3125 
z
" id="DejaVuSans-33"/>
      </defs>
      <g transform="translate(27.1 261.967261)scale(0.1 -0.1)">
       <use transform="translate(0 0.765625)" xlink:href="#DejaVuSans-31"/>
       <use transform="translate(63.623047 0.765625)" xlink:href="#DejaVuSans-30"/>
       <use transform="translate(128.203125 39.046875)scale(0.7)" xlink:href="#DejaVuSans-2212"/>
       <use transform="translate(186.855469 39.046875)scale(0.7)" xlink:href="#DejaVuSans-33"/>
      </g>
     </g>
    </g>
    <g id="ytick_2">
     <g id="line2d_8">
      <g>
       <use style="stroke:#000000;stroke-width:0.8;" x="57.6" xlink:href="#mc3fea19d84" y="192.146142"/>
      </g>
     </g>
     <g id="text_9">
      <!-- $\mathdefault{10^{-2}}$ -->
      <g transform="translate(27.1 195.945361)scale(0.1 -0.1)">
       <use transform="translate(0 0.765625)" xlink:href="#DejaVuSans-31"/>
       <use transform="translate(63.623047 0.765625)" xlink:href="#DejaVuSans-30"/>
       <use transform="translate(128.203125 39.046875)scale(0.7)" xlink:href="#DejaVuSans-2212"/>
       <use transform="translate(186.855469 39.046875)scale(0.7)" xlink:href="#DejaVuSans-32"/>
      </g>
     </g>
    </g>
    <g id="ytick_3">
     <g id="line2d_9">
      <g>
       <use style="stroke:#000000;stroke-width:0.8;" x="57.6" xlink:href="#mc3fea19d84" y="126.124242"/>
      </g>
     </g>
     <g id="text_10">
      <!-- $\mathdefault{10^{-1}}$ -->
      <g transform="translate(27.1 129.923461)scale(0.1 -0.1)">
       <use transform="translate(0 0.684375)" xlink:href="#DejaVuSans-31"/>
       <use transform="translate(63.623047 0.684375)" xlink:href="#DejaVuSans-30"/>
       <use transform="translate(128.203125 38.965625)scale(0.7)" xlink:href="#DejaVuSans-2212"/>
       <use transform="translate(186.855469 38.965625)scale(0.7)" xlink:href="#DejaVuSans-31"/>
      </g>
     </g>
    </g>
    <g id="ytick_4">
     <g id="line2d_10">
      <g>
       <use style="stroke:#000000;stroke-width:0.8;" x="57.6" xlink:href="#mc3fea19d84" y="60.102342"/>
      </g>
     </g>
     <g id="text_11">
      <!-- $\mathdefault{10^{0}}$ -->
      <g transform="translate(33 63.901561)scale(0.1 -0.1)">
       <use transform="translate(0 0.765625)" xlink:href="#DejaVuSans-31"/>
       <use transform="translate(63.623047 0.765625)" xlink:href="#DejaVuSans-30"/>
       <use transform="translate(128.203125 39.046875)scale(0.7)" xlink:href="#DejaVuSans-30"/>
      </g>
     </g>
    </g>
    <g id="ytick_5">
     <g id="line2d_11">
      <defs>
       <path d="M 0 0 
L -2 0 
" id="m26ea473fa4" style="stroke:#000000;stroke-width:0.6;"/>
      </defs>
      <g>
       <use style="stroke:#000000;stroke-width:0.6;" x="57.6" xlink:href="#m26ea473fa4" y="304.315369"/>
      </g>
     </g>
    </g>
    <g id="ytick_6">
     <g id="line2d_12">
      <g>
       <use style="stroke:#000000;stroke-width:0.6;" x="57.6" xlink:href="#m26ea473fa4" y="292.68949"/>
      </g>
     </g>
    </g>
    <g id="ytick_7">
     <g id="line2d_13">
      <g>
       <use style="stroke:#000000;stroke-width:0.6;" x="57.6" xlink:href="#m26ea473fa4" y="284.440797"/>
      </g>
     </g>
    </g>
    <g id="ytick_8">
     <g id="line2d_14">
      <g>
       <use style="stroke:#000000;stroke-width:0.6;" x="57.6" xlink:href="#m26ea473fa4" y="278.042614"/>
      </g>
     </g>
    </g>
    <g id="ytick_9">
     <g id="line2d_15">
      <g>
       <use style="stroke:#000000;stroke-width:0.6;" x="57.6" xlink:href="#m26ea473fa4" y="272.814918"/>
      </g>
     </g>
    </g>
    <g id="ytick_10">
     <g id="line2d_16">
      <g>
       <use style="stroke:#000000;stroke-width:0.6;" x="57.6" xlink:href="#m26ea473fa4" y="268.394963"/>
      </g>
     </g>
    </g>
    <g id="ytick_11">
     <g id="line2d_17">
      <g>
       <use style="stroke:#000000;stroke-width:0.6;" x="57.6" xlink:href="#m26ea473fa4" y="264.566225"/>
      </g>
     </g>
    </g>
    <g id="ytick_12">
     <g id="line2d_18">
      <g>
       <use style="stroke:#000000;stroke-width:0.6;" x="57.6" xlink:href="#m26ea473fa4" y="261.189038"/>
      </g>
     </g>
    </g>
    <g id="ytick_13">
     <g id="line2d_19">
      <g>
       <use style="stroke:#000000;stroke-width:0.6;" x="57.6" xlink:href="#m26ea473fa4" y="238.29347"/>
      </g>
     </g>
    </g>
    <g id="ytick_14">
     <g id="line2d_20">
      <g>
       <use style="stroke:#000000;stroke-width:0.6;" x="57.6" xlink:href="#m26ea473fa4" y="226.66759"/>
      </g>
     </g>
    </g>
    <g id="ytick_15">
     <g id="line2d_21">
      <g>
       <use style="stroke:#000000;stroke-width:0.6;" x="57.6" xlink:href="#m26ea473fa4" y="218.418897"/>
      </g>
     </g>
    </g>
    <g id="ytick_16">
     <g id="line2d_22">
      <g>
       <use style="stroke:#000000;stroke-width:0.6;" x="57.6" xlink:href="#m26ea473fa4" y="212.020714"/>
      </g>
     </g>
    </g>
    <g id="ytick_17">
     <g id="line2d_23">
      <g>
       <use style="stroke:#000000;stroke-width:0.6;" x="57.6" xlink:href="#m26ea473fa4" y="206.793018"/>
      </g>
     </g>
    </g>
    <g id="ytick_18">
     <g id="line2d_24">
      <g>
       <use style="stroke:#000000;stroke-width:0.6;" x="57.6" xlink:href="#m26ea473fa4" y="202.373064"/>
      </g>
     </g>
    </g>
    <g id="ytick_19">
     <g id="line2d_25">
      <g>
       <use style="stroke:#000000;stroke-width:0.6;" x="57.6" xlink:href="#m26ea473fa4" y="198.544325"/>
      </g>
     </g>
    </g>
    <g id="ytick_20">
     <g id="line2d_26">
      <g>
       <use style="stroke:#000000;stroke-width:0.6;" x="57.6" xlink:href="#m26ea473fa4" y="195.167138"/>
      </g>
     </g>
    </g>
    <g id="ytick_21">
     <g id="line2d_27">
      <g>
       <use style="stroke:#000000;stroke-width:0.6;" x="57.6" xlink:href="#m26ea473fa4" y="172.27157"/>
      </g>
     </g>
    </g>
    <g id="ytick_22">
     <g id="line2d_28">
      <g>
       <use style="stroke:#000000;stroke-width:0.6;" x="57.6" xlink:href="#m26ea473fa4" y="160.64569"/>
      </g>
     </g>
    </g>
    <g id="ytick_23">
     <g id="line2d_29">
      <g>
       <use style="stroke:#000000;stroke-width:0.6;" x="57.6" xlink:href="#m26ea473fa4" y="152.396997"/>
      </g>
     </g>
    </g>
    <g id="ytick_24">
     <g id="line2d_30">
      <g>
       <use style="stroke:#000000;stroke-width:0.6;" x="57.6" xlink:href="#m26ea473fa4" y="145.998814"/>
      </g>
     </g>
    </g>
    <g id="ytick_25">
     <g id="line2d_31">
      <g>
       <use style="stroke:#000000;stroke-width:0.6;" x="57.6" xlink:href="#m26ea473fa4" y="140.771118"/>
      </g>
     </g>
    </g>
    <g id="ytick_26">
     <g id="line2d_32">
      <g>
       <use style="stroke:#000000;stroke-width:0.6;" x="57.6" xlink:href="#m26ea473fa4" y="136.351164"/>
      </g>
     </g>
    </g>
    <g id="ytick_27">
     <g id="line2d_33">
      <g>
       <use style="stroke:#000000;stroke-width:0.6;" x="57.6" xlink:href="#m26ea473fa4" y="132.522425"/>
      </g>
     </g>
    </g>
    <g id="ytick_28">
     <g id="line2d_34">
      <g>
       <use style="stroke:#000000;stroke-width:0.6;" x="57.6" xlink:href="#m26ea473fa4" y="129.145238"/>
      </g>
     </g>
    </g>
    <g id="ytick_29">
     <g id="line2d_35">
      <g>
       <use style="stroke:#000000;stroke-width:0.6;" x="57.6" xlink:href="#m26ea473fa4" y="106.24967"/>
      </g>
     </g>
    </g>
    <g id="ytick_30">
     <g id="line2d_36">
      <g>
       <use style="stroke:#000000;stroke-width:0.6;" x="57.6" xlink:href="#m26ea473fa4" y="94.62379"/>
      </g>
     </g>
    </g>
    <g id="ytick_31">
     <g id="line2d_37">
      <g>
       <use style="stroke:#000000;stroke-width:0.6;" x="57.6" xlink:href="#m26ea473fa4" y="86.375097"/>
      </g>
     </g>
    </g>
    <g id="ytick_32">
     <g id="line2d_38">
      <g>
       <use style="stroke:#000000;stroke-width:0.6;" x="57.6" xlink:href="#m26ea473fa4" y="79.976914"/>
      </g>
     </g>
    </g>
    <g id="ytick_33">
     <g id="line2d_39">
      <g>
       <use style="stroke:#000000;stroke-width:0.6;" x="57.6" xlink:href="#m26ea473fa4" y="74.749218"/>
      </g>
     </g>
    </g>
    <g id="ytick_34">
     <g id="line2d_40">
      <g>
       <use style="stroke:#000000;stroke-width:0.6;" x="57.6" xlink:href="#m26ea473fa4" y="70.329264"/>
      </g>
     </g>
    </g>
    <g id="ytick_35">
     <g id="line2d_41">
      <g>
       <use style="stroke:#000000;stroke-width:0.6;" x="57.6" xlink:href="#m26ea473fa4" y="66.500525"/>
      </g>
     </g>
    </g>
    <g id="ytick_36">
     <g id="line2d_42">
      <g>
       <use style="stroke:#000000;stroke-width:0.6;" x="57.6" xlink:href="#m26ea473fa4" y="63.123338"/>
      </g>
     </g>
    </g>
    <g id="text_12">
     <!-- Full Space MSE -->
     <defs>
      <path d="M 9.8125 72.90625 
L 51.703125 72.90625 
L 51.703125 64.59375 
L 19.671875 64.59375 
L 19.671875 43.109375 
L 48.578125 43.109375 
L 48.578125 34.8125 
L 19.671875 34.8125 
L 19.671875 0 
L 9.8125 0 
z
" id="DejaVuSans-46"/>
      <path d="M 8.5 21.578125 
L 8.5 54.6875 
L 17.484375 54.6875 
L 17.484375 21.921875 
Q 17.484375 14.15625 20.5 10.265625 
Q 23.53125 6.390625 29.59375 6.390625 
Q 36.859375 6.390625 41.078125 11.03125 
Q 45.3125 15.671875 45.3125 23.6875 
L 45.3125 54.6875 
L 54.296875 54.6875 
L 54.296875 0 
L 45.3125 0 
L 45.3125 8.40625 
Q 42.046875 3.421875 37.71875 1 
Q 33.40625 -1.421875 27.6875 -1.421875 
Q 18.265625 -1.421875 13.375 4.4375 
Q 8.5 10.296875 8.5 21.578125 
z
M 31.109375 56 
z
" id="DejaVuSans-75"/>
      <path d="M 9.421875 75.984375 
L 18.40625 75.984375 
L 18.40625 0 
L 9.421875 0 
z
" id="DejaVuSans-6c"/>
      <path id="DejaVuSans-20"/>
      <path d="M 53.515625 70.515625 
L 53.515625 60.890625 
Q 47.90625 63.578125 42.921875 64.890625 
Q 37.9375 66.21875 33.296875 66.21875 
Q 25.25 66.21875 20.875 63.09375 
Q 16.5 59.96875 16.5 54.203125 
Q 16.5 49.359375 19.40625 46.890625 
Q 22.3125 44.4375 30.421875 42.921875 
L 36.375 41.703125 
Q 47.40625 39.59375 52.65625 34.296875 
Q 57.90625 29 57.90625 20.125 
Q 57.90625 9.515625 50.796875 4.046875 
Q 43.703125 -1.421875 29.984375 -1.421875 
Q 24.8125 -1.421875 18.96875 -0.25 
Q 13.140625 0.921875 6.890625 3.21875 
L 6.890625 13.375 
Q 12.890625 10.015625 18.65625 8.296875 
Q 24.421875 6.59375 29.984375 6.59375 
Q 38.421875 6.59375 43.015625 9.90625 
Q 47.609375 13.234375 47.609375 19.390625 
Q 47.609375 24.75 44.3125 27.78125 
Q 41.015625 30.8125 33.5 32.328125 
L 27.484375 33.5 
Q 16.453125 35.6875 11.515625 40.375 
Q 6.59375 45.0625 6.59375 53.421875 
Q 6.59375 63.09375 13.40625 68.65625 
Q 20.21875 74.21875 32.171875 74.21875 
Q 37.3125 74.21875 42.625 73.28125 
Q 47.953125 72.359375 53.515625 70.515625 
z
" id="DejaVuSans-53"/>
      <path d="M 34.28125 27.484375 
Q 23.390625 27.484375 19.1875 25 
Q 14.984375 22.515625 14.984375 16.5 
Q 14.984375 11.71875 18.140625 8.90625 
Q 21.296875 6.109375 26.703125 6.109375 
Q 34.1875 6.109375 38.703125 11.40625 
Q 43.21875 16.703125 43.21875 25.484375 
L 43.21875 27.484375 
z
M 52.203125 31.203125 
L 52.203125 0 
L 43.21875 0 
L 43.21875 8.296875 
Q 40.140625 3.328125 35.546875 0.953125 
Q 30.953125 -1.421875 24.3125 -1.421875 
Q 15.921875 -1.421875 10.953125 3.296875 
Q 6 8.015625 6 15.921875 
Q 6 25.140625 12.171875 29.828125 
Q 18.359375 34.515625 30.609375 34.515625 
L 43.21875 34.515625 
L 43.21875 35.40625 
Q 43.21875 41.609375 39.140625 45 
Q 35.0625 48.390625 27.6875 48.390625 
Q 23 48.390625 18.546875 47.265625 
Q 14.109375 46.140625 10.015625 43.890625 
L 10.015625 52.203125 
Q 14.9375 54.109375 19.578125 55.046875 
Q 24.21875 56 28.609375 56 
Q 40.484375 56 46.34375 49.84375 
Q 52.203125 43.703125 52.203125 31.203125 
z
" id="DejaVuSans-61"/>
      <path d="M 56.203125 29.59375 
L 56.203125 25.203125 
L 14.890625 25.203125 
Q 15.484375 15.921875 20.484375 11.0625 
Q 25.484375 6.203125 34.421875 6.203125 
Q 39.59375 6.203125 44.453125 7.46875 
Q 49.3125 8.734375 54.109375 11.28125 
L 54.109375 2.78125 
Q 49.265625 0.734375 44.1875 -0.34375 
Q 39.109375 -1.421875 33.890625 -1.421875 
Q 20.796875 -1.421875 13.15625 6.1875 
Q 5.515625 13.8125 5.515625 26.8125 
Q 5.515625 40.234375 12.765625 48.109375 
Q 20.015625 56 32.328125 56 
Q 43.359375 56 49.78125 48.890625 
Q 56.203125 41.796875 56.203125 29.59375 
z
M 47.21875 32.234375 
Q 47.125 39.59375 43.09375 43.984375 
Q 39.0625 48.390625 32.421875 48.390625 
Q 24.90625 48.390625 20.390625 44.140625 
Q 15.875 39.890625 15.1875 32.171875 
z
" id="DejaVuSans-65"/>
      <path d="M 9.8125 72.90625 
L 24.515625 72.90625 
L 43.109375 23.296875 
L 61.8125 72.90625 
L 76.515625 72.90625 
L 76.515625 0 
L 66.890625 0 
L 66.890625 64.015625 
L 48.09375 14.015625 
L 38.1875 14.015625 
L 19.390625 64.015625 
L 19.390625 0 
L 9.8125 0 
z
" id="DejaVuSans-4d"/>
     </defs>
     <g transform="translate(21.020312 212.410812)rotate(-90)scale(0.1 -0.1)">
      <use xlink:href="#DejaVuSans-46"/>
      <use x="57.441406" xlink:href="#DejaVuSans-75"/>
      <use x="120.820312" xlink:href="#DejaVuSans-6c"/>
      <use x="148.603516" xlink:href="#DejaVuSans-6c"/>
      <use x="176.386719" xlink:href="#DejaVuSans-20"/>
      <use x="208.173828" xlink:href="#DejaVuSans-53"/>
      <use x="271.650391" xlink:href="#DejaVuSans-70"/>
      <use x="335.126953" xlink:href="#DejaVuSans-61"/>
      <use x="396.40625" xlink:href="#DejaVuSans-63"/>
      <use x="451.386719" xlink:href="#DejaVuSans-65"/>
      <use x="512.910156" xlink:href="#DejaVuSans-20"/>
      <use x="544.697266" xlink:href="#DejaVuSans-4d"/>
      <use x="630.976562" xlink:href="#DejaVuSans-53"/>
      <use x="694.453125" xlink:href="#DejaVuSans-45"/>
     </g>
    </g>
   </g>
   <g id="line2d_43">
    <path clip-path="url(#p919f2ed0b3)" d="M 73.832727 53.568 
L 74.157707 54.685458 
L 74.482686 56.499845 
L 75.132645 62.222742 
L 75.782604 71.024008 
L 76.432563 82.279972 
L 77.732482 109.269811 
L 79.357379 143.34445 
L 80.657297 162.073402 
L 80.982277 162.294152 
L 81.632236 168.15949 
L 81.957215 168.956215 
L 82.607174 174.689533 
L 82.932154 171.563085 
L 83.257133 177.497079 
L 83.582113 174.787858 
L 83.907093 174.152793 
L 84.232072 178.101031 
L 84.557052 177.161717 
L 84.882031 182.316725 
L 85.207011 181.686494 
L 85.53199 182.141569 
L 85.85697 181.912941 
L 86.181949 185.292498 
L 86.506929 185.859149 
L 86.831908 185.582894 
L 87.156888 185.962352 
L 87.481867 187.368969 
L 87.806847 187.221067 
L 88.131826 188.463751 
L 88.456806 188.250343 
L 89.106765 189.44976 
L 89.431744 189.223601 
L 90.406683 190.534858 
L 90.731663 190.395448 
L 91.056642 191.738331 
L 91.381622 190.647129 
L 91.706601 192.037384 
L 92.031581 191.501178 
L 92.35656 192.469313 
L 92.68154 191.46208 
L 93.006519 192.696132 
L 93.331499 188.20238 
L 93.656478 188.555789 
L 93.981458 191.160097 
L 94.306437 186.902762 
L 94.956396 194.104811 
L 95.931335 191.442816 
L 96.256314 191.670434 
L 96.581294 194.774131 
L 96.906274 195.824612 
L 97.231253 195.981483 
L 97.556233 195.518529 
L 97.881212 195.538168 
L 98.206192 195.837986 
L 98.531171 197.199765 
L 98.856151 197.374071 
L 99.18113 197.065948 
L 100.156069 197.755793 
L 100.481048 198.151763 
L 100.806028 197.72392 
L 101.131007 198.876744 
L 101.455987 198.618556 
L 101.780966 199.482272 
L 102.105946 199.254885 
L 102.430925 199.457652 
L 103.405864 199.121115 
L 103.730844 199.767351 
L 104.055823 199.284796 
L 104.380803 199.321927 
L 105.355741 201.100255 
L 105.680721 201.292845 
L 106.0057 199.532955 
L 106.33068 191.157676 
L 106.655659 197.799924 
L 107.630598 201.544257 
L 107.955577 198.795453 
L 108.280557 202.284973 
L 108.930516 202.026756 
L 109.255495 202.433214 
L 109.580475 202.509744 
L 110.230434 203.118848 
L 110.555414 202.377378 
L 110.880393 202.82232 
L 111.205373 203.600882 
L 111.530352 203.087148 
L 111.855332 202.8918 
L 112.180311 203.635369 
L 112.505291 203.341049 
L 112.83027 200.782652 
L 113.15525 201.470035 
L 113.480229 203.653005 
L 113.805209 203.472505 
L 114.455168 201.45259 
L 114.780147 204.600475 
L 115.105127 198.346714 
L 115.755086 195.404341 
L 116.080066 190.157223 
L 116.405045 198.502514 
L 116.730025 195.215144 
L 117.055004 199.122684 
L 117.379984 199.852871 
L 117.704963 204.082901 
L 118.354922 202.019974 
L 118.679902 201.896581 
L 119.004881 204.480609 
L 119.329861 203.399887 
L 119.65484 203.226062 
L 119.97982 205.247899 
L 120.304799 206.175587 
L 120.629779 202.93138 
L 121.279738 205.728335 
L 121.604717 204.679712 
L 121.929697 206.553343 
L 122.254676 206.695245 
L 122.579656 205.87179 
L 122.904636 205.719373 
L 123.229615 207.567269 
L 123.554595 207.381204 
L 123.879574 206.617879 
L 124.204554 207.674402 
L 124.529533 207.380177 
L 124.854513 207.982882 
L 125.179492 207.90246 
L 125.829451 208.821803 
L 126.47941 208.788059 
L 128.104308 209.613882 
L 128.429287 209.584839 
L 128.754267 209.251651 
L 129.404226 210.032622 
L 129.729206 210.011495 
L 130.054185 209.079563 
L 130.379165 209.25631 
L 130.704144 209.847576 
L 131.029124 209.937552 
L 131.354103 210.231501 
L 132.329042 208.063594 
L 132.654021 209.382149 
L 133.30398 206.896355 
L 133.62896 208.455322 
L 133.953939 203.258515 
L 134.278919 207.889296 
L 134.603898 206.762779 
L 134.928878 198.240941 
L 135.253857 204.996003 
L 135.578837 199.349055 
L 135.903817 204.268524 
L 136.228796 207.071403 
L 136.878755 210.186399 
L 137.203735 210.45552 
L 137.528714 211.005508 
L 137.853694 208.308439 
L 138.178673 208.690379 
L 138.503653 210.528298 
L 138.828632 209.243078 
L 139.153612 211.726131 
L 139.478591 211.038122 
L 139.803571 210.029445 
L 140.12855 212.830883 
L 140.45353 206.942133 
L 140.778509 210.848686 
L 141.103489 211.469356 
L 141.428468 212.792938 
L 141.753448 212.263349 
L 142.078428 212.864005 
L 142.728387 213.74076 
L 143.053366 213.420432 
L 143.703325 213.400929 
L 144.353284 212.336429 
L 144.678264 212.253288 
L 145.003243 212.532849 
L 145.328223 213.817041 
L 145.653202 211.300522 
L 145.978182 214.137912 
L 146.303161 210.714138 
L 146.628141 214.161645 
L 146.95312 213.295882 
L 147.603079 213.613005 
L 147.928059 214.712412 
L 148.253038 211.784951 
L 148.578018 210.937881 
L 148.902998 213.176474 
L 149.227977 214.163263 
L 149.552957 205.996128 
L 149.877936 205.302682 
L 150.202916 212.672026 
L 150.527895 213.661091 
L 150.852875 209.962626 
L 151.177854 211.839757 
L 151.502834 206.859746 
L 151.827813 209.733528 
L 152.152793 208.838516 
L 152.477772 211.370523 
L 152.802752 210.416961 
L 153.127731 208.439115 
L 153.452711 207.516817 
L 153.77769 211.118089 
L 154.10267 213.001303 
L 154.427649 211.656349 
L 154.752629 213.840575 
L 155.077609 214.938849 
L 155.402588 215.469778 
L 155.727568 216.224922 
L 156.052547 216.618024 
L 156.377527 216.725032 
L 156.702506 216.452132 
L 157.027486 216.408587 
L 157.352465 217.054935 
L 158.002424 217.348589 
L 158.327404 216.557829 
L 158.652383 217.52714 
L 158.977363 217.859301 
L 159.302342 217.888726 
L 159.627322 218.069383 
L 159.952301 217.952739 
L 160.277281 218.200637 
L 160.92724 218.350948 
L 161.577199 218.023097 
L 161.902179 218.089709 
L 162.227158 218.569693 
L 162.552138 217.922781 
L 162.877117 216.42768 
L 163.202097 217.853094 
L 163.527076 218.532575 
L 163.852056 214.718387 
L 164.177035 215.895917 
L 164.502015 216.456996 
L 164.826994 209.200047 
L 165.151974 209.484236 
L 165.476953 209.300053 
L 165.801933 211.507438 
L 166.126912 203.241079 
L 166.451892 217.957686 
L 166.776871 216.148993 
L 167.101851 210.337588 
L 167.42683 209.446982 
L 168.07679 217.434063 
L 168.401769 216.547143 
L 168.726749 216.705068 
L 169.051728 213.913676 
L 169.376708 213.67811 
L 169.701687 215.553018 
L 170.026667 219.004071 
L 170.351646 219.364066 
L 170.676626 219.391349 
L 171.001605 220.17688 
L 171.326585 220.168051 
L 171.651564 219.634088 
L 171.976544 220.515107 
L 172.301523 219.931249 
L 172.626503 220.558924 
L 172.951482 220.586124 
L 173.601441 220.032372 
L 174.2514 220.557988 
L 175.226339 221.192622 
L 175.551319 221.936334 
L 175.876298 221.902695 
L 176.201278 222.086663 
L 176.526257 221.925691 
L 176.851237 220.915339 
L 177.176216 221.726537 
L 177.501196 221.193417 
L 177.826175 220.237355 
L 178.151155 221.686496 
L 178.476134 221.663711 
L 178.801114 220.955087 
L 179.126093 221.817346 
L 179.451073 221.934714 
L 179.776052 221.695719 
L 180.101032 222.357383 
L 180.426011 222.253916 
L 180.750991 220.757479 
L 181.075971 213.337187 
L 181.40095 215.690398 
L 181.72593 194.493734 
L 182.050909 211.858071 
L 182.375889 192.329958 
L 182.700868 205.529317 
L 183.025848 213.407168 
L 183.350827 215.117161 
L 183.675807 209.275867 
L 184.000786 214.403585 
L 184.325766 211.546394 
L 184.650745 211.503262 
L 185.300704 216.835835 
L 185.625684 220.971154 
L 185.950663 218.656611 
L 186.275643 220.773201 
L 186.600622 219.371314 
L 186.925602 220.840079 
L 187.250581 220.892148 
L 187.575561 221.939167 
L 187.900541 222.25349 
L 188.5505 222.472479 
L 188.875479 223.894947 
L 189.525438 222.502888 
L 189.850418 224.499865 
L 190.175397 224.132863 
L 190.500377 223.349732 
L 190.825356 224.643065 
L 191.150336 220.793135 
L 191.475315 224.973703 
L 191.800295 221.163851 
L 192.125274 224.12138 
L 192.450254 224.713786 
L 192.775233 224.801974 
L 193.100213 225.348272 
L 193.750172 223.730337 
L 194.075152 225.369966 
L 194.400131 223.718181 
L 194.725111 224.086868 
L 195.05009 224.744563 
L 195.37507 223.784886 
L 195.700049 225.327953 
L 196.350008 224.393605 
L 196.674988 225.606635 
L 196.999967 225.173308 
L 197.324947 225.193085 
L 197.649926 225.838396 
L 197.974906 225.451727 
L 198.299885 225.829336 
L 198.624865 224.619338 
L 198.949844 226.377767 
L 199.274824 224.941692 
L 199.924783 224.089068 
L 200.249762 225.338061 
L 200.899722 225.391755 
L 201.224701 226.566909 
L 201.549681 226.318939 
L 201.87466 226.230665 
L 202.19964 225.154682 
L 202.524619 226.682397 
L 202.849599 224.207681 
L 203.174578 224.402661 
L 203.499558 223.731347 
L 203.824537 224.51146 
L 204.149517 219.900606 
L 204.474496 219.121973 
L 204.799476 226.122696 
L 205.124455 225.864176 
L 205.449435 226.420607 
L 205.774414 224.611701 
L 206.424373 225.731529 
L 206.749353 228.160238 
L 207.074333 227.359878 
L 207.399312 221.15439 
L 207.724292 226.013585 
L 208.374251 226.035304 
L 208.69923 219.742455 
L 209.02421 218.396555 
L 209.349189 224.613208 
L 209.674169 224.233537 
L 209.999148 223.649568 
L 210.324128 224.713827 
L 210.649107 226.349936 
L 210.974087 226.399326 
L 211.624046 228.162647 
L 211.949025 226.741277 
L 212.274005 226.666961 
L 212.598984 228.797268 
L 212.923964 228.418877 
L 213.573923 226.403769 
L 213.898903 227.679438 
L 214.223882 227.713072 
L 214.548862 225.270454 
L 214.873841 227.292095 
L 215.5238 216.47506 
L 215.84878 227.238998 
L 216.173759 218.498127 
L 216.498739 226.023336 
L 216.823718 223.391268 
L 217.148698 210.841893 
L 217.473677 220.379066 
L 217.798657 223.099833 
L 218.123636 222.561303 
L 218.448616 226.391246 
L 218.773595 222.891137 
L 219.098575 227.987964 
L 219.423554 223.891606 
L 219.748534 227.987854 
L 220.398493 230.125245 
L 220.723473 230.464649 
L 221.048452 230.378892 
L 221.373432 230.036035 
L 221.698411 230.062429 
L 222.023391 229.585645 
L 222.34837 229.808622 
L 222.67335 221.694527 
L 222.998329 219.314722 
L 223.323309 228.904715 
L 223.648288 227.140712 
L 223.973268 228.898425 
L 224.298247 225.453996 
L 224.623227 230.413486 
L 224.948206 224.431351 
L 225.273186 224.351579 
L 225.598165 224.619345 
L 226.248124 229.856561 
L 226.573104 229.416718 
L 226.898084 230.418751 
L 227.223063 228.827014 
L 227.548043 229.624897 
L 227.873022 228.961973 
L 228.198002 231.526032 
L 228.522981 227.595368 
L 228.847961 229.689694 
L 229.17294 219.594336 
L 229.49792 230.74276 
L 229.822899 224.353401 
L 230.147879 220.965634 
L 230.472858 223.134594 
L 230.797838 219.745436 
L 231.122817 227.774262 
L 231.447797 220.951839 
L 231.772776 218.467921 
L 232.097756 225.736317 
L 232.422735 225.864261 
L 232.747715 219.697618 
L 233.072695 220.856057 
L 233.397674 224.659421 
L 234.047633 225.542991 
L 234.372613 218.830682 
L 234.697592 225.595761 
L 235.022572 220.910118 
L 235.347551 220.732766 
L 235.672531 229.650206 
L 235.99751 226.695972 
L 236.32249 227.962802 
L 236.647469 232.231494 
L 236.972449 232.331121 
L 237.297428 230.661779 
L 237.622408 233.574847 
L 237.947387 234.001367 
L 238.272367 233.261096 
L 238.597346 233.31232 
L 238.922326 234.046879 
L 239.572285 234.376208 
L 240.222244 234.775498 
L 240.547224 234.596209 
L 240.872203 234.66526 
L 241.197183 227.077235 
L 241.522162 226.515543 
L 241.847142 204.650239 
L 242.172121 203.199229 
L 242.497101 221.55669 
L 242.82208 228.525885 
L 243.14706 225.905328 
L 243.472039 226.183139 
L 243.797019 226.236032 
L 244.121998 226.143056 
L 244.446978 223.207785 
L 244.771957 223.117729 
L 245.096937 225.295826 
L 245.421916 229.514481 
L 245.746896 231.17727 
L 246.071876 229.351893 
L 246.396855 229.735235 
L 247.046814 233.779255 
L 247.371794 234.509998 
L 248.021753 234.145243 
L 248.346732 232.599762 
L 248.671712 233.901887 
L 248.996691 233.040121 
L 249.321671 233.826011 
L 249.64665 234.023847 
L 249.97163 235.319209 
L 250.621589 236.295583 
L 250.946568 236.315337 
L 251.271548 236.10556 
L 251.596527 234.662485 
L 251.921507 235.779678 
L 252.246486 236.483252 
L 252.571466 236.823573 
L 253.546405 236.467656 
L 254.196364 236.549194 
L 254.521343 236.175532 
L 254.846323 236.613337 
L 255.171302 237.264708 
L 255.496282 236.568394 
L 255.821261 236.450268 
L 256.146241 237.364932 
L 256.47122 237.079225 
L 256.7962 237.612118 
L 257.121179 234.22533 
L 257.771138 237.775445 
L 258.096118 237.076693 
L 258.421097 234.534017 
L 258.746077 237.802116 
L 259.071057 237.199844 
L 259.721016 226.738066 
L 260.045995 233.991635 
L 260.370975 226.620755 
L 260.695954 232.622688 
L 261.020934 231.196804 
L 261.345913 234.510908 
L 261.670893 232.949104 
L 261.995872 234.298575 
L 262.320852 236.575382 
L 262.645831 236.45563 
L 262.970811 237.528151 
L 263.29579 237.506597 
L 263.62077 237.097459 
L 263.945749 235.767637 
L 264.270729 237.846463 
L 264.595708 231.8376 
L 264.920688 237.433656 
L 265.245667 227.930587 
L 265.570647 226.406876 
L 265.895627 234.0104 
L 266.220606 235.939573 
L 266.545586 231.880846 
L 266.870565 238.032941 
L 267.195545 235.369744 
L 267.520524 238.682312 
L 267.845504 232.759466 
L 268.170483 233.732391 
L 268.495463 221.200908 
L 268.820442 229.919852 
L 269.145422 220.034469 
L 269.470401 221.421594 
L 269.795381 219.571252 
L 270.12036 224.438404 
L 270.44534 220.726261 
L 270.770319 225.988632 
L 271.095299 221.048256 
L 271.420278 222.153786 
L 271.745258 225.132206 
L 272.070238 224.242797 
L 272.395217 227.291449 
L 272.720197 224.522403 
L 273.045176 232.744548 
L 273.370156 233.315062 
L 273.695135 233.052253 
L 274.020115 231.497379 
L 274.345094 234.555526 
L 274.670074 234.820943 
L 274.995053 235.526709 
L 275.320033 238.488089 
L 275.645012 238.181166 
L 276.294971 239.092389 
L 276.94493 239.141333 
L 277.26991 238.13121 
L 277.594889 236.389935 
L 277.919869 238.744912 
L 278.244848 237.47508 
L 278.569828 234.437547 
L 278.894808 238.892781 
L 279.219787 236.930625 
L 279.544767 233.306395 
L 279.869746 237.619376 
L 280.194726 236.933495 
L 280.519705 235.845 
L 280.844685 238.980818 
L 281.169664 237.507605 
L 281.819623 240.586894 
L 282.144603 241.155417 
L 282.469582 240.444566 
L 282.794562 241.140979 
L 283.119541 241.076532 
L 283.444521 240.856793 
L 283.7695 241.506638 
L 284.09448 237.037629 
L 284.419459 240.384609 
L 284.744439 241.242916 
L 285.069419 241.674793 
L 285.394398 241.876599 
L 285.719378 241.852077 
L 286.044357 240.195341 
L 286.369337 239.283883 
L 286.694316 242.037337 
L 287.019296 238.180543 
L 287.344275 237.809129 
L 287.669255 242.559401 
L 287.994234 240.630745 
L 288.319214 242.173312 
L 288.644193 239.266978 
L 288.969173 240.499201 
L 289.294152 240.062961 
L 289.619132 241.149982 
L 289.944111 241.406637 
L 290.269091 240.447444 
L 290.59407 236.271361 
L 290.91905 235.855187 
L 291.244029 238.059217 
L 291.569009 233.229704 
L 291.893989 237.296832 
L 292.218968 235.12715 
L 292.543948 234.7753 
L 292.868927 223.984166 
L 293.193907 235.976348 
L 293.518886 236.520046 
L 293.843866 232.473328 
L 294.168845 237.351262 
L 294.818804 240.889213 
L 295.143784 239.583934 
L 295.468763 237.569326 
L 295.793743 230.354872 
L 296.768681 240.679205 
L 297.41864 235.80064 
L 297.74362 238.513498 
L 298.393579 236.837678 
L 298.718559 238.467382 
L 299.043538 235.269756 
L 299.368518 239.636455 
L 299.693497 234.016987 
L 300.018477 239.424096 
L 300.343456 231.45435 
L 300.668436 238.214706 
L 300.993415 227.6369 
L 301.318395 242.103356 
L 301.643374 237.038326 
L 301.968354 239.422516 
L 302.293333 240.910463 
L 302.618313 241.121799 
L 302.943292 241.05011 
L 303.268272 244.069322 
L 303.918231 242.014896 
L 304.24321 243.320779 
L 304.56819 242.261253 
L 304.89317 236.321676 
L 305.218149 239.896608 
L 305.543129 220.83419 
L 305.868108 240.822877 
L 306.193088 222.931742 
L 306.518067 236.91301 
L 306.843047 235.798904 
L 307.168026 241.269596 
L 307.493006 242.818705 
L 307.817985 241.91746 
L 308.142965 238.323468 
L 308.467944 237.894315 
L 308.792924 240.836715 
L 309.117903 240.180777 
L 309.442883 240.083994 
L 309.767862 241.740717 
L 310.092842 244.428597 
L 310.417821 239.123706 
L 310.742801 238.833702 
L 311.067781 240.993051 
L 311.39276 239.210427 
L 311.71774 241.983253 
L 312.042719 241.478028 
L 312.367699 238.79262 
L 312.692678 243.412019 
L 313.017658 240.477924 
L 313.342637 241.371044 
L 313.667617 243.82898 
L 313.992596 242.320438 
L 314.317576 241.567848 
L 314.967535 239.161993 
L 315.292514 235.52406 
L 315.617494 241.79014 
L 315.942473 232.367581 
L 316.267453 235.8438 
L 316.917412 239.578784 
L 317.242391 243.606024 
L 317.567371 241.14141 
L 317.892351 237.530971 
L 318.21733 235.311923 
L 318.54231 237.171349 
L 318.867289 236.725739 
L 319.192269 235.815973 
L 319.842228 240.865116 
L 320.167207 242.500774 
L 320.492187 240.746262 
L 320.817166 237.377154 
L 321.142146 240.668862 
L 321.467125 241.112835 
L 321.792105 243.933344 
L 322.117084 242.246912 
L 322.767043 241.348981 
L 323.092023 240.393756 
L 323.417002 243.666645 
L 323.741982 229.017331 
L 324.066962 238.668442 
L 324.391941 227.792508 
L 324.716921 229.320832 
L 325.0419 236.136462 
L 325.36688 237.930808 
L 325.691859 235.160287 
L 326.016839 243.012044 
L 326.341818 240.30926 
L 326.666798 236.395443 
L 326.991777 226.387288 
L 327.316757 236.443126 
L 327.641736 237.298578 
L 327.966716 235.911569 
L 328.291695 233.981342 
L 328.616675 233.514656 
L 329.266634 240.674064 
L 329.591613 238.390551 
L 329.916593 239.839455 
L 330.241572 240.509587 
L 330.891532 244.966096 
L 331.216511 243.822796 
L 331.541491 239.934085 
L 331.86647 240.216713 
L 332.19145 240.142414 
L 332.516429 241.920454 
L 332.841409 244.837727 
L 333.166388 244.568178 
L 333.491368 243.431703 
L 333.816347 243.05901 
L 334.141327 246.168223 
L 334.791286 247.222832 
L 335.116265 247.008392 
L 335.441245 246.49436 
L 335.766224 248.604133 
L 336.091204 246.89543 
L 336.416183 247.168707 
L 336.741163 248.601546 
L 337.066143 246.38394 
L 337.391122 242.885819 
L 337.716102 245.451334 
L 338.041081 229.633245 
L 338.366061 244.294169 
L 338.69104 235.121811 
L 339.01602 240.849951 
L 339.340999 229.392568 
L 339.665979 238.315723 
L 339.990958 241.385755 
L 340.315938 241.571893 
L 340.640917 242.622206 
L 340.965897 239.703185 
L 341.290876 244.698302 
L 341.615856 245.617586 
L 341.940835 243.33679 
L 342.590794 246.532854 
L 343.240753 246.341647 
L 343.565733 246.99843 
L 343.890713 246.975341 
L 344.215692 246.819478 
L 344.540672 247.372341 
L 344.865651 237.210085 
L 345.190631 245.976893 
L 345.51561 241.130761 
L 345.84059 246.520642 
L 346.165569 246.34479 
L 346.490549 246.625093 
L 346.815528 243.258336 
L 347.140508 248.068336 
L 347.465487 249.629472 
L 347.790467 249.254256 
L 348.115446 245.556723 
L 348.440426 235.774968 
L 348.765405 239.816074 
L 349.090385 235.60484 
L 349.415364 233.103088 
L 349.740344 241.390854 
L 350.065324 235.768352 
L 350.390303 242.326614 
L 350.715283 228.812207 
L 351.040262 242.633033 
L 351.690221 226.354129 
L 352.015201 241.400438 
L 352.34018 243.15082 
L 352.990139 237.823942 
L 353.315119 239.90808 
L 353.640098 236.427358 
L 353.965078 236.431923 
L 354.290057 228.210031 
L 354.615037 228.815931 
L 354.940016 225.746633 
L 355.264996 233.928541 
L 355.914955 226.167081 
L 356.239934 231.05329 
L 356.564914 218.276784 
L 357.214873 237.475866 
L 357.539853 236.784922 
L 357.864832 242.240376 
L 358.514791 232.516635 
L 359.16475 242.80856 
L 359.48973 244.547486 
L 359.814709 247.101487 
L 360.139689 247.466744 
L 360.464668 246.257591 
L 360.789648 247.228857 
L 361.114627 245.713756 
L 361.439607 249.081664 
L 361.764586 248.382725 
L 362.414545 249.536802 
L 362.739525 247.326431 
L 363.389484 250.66132 
L 363.714464 250.379594 
L 364.039443 250.367147 
L 364.364423 249.967055 
L 364.689402 250.719604 
L 365.014382 249.672503 
L 365.339361 251.451225 
L 365.664341 251.931554 
L 365.98932 252.184248 
L 366.3143 251.40722 
L 366.639279 251.743897 
L 366.964259 251.215866 
L 367.289238 252.330802 
L 367.614218 252.259572 
L 367.939197 251.115567 
L 368.264177 251.486303 
L 368.589156 252.178023 
L 368.914136 251.428379 
L 369.239115 253.142785 
L 369.564095 253.155119 
L 369.889075 252.443022 
L 370.214054 253.322359 
L 370.539034 253.153617 
L 370.864013 253.196243 
L 371.188993 253.000253 
L 371.838952 252.256974 
L 372.163931 252.635171 
L 372.488911 248.7451 
L 372.81389 253.167585 
L 373.13887 249.830818 
L 373.463849 237.996229 
L 373.788829 251.001084 
L 374.113808 247.022971 
L 374.438788 251.841284 
L 374.763767 249.29202 
L 375.088747 251.43921 
L 375.413726 251.61445 
L 375.738706 251.360639 
L 376.063686 252.789144 
L 376.388665 252.033423 
L 376.713645 252.485671 
L 377.038624 252.225769 
L 377.363604 252.817862 
L 377.688583 247.07578 
L 378.013563 247.951249 
L 378.338542 251.952395 
L 378.663522 246.549599 
L 378.988501 245.095821 
L 379.313481 247.75928 
L 379.96344 250.101057 
L 380.288419 246.89416 
L 380.613399 241.264483 
L 380.938378 250.335592 
L 381.263358 239.977019 
L 381.588337 247.447415 
L 381.913317 247.275113 
L 382.238296 245.753388 
L 382.563276 249.894012 
L 382.888256 251.489878 
L 383.213235 250.310863 
L 383.538215 252.568096 
L 384.188174 245.925336 
L 384.513153 252.237057 
L 385.163112 242.932165 
L 385.488092 243.903402 
L 385.813071 247.273432 
L 386.138051 246.346674 
L 386.46303 243.42552 
L 386.78801 245.001101 
L 387.112989 241.998377 
L 387.437969 251.283332 
L 387.762948 252.601678 
L 388.087928 250.634512 
L 388.737887 236.967884 
L 389.062867 230.829238 
L 389.387846 241.490138 
L 389.712826 233.26232 
L 390.037805 229.452789 
L 390.362785 223.341203 
L 390.687764 238.550735 
L 391.012744 241.376859 
L 391.337723 239.942398 
L 391.662703 232.145882 
L 391.987682 235.07621 
L 392.312662 240.226382 
L 392.637641 238.102675 
L 392.962621 231.024658 
L 393.2876 234.95159 
L 393.61258 244.096176 
L 393.937559 245.128505 
L 394.262539 242.012826 
L 394.587518 244.87355 
L 394.912498 250.702769 
L 395.237477 247.328913 
L 395.562457 248.509038 
L 395.887437 253.410873 
L 396.537396 251.488556 
L 396.862375 253.792256 
L 397.187355 254.603715 
L 397.512334 250.796164 
L 397.837314 254.04416 
L 398.162293 253.017359 
L 398.487273 254.81 
L 398.487273 254.81 
" style="fill:none;stroke:#1f77b4;stroke-linecap:square;stroke-width:1.5;"/>
   </g>
   <g id="line2d_44">
    <path clip-path="url(#p919f2ed0b3)" d="M 73.832727 56.251668 
L 74.157707 62.509999 
L 75.457625 105.228735 
L 75.782604 119.126113 
L 76.107584 128.047084 
L 76.432563 133.824253 
L 76.757543 142.666019 
L 77.407502 149.087679 
L 77.732482 158.509093 
L 78.382441 167.834381 
L 78.70742 170.986137 
L 79.357379 179.401771 
L 80.332318 188.573163 
L 80.982277 194.656473 
L 82.607174 205.759701 
L 84.232072 212.551388 
L 85.207011 215.091722 
L 86.181949 217.002054 
L 86.831908 218.091864 
L 88.456806 220.183262 
L 89.756724 221.511599 
L 90.406683 222.126561 
L 91.056642 222.68853 
L 92.35656 223.662807 
L 92.68154 223.727544 
L 93.006519 223.932459 
L 93.331499 224.489993 
L 93.981458 224.972049 
L 94.631417 225.418279 
L 94.956396 225.647586 
L 95.281376 225.727664 
L 98.531171 227.716235 
L 99.50611 228.201718 
L 101.131007 228.95032 
L 101.455987 229.205546 
L 102.105946 229.430099 
L 103.405864 230.163234 
L 104.055823 230.38859 
L 104.705782 230.787436 
L 105.030762 230.973992 
L 105.355741 230.943246 
L 106.33068 231.517351 
L 107.630598 231.93316 
L 107.955577 232.056497 
L 108.280557 232.34848 
L 108.605536 232.407449 
L 109.580475 233.092772 
L 110.230434 233.437628 
L 110.880393 233.950094 
L 111.205373 233.975125 
L 112.505291 234.870761 
L 113.15525 235.241797 
L 113.480229 235.625534 
L 114.130188 235.992753 
L 114.780147 236.56051 
L 115.430106 237.043109 
L 115.755086 237.497131 
L 116.730025 238.307275 
L 117.704963 239.451425 
L 118.029943 239.703281 
L 119.004881 240.879021 
L 119.97982 241.628492 
L 120.629779 242.669404 
L 121.929697 243.982914 
L 122.904636 245.129035 
L 124.854513 246.868965 
L 125.504472 247.429197 
L 126.47941 248.390911 
L 126.80439 248.402192 
L 127.129369 248.527162 
L 128.104308 249.490862 
L 128.429287 249.524907 
L 128.754267 249.739017 
L 129.404226 249.997742 
L 129.729206 250.321501 
L 130.054185 250.876977 
L 131.029124 251.714239 
L 131.354103 252.038689 
L 131.679083 251.66121 
L 132.004062 251.978453 
L 132.329042 252.573657 
L 133.30398 252.71801 
L 133.62896 253.207718 
L 133.953939 253.386866 
L 134.278919 253.793436 
L 135.253857 254.116397 
L 136.228796 254.750255 
L 136.878755 254.842207 
L 137.528714 255.397077 
L 137.853694 255.561153 
L 138.178673 255.092945 
L 138.503653 255.105606 
L 138.828632 254.901724 
L 139.153612 255.486216 
L 139.803571 256.013465 
L 140.12855 256.041199 
L 140.45353 255.7835 
L 140.778509 256.422519 
L 141.103489 256.291738 
L 141.428468 256.745637 
L 141.753448 256.8374 
L 142.078428 257.377417 
L 142.728387 257.085913 
L 143.053366 256.668658 
L 143.378346 257.007019 
L 143.703325 257.956812 
L 144.028305 257.629829 
L 144.353284 257.889745 
L 144.678264 257.590725 
L 145.003243 255.490038 
L 145.328223 248.463262 
L 145.978182 257.942948 
L 146.303161 251.928888 
L 146.628141 257.94728 
L 146.95312 255.61699 
L 147.2781 254.230727 
L 147.603079 257.749821 
L 147.928059 248.925393 
L 148.253038 255.512623 
L 148.578018 259.629748 
L 148.902998 258.003721 
L 149.227977 257.391206 
L 149.552957 258.546478 
L 149.877936 259.07297 
L 150.202916 257.694151 
L 150.527895 252.88209 
L 150.852875 255.929584 
L 151.177854 257.043371 
L 151.502834 256.224491 
L 151.827813 256.37479 
L 152.152793 258.452454 
L 152.477772 259.407053 
L 152.802752 258.078592 
L 153.127731 251.183963 
L 153.452711 253.015618 
L 153.77769 259.389532 
L 154.10267 260.893809 
L 154.427649 255.356109 
L 154.752629 256.446413 
L 155.077609 256.577639 
L 155.402588 258.469975 
L 155.727568 259.157699 
L 156.052547 261.707489 
L 156.702506 262.089385 
L 157.027486 261.854045 
L 157.352465 261.928894 
L 157.677445 261.515613 
L 158.002424 259.652741 
L 158.327404 260.746021 
L 158.652383 260.811309 
L 158.977363 261.95589 
L 159.302342 261.824128 
L 159.627322 262.463392 
L 159.952301 262.449755 
L 160.277281 262.999539 
L 161.252219 263.128736 
L 161.577199 263.501449 
L 161.902179 263.582428 
L 162.227158 263.121326 
L 162.877117 263.786906 
L 163.202097 263.803091 
L 163.527076 263.54068 
L 163.852056 263.569313 
L 164.177035 263.377259 
L 164.502015 262.534147 
L 164.826994 262.603994 
L 165.151974 263.394035 
L 165.476953 262.95652 
L 165.801933 262.798548 
L 166.126912 263.117399 
L 166.451892 263.624828 
L 166.776871 262.940504 
L 167.101851 264.181283 
L 167.42683 264.450423 
L 167.75181 263.559804 
L 168.07679 264.431811 
L 168.401769 263.630017 
L 168.726749 264.860416 
L 169.051728 263.879326 
L 169.376708 264.609003 
L 169.701687 263.763832 
L 170.026667 264.294839 
L 170.351646 263.267207 
L 170.676626 263.792876 
L 171.001605 263.86842 
L 171.326585 262.947548 
L 171.651564 264.200728 
L 171.976544 262.950128 
L 172.301523 264.128159 
L 172.626503 264.11677 
L 172.951482 263.071981 
L 173.276462 264.927361 
L 173.601441 264.520971 
L 173.926421 265.371584 
L 174.2514 265.403627 
L 174.57638 265.709658 
L 174.90136 265.859716 
L 175.226339 266.33176 
L 175.551319 265.588339 
L 175.876298 265.237218 
L 176.201278 265.898478 
L 176.526257 266.164552 
L 176.851237 266.153595 
L 177.176216 265.817681 
L 177.501196 266.15662 
L 177.826175 265.855785 
L 178.151155 266.70926 
L 178.476134 267.086207 
L 178.801114 266.816399 
L 179.126093 266.714116 
L 179.451073 266.286869 
L 179.776052 266.975059 
L 180.101032 266.680833 
L 180.426011 267.236885 
L 180.750991 267.339068 
L 181.075971 267.105863 
L 181.40095 267.471489 
L 181.72593 267.388771 
L 182.050909 266.954978 
L 182.375889 265.807985 
L 182.700868 263.654995 
L 183.350827 254.86308 
L 183.675807 264.800605 
L 184.000786 235.258347 
L 184.325766 241.279128 
L 184.650745 226.705952 
L 184.975725 244.731595 
L 185.300704 253.859568 
L 185.625684 234.775421 
L 185.950663 239.517505 
L 186.275643 253.963346 
L 186.600622 253.768131 
L 186.925602 256.724021 
L 187.250581 257.717729 
L 187.900541 262.121505 
L 188.5505 263.822052 
L 188.875479 266.198921 
L 189.200459 265.948217 
L 189.525438 265.953144 
L 190.175397 267.958547 
L 190.500377 266.800538 
L 190.825356 268.435263 
L 191.150336 268.0661 
L 191.475315 268.325484 
L 191.800295 268.032247 
L 192.125274 267.93582 
L 192.450254 268.661215 
L 192.775233 268.390477 
L 193.100213 268.704351 
L 193.425192 268.630843 
L 193.750172 268.776601 
L 194.075152 268.491353 
L 194.400131 269.296119 
L 194.725111 268.995792 
L 195.05009 268.276911 
L 195.37507 268.831031 
L 195.700049 268.947637 
L 196.025029 268.356433 
L 196.350008 269.670496 
L 196.674988 269.186958 
L 196.999967 269.769677 
L 197.324947 269.038088 
L 197.649926 269.011468 
L 197.974906 268.34236 
L 198.299885 269.115476 
L 198.624865 268.309197 
L 198.949844 269.932438 
L 199.274824 270.058086 
L 199.599803 269.932709 
L 200.249762 270.611799 
L 200.574742 270.060272 
L 200.899722 270.023605 
L 201.224701 270.319704 
L 201.549681 270.23308 
L 201.87466 270.685943 
L 202.19964 270.483502 
L 202.524619 270.679808 
L 202.849599 270.711409 
L 203.174578 270.606341 
L 203.499558 271.045354 
L 204.149517 271.193855 
L 204.474496 271.505045 
L 205.124455 271.472623 
L 205.449435 271.400503 
L 205.774414 271.034737 
L 206.099394 271.532631 
L 206.424373 270.774911 
L 206.749353 271.257407 
L 207.074333 271.372234 
L 207.399312 271.82722 
L 207.724292 271.264566 
L 208.049271 271.896699 
L 208.374251 272.018018 
L 208.69923 272.439029 
L 209.02421 272.022618 
L 209.999148 271.606275 
L 210.324128 271.705839 
L 210.649107 272.173707 
L 211.299066 272.13237 
L 211.624046 272.982397 
L 211.949025 270.998634 
L 212.274005 271.920072 
L 212.598984 272.150484 
L 212.923964 271.904573 
L 213.248943 272.11735 
L 213.573923 272.611283 
L 213.898903 272.849303 
L 214.223882 272.118084 
L 214.548862 272.530557 
L 214.873841 272.634908 
L 215.198821 272.259631 
L 215.5238 271.625576 
L 215.84878 272.160121 
L 216.498739 272.444838 
L 216.823718 273.025387 
L 217.148698 271.391598 
L 217.473677 273.187891 
L 217.798657 272.395081 
L 218.123636 272.204168 
L 218.448616 271.114092 
L 218.773595 272.676894 
L 219.098575 273.041238 
L 219.423554 272.174274 
L 219.748534 273.397078 
L 220.073514 273.319833 
L 220.723473 273.978773 
L 221.048452 274.594004 
L 221.373432 274.395683 
L 221.698411 274.381451 
L 222.023391 272.708972 
L 222.34837 273.589538 
L 222.67335 272.779736 
L 222.998329 274.221205 
L 223.323309 273.623678 
L 223.648288 274.472342 
L 223.973268 273.188807 
L 224.298247 274.488971 
L 224.623227 273.458936 
L 225.273186 274.481614 
L 225.598165 274.466807 
L 225.923145 273.312567 
L 226.248124 274.846322 
L 226.573104 272.930331 
L 226.898084 274.863011 
L 227.548043 271.46402 
L 227.873022 273.041325 
L 228.198002 272.661869 
L 228.522981 275.646055 
L 228.847961 271.982531 
L 229.17294 274.876163 
L 229.49792 274.597902 
L 229.822899 272.358867 
L 230.147879 273.886799 
L 230.472858 274.866443 
L 230.797838 272.335516 
L 231.122817 274.200485 
L 231.447797 270.894007 
L 231.772776 272.489089 
L 232.422735 274.127164 
L 232.747715 274.341849 
L 233.072695 275.075442 
L 233.397674 273.430547 
L 233.722654 275.153381 
L 234.047633 271.232984 
L 234.372613 275.812294 
L 234.697592 273.923998 
L 235.347551 275.097245 
L 235.672531 272.766606 
L 235.99751 275.141348 
L 236.32249 275.066826 
L 236.647469 275.297716 
L 236.972449 275.809486 
L 237.297428 275.968804 
L 237.622408 276.638634 
L 237.947387 276.356341 
L 238.272367 276.662126 
L 238.597346 275.715771 
L 238.922326 273.261002 
L 239.247305 274.202099 
L 239.572285 276.046879 
L 239.897265 275.457705 
L 240.222244 276.681583 
L 240.547224 277.070009 
L 240.872203 277.03465 
L 241.522162 276.480123 
L 241.847142 277.957397 
L 242.172121 276.654148 
L 242.497101 276.791027 
L 242.82208 275.683612 
L 243.14706 276.26084 
L 243.472039 275.474846 
L 243.797019 275.839424 
L 244.121998 273.655369 
L 244.446978 275.305212 
L 244.771957 273.261486 
L 245.096937 274.138062 
L 245.421916 272.1418 
L 245.746896 271.412646 
L 246.071876 273.010347 
L 246.396855 261.125783 
L 246.721835 256.797425 
L 247.046814 257.675246 
L 247.371794 261.850242 
L 247.696773 261.543641 
L 248.021753 269.975031 
L 248.346732 273.985576 
L 248.671712 270.262617 
L 248.996691 269.694663 
L 249.321671 273.469691 
L 249.64665 272.380744 
L 249.97163 273.213253 
L 250.296609 275.207085 
L 250.621589 276.229056 
L 250.946568 273.105689 
L 251.271548 277.237518 
L 251.596527 270.486463 
L 251.921507 274.580642 
L 252.246486 272.499779 
L 252.571466 275.637953 
L 252.896446 276.00541 
L 253.221425 275.316202 
L 253.546405 277.987273 
L 253.871384 270.661398 
L 254.196364 278.250897 
L 254.521343 277.311577 
L 254.846323 275.657162 
L 255.171302 278.303495 
L 255.496282 274.235129 
L 255.821261 277.469534 
L 256.146241 274.739406 
L 256.47122 277.552338 
L 256.7962 276.766952 
L 257.121179 277.862033 
L 257.446159 276.769785 
L 257.771138 278.562458 
L 258.096118 277.671901 
L 258.421097 274.022283 
L 258.746077 277.712619 
L 259.071057 277.597984 
L 259.396036 278.866816 
L 259.721016 277.40545 
L 260.045995 279.407744 
L 260.370975 279.163498 
L 260.695954 279.451269 
L 261.020934 279.350375 
L 261.345913 280.413425 
L 261.670893 278.268671 
L 261.995872 280.610845 
L 262.320852 274.621392 
L 262.645831 276.658304 
L 262.970811 280.556419 
L 263.62077 276.25974 
L 263.945749 275.989251 
L 264.595708 253.341297 
L 264.920688 267.916698 
L 265.245667 271.898002 
L 265.570647 252.56206 
L 265.895627 269.540316 
L 266.220606 274.502607 
L 266.545586 263.2581 
L 266.870565 256.658186 
L 267.520524 274.184615 
L 268.170483 258.947424 
L 268.820442 264.027954 
L 269.145422 263.907743 
L 269.470401 270.014896 
L 269.795381 268.130622 
L 270.12036 269.10272 
L 270.44534 274.525615 
L 270.770319 271.996224 
L 271.095299 274.401112 
L 271.420278 273.550646 
L 271.745258 279.707002 
L 272.070238 278.044201 
L 272.395217 279.938002 
L 273.045176 280.910338 
L 273.370156 281.578099 
L 273.695135 281.864288 
L 274.020115 281.853512 
L 274.345094 281.149065 
L 274.670074 281.739001 
L 274.995053 281.793684 
L 275.320033 281.066678 
L 275.645012 281.582117 
L 275.969992 281.520791 
L 276.294971 282.567534 
L 276.619951 282.116013 
L 276.94493 282.532438 
L 277.594889 282.400409 
L 277.919869 282.805989 
L 278.244848 279.56012 
L 278.569828 281.908038 
L 278.894808 283.347835 
L 279.219787 282.659709 
L 279.544767 282.304251 
L 279.869746 283.260423 
L 280.194726 283.760028 
L 280.519705 283.676719 
L 280.844685 282.535125 
L 281.494644 283.017558 
L 281.819623 282.427099 
L 282.144603 283.52817 
L 282.469582 281.149507 
L 282.794562 282.828354 
L 283.119541 282.00656 
L 283.444521 283.910654 
L 283.7695 284.247105 
L 284.09448 283.034759 
L 284.419459 284.424389 
L 284.744439 284.734762 
L 285.069419 282.950828 
L 285.394398 284.397317 
L 285.719378 283.259405 
L 286.044357 282.979215 
L 286.369337 283.105543 
L 286.694316 283.069225 
L 287.019296 284.014896 
L 287.344275 283.742977 
L 287.669255 284.586068 
L 287.994234 284.422821 
L 288.319214 283.543783 
L 288.644193 284.014359 
L 288.969173 283.692611 
L 289.294152 284.02485 
L 289.619132 283.893813 
L 290.59407 281.416734 
L 290.91905 282.467907 
L 291.244029 282.53798 
L 291.569009 283.025601 
L 292.218968 276.859346 
L 292.543948 278.858738 
L 292.868927 279.934337 
L 293.193907 281.52647 
L 293.518886 278.174403 
L 293.843866 282.423215 
L 294.168845 281.871809 
L 294.493825 282.069306 
L 294.818804 284.217028 
L 295.143784 284.610236 
L 296.118722 284.880373 
L 296.443702 284.307574 
L 296.768681 284.793394 
L 297.093661 283.214857 
L 297.41864 284.211752 
L 298.0686 282.28235 
L 298.393579 283.635529 
L 298.718559 284.058536 
L 299.043538 283.990938 
L 299.368518 285.806729 
L 299.693497 284.372432 
L 300.343456 277.53236 
L 300.668436 262.316824 
L 300.993415 275.593065 
L 301.318395 266.488051 
L 301.643374 267.497688 
L 301.968354 266.362299 
L 302.293333 272.945819 
L 302.618313 266.835314 
L 302.943292 272.047956 
L 303.268272 266.864067 
L 303.593251 280.128001 
L 303.918231 266.697716 
L 304.24321 264.548252 
L 304.56819 260.75287 
L 304.89317 275.847758 
L 305.218149 279.596543 
L 305.543129 275.341618 
L 305.868108 276.504935 
L 306.193088 274.991471 
L 306.518067 281.387439 
L 306.843047 281.303466 
L 307.168026 284.223315 
L 307.493006 285.055739 
L 307.817985 284.520698 
L 308.142965 286.094061 
L 308.467944 284.777349 
L 309.117903 285.967729 
L 309.442883 287.306848 
L 309.767862 283.776786 
L 310.092842 285.584932 
L 310.417821 284.480693 
L 310.742801 286.833377 
L 311.39276 286.18297 
L 311.71774 285.216351 
L 312.042719 286.812557 
L 312.367699 287.095132 
L 312.692678 286.486098 
L 313.017658 287.555051 
L 313.342637 287.945775 
L 313.667617 287.213344 
L 313.992596 287.266411 
L 314.317576 285.081774 
L 314.642555 286.940848 
L 314.967535 283.327581 
L 315.292514 287.844746 
L 315.617494 285.871035 
L 315.942473 286.367175 
L 316.267453 284.680645 
L 316.592432 287.402896 
L 317.242391 284.032964 
L 317.567371 287.066778 
L 317.892351 284.367171 
L 318.21733 283.666218 
L 318.867289 286.452017 
L 319.192269 286.358121 
L 319.842228 279.693481 
L 320.167207 282.250029 
L 320.492187 283.765789 
L 320.817166 279.32404 
L 321.142146 283.212594 
L 321.467125 282.311119 
L 321.792105 284.930878 
L 322.117084 284.149371 
L 322.442064 282.807471 
L 323.092023 288.194956 
L 323.417002 287.51819 
L 323.741982 287.53747 
L 324.066962 287.000089 
L 324.391941 287.478087 
L 324.716921 284.144598 
L 325.0419 284.608946 
L 325.36688 287.774852 
L 325.691859 287.772178 
L 326.016839 287.998003 
L 326.341818 288.524187 
L 326.666798 287.16488 
L 326.991777 288.078867 
L 327.316757 287.853324 
L 327.641736 287.991612 
L 327.966716 290.189531 
L 328.291695 287.807086 
L 328.616675 289.67067 
L 328.941654 283.969959 
L 329.266634 275.38492 
L 329.591613 289.310877 
L 329.916593 278.083223 
L 330.241572 278.139171 
L 330.566552 288.39243 
L 330.891532 272.536841 
L 331.216511 276.506356 
L 331.541491 265.107282 
L 331.86647 276.49531 
L 332.19145 269.476835 
L 332.516429 281.514271 
L 332.841409 269.564085 
L 333.166388 286.463108 
L 333.491368 273.145041 
L 333.816347 284.323676 
L 334.141327 283.015156 
L 334.466306 276.734814 
L 334.791286 285.185683 
L 335.116265 283.701575 
L 335.441245 286.613248 
L 335.766224 287.275236 
L 336.091204 287.227231 
L 336.416183 286.92693 
L 336.741163 288.971504 
L 337.066143 286.597252 
L 337.391122 288.162967 
L 337.716102 288.666429 
L 338.041081 288.749546 
L 338.366061 289.713607 
L 338.69104 289.466543 
L 339.01602 290.195386 
L 339.340999 290.053389 
L 339.665979 290.478529 
L 339.990958 291.140122 
L 340.315938 291.229154 
L 340.640917 291.081729 
L 341.290876 291.473961 
L 341.615856 290.338671 
L 341.940835 287.572229 
L 342.265815 288.79808 
L 342.590794 288.744108 
L 342.915774 289.731332 
L 343.240753 286.730753 
L 343.565733 287.80508 
L 343.890713 284.019669 
L 344.215692 288.360321 
L 344.540672 289.227429 
L 344.865651 290.75855 
L 345.190631 286.139948 
L 345.51561 288.970434 
L 345.84059 288.887222 
L 346.165569 288.954405 
L 346.490549 289.900586 
L 346.815528 289.292368 
L 347.140508 290.560278 
L 347.465487 290.915924 
L 347.790467 288.375575 
L 348.115446 290.046408 
L 348.440426 286.991037 
L 348.765405 288.453984 
L 349.090385 286.28891 
L 349.415364 287.417981 
L 349.740344 287.856398 
L 350.065324 285.34392 
L 350.390303 286.912268 
L 350.715283 284.319473 
L 351.040262 285.412584 
L 351.365242 285.337461 
L 351.690221 289.533267 
L 352.015201 289.82734 
L 352.34018 282.397156 
L 352.66516 282.391514 
L 352.990139 269.261598 
L 353.315119 263.505337 
L 353.640098 276.1779 
L 353.965078 266.491305 
L 354.290057 284.463484 
L 354.615037 281.880582 
L 354.940016 283.545484 
L 355.264996 286.948743 
L 355.589975 287.015652 
L 355.914955 286.658112 
L 356.239934 283.319466 
L 356.564914 288.900365 
L 356.889894 287.62846 
L 357.214873 287.234513 
L 357.539853 291.277376 
L 357.864832 287.284772 
L 358.189812 290.836599 
L 358.514791 288.035359 
L 358.839771 286.408818 
L 359.16475 285.978017 
L 359.48973 290.975864 
L 359.814709 291.508449 
L 360.139689 282.695372 
L 360.464668 286.383214 
L 360.789648 288.041085 
L 361.114627 292.115594 
L 361.439607 284.703984 
L 361.764586 290.843018 
L 362.089566 289.881349 
L 362.739525 286.336032 
L 363.064505 292.098931 
L 363.389484 292.246776 
L 364.039443 286.584007 
L 364.364423 290.149857 
L 364.689402 284.742827 
L 365.339361 288.811882 
L 365.664341 284.390573 
L 365.98932 286.418002 
L 366.3143 291.276143 
L 366.639279 290.311753 
L 366.964259 290.994978 
L 367.289238 292.939346 
L 367.614218 291.603153 
L 367.939197 293.833332 
L 368.264177 291.268299 
L 368.589156 293.44142 
L 368.914136 289.063998 
L 369.239115 290.56049 
L 369.564095 288.796058 
L 369.889075 289.793539 
L 370.214054 280.264219 
L 370.539034 275.444658 
L 370.864013 290.028742 
L 371.188993 277.277206 
L 371.513972 287.318615 
L 371.838952 283.290148 
L 372.163931 286.435747 
L 372.488911 288.339017 
L 373.13887 287.491156 
L 373.463849 289.324845 
L 373.788829 283.04001 
L 374.113808 287.27095 
L 374.438788 283.84436 
L 374.763767 289.469051 
L 375.088747 282.991752 
L 375.413726 285.746235 
L 375.738706 290.180515 
L 376.063686 285.067549 
L 376.388665 286.189381 
L 376.713645 290.708119 
L 377.038624 288.310283 
L 377.363604 291.99482 
L 377.688583 292.956052 
L 378.013563 292.445972 
L 378.338542 292.615178 
L 378.663522 290.114464 
L 378.988501 291.161491 
L 379.313481 290.928505 
L 379.96344 282.792009 
L 380.288419 287.086834 
L 380.613399 281.404218 
L 380.938378 287.101449 
L 381.263358 279.517248 
L 381.588337 280.671647 
L 381.913317 290.083274 
L 382.238296 280.867137 
L 382.563276 290.281617 
L 382.888256 282.424978 
L 383.213235 279.25074 
L 383.538215 294.257486 
L 383.863194 277.325999 
L 384.188174 290.387457 
L 384.513153 284.947518 
L 384.838133 291.60635 
L 385.163112 285.89706 
L 385.488092 292.497542 
L 385.813071 291.028679 
L 386.138051 290.84556 
L 386.46303 291.570132 
L 386.78801 291.564977 
L 387.112989 290.947243 
L 387.437969 284.867154 
L 387.762948 291.572295 
L 388.087928 290.283043 
L 388.412907 293.469889 
L 388.737887 293.430186 
L 389.062867 291.81521 
L 389.712826 294.107641 
L 390.037805 293.173062 
L 390.362785 293.960573 
L 390.687764 290.06013 
L 391.012744 290.01239 
L 391.337723 290.609792 
L 391.662703 290.057866 
L 391.987682 292.007299 
L 392.312662 292.377365 
L 392.637641 291.427415 
L 392.962621 293.5469 
L 393.2876 292.926011 
L 393.61258 294.475691 
L 393.937559 295.164355 
L 394.262539 293.43616 
L 394.912498 291.466116 
L 395.237477 291.902797 
L 395.562457 290.043764 
L 395.887437 295.488 
L 396.212416 294.375879 
L 396.537396 295.15291 
L 397.187355 293.020765 
L 397.512334 292.704165 
L 397.837314 293.344185 
L 398.162293 292.30737 
L 398.487273 289.600393 
L 398.487273 289.600393 
" style="fill:none;stroke:#ff7f0e;stroke-linecap:square;stroke-width:1.5;"/>
   </g>
   <g id="patch_3">
    <path d="M 57.6 307.584 
L 57.6 41.472 
" style="fill:none;stroke:#000000;stroke-linecap:square;stroke-linejoin:miter;stroke-width:0.8;"/>
   </g>
   <g id="patch_4">
    <path d="M 414.72 307.584 
L 414.72 41.472 
" style="fill:none;stroke:#000000;stroke-linecap:square;stroke-linejoin:miter;stroke-width:0.8;"/>
   </g>
   <g id="patch_5">
    <path d="M 57.6 307.584 
L 414.72 307.584 
" style="fill:none;stroke:#000000;stroke-linecap:square;stroke-linejoin:miter;stroke-width:0.8;"/>
   </g>
   <g id="patch_6">
    <path d="M 57.6 41.472 
L 414.72 41.472 
" style="fill:none;stroke:#000000;stroke-linecap:square;stroke-linejoin:miter;stroke-width:0.8;"/>
   </g>
   <g id="legend_1">
    <g id="patch_7">
     <path d="M 329.768438 78.82825 
L 407.72 78.82825 
Q 409.72 78.82825 409.72 76.82825 
L 409.72 48.472 
Q 409.72 46.472 407.72 46.472 
L 329.768438 46.472 
Q 327.768438 46.472 327.768438 48.472 
L 327.768438 76.82825 
Q 327.768438 78.82825 329.768438 78.82825 
z
" style="fill:#ffffff;opacity:0.8;stroke:#cccccc;stroke-linejoin:miter;"/>
    </g>
    <g id="line2d_45">
     <path d="M 331.768438 54.570437 
L 351.768438 54.570437 
" style="fill:none;stroke:#1f77b4;stroke-linecap:square;stroke-width:1.5;"/>
    </g>
    <g id="line2d_46"/>
    <g id="text_13">
     <!-- No PCA -->
     <defs>
      <path d="M 9.8125 72.90625 
L 23.09375 72.90625 
L 55.421875 11.921875 
L 55.421875 72.90625 
L 64.984375 72.90625 
L 64.984375 0 
L 51.703125 0 
L 19.390625 60.984375 
L 19.390625 0 
L 9.8125 0 
z
" id="DejaVuSans-4e"/>
      <path d="M 19.671875 64.796875 
L 19.671875 37.40625 
L 32.078125 37.40625 
Q 38.96875 37.40625 42.71875 40.96875 
Q 46.484375 44.53125 46.484375 51.125 
Q 46.484375 57.671875 42.71875 61.234375 
Q 38.96875 64.796875 32.078125 64.796875 
z
M 9.8125 72.90625 
L 32.078125 72.90625 
Q 44.34375 72.90625 50.609375 67.359375 
Q 56.890625 61.8125 56.890625 51.125 
Q 56.890625 40.328125 50.609375 34.8125 
Q 44.34375 29.296875 32.078125 29.296875 
L 19.671875 29.296875 
L 19.671875 0 
L 9.8125 0 
z
" id="DejaVuSans-50"/>
      <path d="M 64.40625 67.28125 
L 64.40625 56.890625 
Q 59.421875 61.53125 53.78125 63.8125 
Q 48.140625 66.109375 41.796875 66.109375 
Q 29.296875 66.109375 22.65625 58.46875 
Q 16.015625 50.828125 16.015625 36.375 
Q 16.015625 21.96875 22.65625 14.328125 
Q 29.296875 6.6875 41.796875 6.6875 
Q 48.140625 6.6875 53.78125 8.984375 
Q 59.421875 11.28125 64.40625 15.921875 
L 64.40625 5.609375 
Q 59.234375 2.09375 53.4375 0.328125 
Q 47.65625 -1.421875 41.21875 -1.421875 
Q 24.65625 -1.421875 15.125 8.703125 
Q 5.609375 18.84375 5.609375 36.375 
Q 5.609375 53.953125 15.125 64.078125 
Q 24.65625 74.21875 41.21875 74.21875 
Q 47.75 74.21875 53.53125 72.484375 
Q 59.328125 70.75 64.40625 67.28125 
z
" id="DejaVuSans-43"/>
      <path d="M 34.1875 63.1875 
L 20.796875 26.90625 
L 47.609375 26.90625 
z
M 28.609375 72.90625 
L 39.796875 72.90625 
L 67.578125 0 
L 57.328125 0 
L 50.6875 18.703125 
L 17.828125 18.703125 
L 11.1875 0 
L 0.78125 0 
z
" id="DejaVuSans-41"/>
     </defs>
     <g transform="translate(359.768438 58.070437)scale(0.1 -0.1)">
      <use xlink:href="#DejaVuSans-4e"/>
      <use x="74.804688" xlink:href="#DejaVuSans-6f"/>
      <use x="135.986328" xlink:href="#DejaVuSans-20"/>
      <use x="167.773438" xlink:href="#DejaVuSans-50"/>
      <use x="228.076172" xlink:href="#DejaVuSans-43"/>
      <use x="297.900391" xlink:href="#DejaVuSans-41"/>
     </g>
    </g>
    <g id="line2d_47">
     <path d="M 331.768438 69.248562 
L 351.768438 69.248562 
" style="fill:none;stroke:#ff7f0e;stroke-linecap:square;stroke-width:1.5;"/>
    </g>
    <g id="line2d_48"/>
    <g id="text_14">
     <!-- With PCA -->
     <defs>
      <path d="M 3.328125 72.90625 
L 13.28125 72.90625 
L 28.609375 11.28125 
L 43.890625 72.90625 
L 54.984375 72.90625 
L 70.3125 11.28125 
L 85.59375 72.90625 
L 95.609375 72.90625 
L 77.296875 0 
L 64.890625 0 
L 49.515625 63.28125 
L 33.984375 0 
L 21.578125 0 
z
" id="DejaVuSans-57"/>
      <path d="M 9.421875 54.6875 
L 18.40625 54.6875 
L 18.40625 0 
L 9.421875 0 
z
M 9.421875 75.984375 
L 18.40625 75.984375 
L 18.40625 64.59375 
L 9.421875 64.59375 
z
" id="DejaVuSans-69"/>
      <path d="M 18.3125 70.21875 
L 18.3125 54.6875 
L 36.8125 54.6875 
L 36.8125 47.703125 
L 18.3125 47.703125 
L 18.3125 18.015625 
Q 18.3125 11.328125 20.140625 9.421875 
Q 21.96875 7.515625 27.59375 7.515625 
L 36.8125 7.515625 
L 36.8125 0 
L 27.59375 0 
Q 17.1875 0 13.234375 3.875 
Q 9.28125 7.765625 9.28125 18.015625 
L 9.28125 47.703125 
L 2.6875 47.703125 
L 2.6875 54.6875 
L 9.28125 54.6875 
L 9.28125 70.21875 
z
" id="DejaVuSans-74"/>
     </defs>
     <g transform="translate(359.768438 72.748562)scale(0.1 -0.1)">
      <use xlink:href="#DejaVuSans-57"/>
      <use x="98.845703" xlink:href="#DejaVuSans-69"/>
      <use x="126.628906" xlink:href="#DejaVuSans-74"/>
      <use x="165.837891" xlink:href="#DejaVuSans-68"/>
      <use x="229.216797" xlink:href="#DejaVuSans-20"/>
      <use x="261.003906" xlink:href="#DejaVuSans-50"/>
      <use x="321.306641" xlink:href="#DejaVuSans-43"/>
      <use x="391.130859" xlink:href="#DejaVuSans-41"/>
     </g>
    </g>
   </g>
  </g>
 </g>
 <defs>
  <clipPath id="p919f2ed0b3">
   <rect height="266.112" width="357.12" x="57.6" y="41.472"/>
  </clipPath>
 </defs>
</svg>
